<?xml version="1.0" encoding="UTF-8" standalone="no"?>
<!-- Created with Inkscape (http://www.inkscape.org/) -->

<svg
   xmlns:dc="http://purl.org/dc/elements/1.1/"
   xmlns:cc="http://creativecommons.org/ns#"
   xmlns:rdf="http://www.w3.org/1999/02/22-rdf-syntax-ns#"
   xmlns:svg="http://www.w3.org/2000/svg"
   xmlns="http://www.w3.org/2000/svg"
   xmlns:sodipodi="http://sodipodi.sourceforge.net/DTD/sodipodi-0.dtd"
   xmlns:inkscape="http://www.inkscape.org/namespaces/inkscape"
   width="1206"
   height="2048"
   viewBox="0 0 319.08749 541.86665"
   version="1.1"
   id="svg8"
   inkscape:version="0.92.2 (5c3e80d, 2017-08-06)"
   sodipodi:docname="Kaufland.svg">
  <defs
     id="defs2" />
  <sodipodi:namedview
     id="base"
     pagecolor="#ffffff"
     bordercolor="#666666"
     borderopacity="1.0"
     inkscape:pageopacity="0.0"
     inkscape:pageshadow="2"
     inkscape:zoom="0.35"
     inkscape:cx="17.1301"
     inkscape:cy="1005.2305"
     inkscape:document-units="mm"
     inkscape:current-layer="layer1"
     showgrid="false"
     units="px"
     inkscape:measure-start="0,0"
     inkscape:measure-end="0,0"
     inkscape:window-width="1920"
     inkscape:window-height="1017"
     inkscape:window-x="-8"
     inkscape:window-y="-8"
     inkscape:window-maximized="1" />
  <metadata
     id="metadata5">
    <rdf:RDF>
      <cc:Work
         rdf:about="">
        <dc:format>image/svg+xml</dc:format>
        <dc:type
           rdf:resource="http://purl.org/dc/dcmitype/StillImage" />
        <dc:title></dc:title>
      </cc:Work>
    </rdf:RDF>
  </metadata>
  <g
     inkscape:label="Ebene 1"
     inkscape:groupmode="layer"
     id="layer1"
     transform="translate(0,244.86641)">
    <path
       style="fill:#e10915;fill-opacity:1;stroke-width:0.26458332"
       d="M 1.0262235,4.2861323 159.71639,67.502734 318.51546,4.2848623 159.77151,296.58252 Z M 276.6553,40.689706 159.77129,87.310846 43.250557,40.917226 159.78028,255.85044 Z"
       id="path1447"
       inkscape:connector-curvature="0"
       sodipodi:nodetypes="cccccccccc" />
    <path
       style="fill:#e10915;fill-opacity:1;stroke-width:5;stroke:#ffffff;stroke-opacity:1;stroke-miterlimit:4;stroke-dasharray:none"
       d="M 151.20123,26.1654 C 125.27629,24.601951 99.92019,15.319212 78.88626,-0.30871156 69.470801,-7.3042707 59.779109,-16.790242 52.57333,-26.063109 38.314001,-44.412949 28.928442,-66.502672 25.649432,-89.430814 c -1.08353,-7.576463 -1.320236,-11.086846 -1.320236,-19.579166 0,-4.43839 0.148063,-9.6176 0.32903,-11.50937 3.098985,-32.39596 16.047891,-60.54606 38.261619,-83.17831 23.075476,-23.51023 52.116925,-37.21902 85.342255,-40.28514 4.60498,-0.42496 18.14917,-0.42496 22.75416,0 26.03849,2.4029 49.24523,11.24615 69.80113,26.59869 16.4265,12.26842 30.1993,28.66009 39.59439,47.12309 18.67654,36.70273 19.51191,80.226839 2.26232,117.871871 -8.88068,19.381045 -22.93136,37.050949 -40.08805,50.4141949 C 216.81315,18.099395 184.16357,28.153268 151.20123,26.1654 Z"
       id="path833" />
    <path
       style="fill:#ffffff;fill-opacity:1;stroke-width:5;stroke:#ffffff;stroke-opacity:1;stroke-miterlimit:4;stroke-dasharray:none"
       d="m 171.01626,-1.2003097 c 20.09063,-2.211996 38.30728,-9.4704293 54.34341,-21.6531653 13.00387,-9.879121 23.90542,-23.06571 31.33211,-37.8996 15.08308,-30.12659 15.08308,-66.387225 0,-96.513805 -5.94188,-11.86815 -14.39196,-23.08524 -23.8329,-31.63701 -14.65561,-13.27535 -31.54597,-22.01533 -50.43995,-26.10033 -26.13401,-5.65034 -54.31271,-1.18384 -77.25499,12.24542 -24.128353,14.12352 -41.910948,36.88895 -49.668729,63.58632 -7.54717,25.97259 -5.004612,54.175786 7.063078,78.346819 5.513308,11.042906 11.817162,19.77691 20.60485,28.548077 18.609081,18.57409 42.660321,29.4977833 69.317201,31.48277467 4.22501,0.31461338 13.92222,0.10247312 18.53592,-0.40550037 z"
       id="path6" />
    <g
       id="g829"
       transform="matrix(0.40810883,0,0,0.40810883,35.013933,-240.02678)">
      <path
         style="fill:#e10915;fill-opacity:1;fill-rule:nonzero;stroke:none"
         d="M 198.89648,126.57172 V 229.03266 H 301.35742 V 126.57172 Z m 120.54688,0 V 229.03266 L 421.9043,126.57172 Z M 198.89648,247.11469 V 349.57562 H 301.35742 V 247.11469 Z m 120.54688,0 V 349.57562 H 421.9043 Z"
         id="path3962"
         inkscape:connector-curvature="0" />
      <path
         style="fill:#e10915;fill-opacity:1;fill-rule:nonzero;stroke:none"
         d="m 299.93164,408.09516 c -0.56704,10e-4 -1.1368,0.0232 -1.70508,0.0684 -5.3075,-0.38125 -10.51117,1.59554 -14.23242,5.40429 -3.715,3.80875 -5.56719,9.06383 -5.05469,14.36133 v 6.03125 h -7.17187 v 11.6875 h 7.17187 v 36.5293 h 14.46485 v -36.94922 h 16.45508 V 433.59715 H 293.4043 v -4.46289 c 0,-6.025 2.83578,-9.16016 7.89453,-9.16016 l 0.0644,-0.0586 c 2.685,-0.0688 5.3268,0.66508 7.5918,2.11133 l 2.28906,-10.84961 c -3.43547,-2.02891 -7.34325,-3.09041 -11.3125,-3.08203 z m -203.49609,1.08789 v 72.99414 h 16.39648 v -32.85157 l 23.92578,32.85157 h 18.98438 l -28.14453,-37.31055 27.72461,-35.68359 h -18.56446 l -23.92578,33.45312 v -33.45312 z m 221.62109,0 v 72.99023 h 14.4668 v -72.99023 z m 180.21484,0 v 30.13867 c -4.01875,-4.21875 -9.59843,-6.59836 -15.42968,-6.56836 -13.68125,0 -22.96485,11.26914 -22.96485,25.55664 -0.4825,6.42625 1.70969,12.76414 6.05469,17.52539 4.34625,4.755 10.46516,7.50797 16.91016,7.60547 5.835,0.0738 11.43593,-2.30781 15.42968,-6.57031 v 5.30664 h 14.04297 v -72.99414 z m -63.94531,23.25781 c -0.32153,-0.005 -0.64367,-0.002 -0.96679,0.01 v 0.0586 c -5.89376,-0.0387 -11.51844,2.46625 -15.42969,6.875 v -6.03125 h -14.10547 v 48.82422 h 14.16406 v -31.88477 c 2.33375,-3.47125 6.24508,-5.55062 10.42383,-5.54687 2.68125,-0.15125 5.28922,0.9025 7.10547,2.875 1.82125,1.9725 2.66703,4.65429 2.30078,7.31054 v 27.2461 h 14.22266 v -30.13672 c 0.43375,-5.15625 -1.3629,-10.255 -4.93164,-14 -3.35157,-3.51094 -7.9603,-5.51874 -12.78321,-5.59961 z m -257.66601,0.18945 c -13.56375,0 -22.9043,11.27039 -22.9043,25.55664 -0.48375,6.41625 1.69695,12.75086 6.0332,17.50586 4.33125,4.75125 10.4361,7.51446 16.8711,7.62696 5.56625,0.0725 10.93281,-2.10039 14.88281,-6.02539 v 4.88281 h 14.10742 v -48.58008 h -14.10742 v 5.06445 c -3.98875,-3.86625 -9.32656,-6.03125 -14.88281,-6.03125 z m 187.80664,0 c -13.56375,0 -22.9043,11.27039 -22.9043,25.55664 -0.48375,6.41625 1.69891,12.75086 6.03516,17.50586 4.33625,4.75125 10.43414,7.51446 16.86914,7.62696 5.57125,0.0725 10.93367,-2.10039 14.88867,-6.02539 v 4.88281 h 14.10156 v -48.58008 h -14.10156 v 5.06445 c -3.99375,-3.86625 -9.33117,-6.03125 -14.88867,-6.03125 z m -148.8125,0.9668 v 30.13867 c -0.43375,5.15625 1.36164,10.25305 4.93164,13.99805 3.57375,3.745 8.57961,5.77594 13.75586,5.58594 5.97125,-0.0388 11.63867,-2.65063 15.54492,-7.17188 v 6.0293 h 14.10742 v -48.58008 h -14.10742 v 31.88086 c -2.4025,3.39875 -6.26758,5.45437 -10.42383,5.54687 -2.675,0.12625 -5.2725,-0.93273 -7.09375,-2.89648 -1.82625,-1.9625 -2.69164,-4.62781 -2.36914,-7.28906 v -27.24219 z m -34.41407,10.8457 c 3.93625,-0.0287 7.69149,1.64024 10.30274,4.58399 v 17.53906 c -2.6075,2.95 -6.36649,4.62078 -10.30274,4.58203 -7.02625,-0.47375 -12.48437,-6.30836 -12.48437,-13.34961 0,-7.04125 5.45812,-12.88172 12.48437,-13.35547 z m 187.80665,0 c 3.93624,-0.0287 7.69734,1.64024 10.30859,4.58399 v 17.53906 c -2.6075,2.95 -6.37235,4.62078 -10.30859,4.58203 -7.02626,-0.47375 -12.48438,-6.30836 -12.48438,-13.34961 0,-7.04125 5.45813,-12.88172 12.48438,-13.35547 z m 118.375,0.0625 c 4.2275,-0.0587 8.2371,1.86039 10.8496,5.18164 v 16.33789 c -2.6125,3.32 -6.6221,5.23844 -10.8496,5.17969 -7.02751,-0.4725 -12.48633,-6.30641 -12.48633,-13.34765 0,-7.04125 5.45883,-12.87782 12.48633,-13.35157 z"
         id="path3970"
         inkscape:connector-curvature="0" />
    </g>
  </g>
</svg>
