<?xml version="1.0" encoding="UTF-8" standalone="no"?>
<!-- Created with Inkscape (http://www.inkscape.org/) -->

<svg
   xmlns:dc="http://purl.org/dc/elements/1.1/"
   xmlns:cc="http://creativecommons.org/ns#"
   xmlns:rdf="http://www.w3.org/1999/02/22-rdf-syntax-ns#"
   xmlns:svg="http://www.w3.org/2000/svg"
   xmlns="http://www.w3.org/2000/svg"
   xmlns:sodipodi="http://sodipodi.sourceforge.net/DTD/sodipodi-0.dtd"
   xmlns:inkscape="http://www.inkscape.org/namespaces/inkscape"
   width="1206"
   height="2048"
   viewBox="0 0 319.08749 541.86665"
   version="1.1"
   id="svg8"
   inkscape:version="0.92.2 (5c3e80d, 2017-08-06)"
   sodipodi:docname="Netto Marken-Discount.svg">
  <defs
     id="defs2" />
  <sodipodi:namedview
     id="base"
     pagecolor="#ffffff"
     bordercolor="#666666"
     borderopacity="1.0"
     inkscape:pageopacity="0.0"
     inkscape:pageshadow="2"
     inkscape:zoom="0.24748737"
     inkscape:cx="-598.78488"
     inkscape:cy="727.77426"
     inkscape:document-units="mm"
     inkscape:current-layer="layer1"
     showgrid="false"
     units="px"
     inkscape:measure-start="0,0"
     inkscape:measure-end="0,0"
     inkscape:window-width="1920"
     inkscape:window-height="1017"
     inkscape:window-x="-8"
     inkscape:window-y="-8"
     inkscape:window-maximized="1" />
  <metadata
     id="metadata5">
    <rdf:RDF>
      <cc:Work
         rdf:about="">
        <dc:format>image/svg+xml</dc:format>
        <dc:type
           rdf:resource="http://purl.org/dc/dcmitype/StillImage" />
        <dc:title></dc:title>
      </cc:Work>
    </rdf:RDF>
  </metadata>
  <g
     inkscape:label="Ebene 1"
     inkscape:groupmode="layer"
     id="layer1"
     transform="translate(0,244.86641)">
    <path
       style="fill:#fee702;fill-opacity:1;stroke:#e41d25;stroke-width:2;stroke-miterlimit:4;stroke-dasharray:none;stroke-opacity:1"
       d="M 1.0262235,4.2861323 159.71639,67.502734 318.51546,4.2848623 159.77151,296.58252 Z M 276.6553,40.689706 159.77129,87.310846 43.250557,40.917226 159.78028,255.85044 Z"
       id="path1447"
       inkscape:connector-curvature="0"
       sodipodi:nodetypes="cccccccccc" />
    <path
       style="fill:#fee702;fill-opacity:1;stroke:#e41d25;stroke-width:2;stroke-miterlimit:4;stroke-dasharray:none;stroke-opacity:1"
       d="M 151.20123,26.1654 C 125.27629,24.601951 99.92019,15.319212 78.88626,-0.30871156 69.470801,-7.3042707 59.779109,-16.790242 52.57333,-26.063109 38.314001,-44.412949 28.928442,-66.502672 25.649432,-89.430814 c -1.08353,-7.576463 -1.320236,-11.086846 -1.320236,-19.579166 0,-4.43839 0.148063,-9.6176 0.32903,-11.50937 3.098985,-32.39596 16.047891,-60.54606 38.261619,-83.17831 23.075476,-23.51023 52.116925,-37.21902 85.342255,-40.28514 4.60498,-0.42496 18.14917,-0.42496 22.75416,0 26.03849,2.4029 49.24523,11.24615 69.80113,26.59869 16.4265,12.26842 30.1993,28.66009 39.59439,47.12309 18.67654,36.70273 19.51191,80.226839 2.26232,117.871871 -8.88068,19.381045 -22.93136,37.050949 -40.08805,50.4141949 C 216.81315,18.099395 184.16357,28.153268 151.20123,26.1654 Z"
       id="path6"
       inkscape:connector-curvature="0"
       sodipodi:nodetypes="ssssssssssscss" />
    <g
       id="g827"
       transform="matrix(1.1720173,0,0,1.1720173,39.71298,-160.47043)">
      <path
         id="path6273"
         style="fill:#e41d25;fill-opacity:1;fill-rule:nonzero;stroke:none"
         d="m 124.12121,79.5372 c 0.7925,0 1.4675,0.475 1.4675,1.3275 0,0.8325 -0.675,1.3075 -1.4675,1.3075 h -2.585 c -0.7925,0 -1.4675,-0.475 -1.4675,-1.3075 0,-0.8525 0.655,-1.3275 1.4675,-1.3275 z m -52.490618,5.1649 c 0,-0.2975 -0.0788,-0.595 -0.15875,-0.8725 l -2.37875,-9.7487 c -0.1775,-0.7138 -0.67375,-1.3288 -1.46625,-1.3288 -0.85375,0 -1.25,0.5938 -1.5075,1.3288 l -2.0425,6.23 -2.16,-6.41 c -0.23875,-0.6525 -0.675,-1.1488 -1.4075,-1.1488 -0.77375,0 -1.28875,0.555 -1.4475,1.2688 l -2.3,9.8287 c -0.0588,0.2775 -0.13875,0.575 -0.13875,0.8725 0,0.8125 0.67375,1.4663 1.4875,1.4663 1.03,0 1.3875,-0.7725 1.58625,-1.645 l 1.24875,-5.6138 1.76375,5.99 c 0.19875,0.635 0.615,1.2888 1.34875,1.2888 0.65375,0 1.13,-0.4163 1.3275,-1.0113 0.04,-0.099 0.06,-0.1775 0.08,-0.2775 l 1.78375,-5.99 1.28875,5.6138 c 0.2175,0.8925 0.535,1.645 1.58625,1.645 0.8325,0 1.50625,-0.6538 1.50625,-1.4863 m 7.83188,-3.3295 c 0,1.2288 -0.97125,2.2788 -2.22,2.2788 -1.27,0 -2.26,-1.05 -2.26,-2.2988 0,-1.2087 0.97125,-2.2387 2.2,-2.2387 1.24875,0 2.28,1.01 2.28,2.2587 m 2.69625,3.3888 v -6.7375 c 0,-0.8525 -0.47625,-1.4475 -1.36875,-1.4475 -0.6925,0 -1.09,0.3175 -1.2875,0.9712 -0.73375,-0.6925 -1.745,-1.03 -2.73625,-1.03 -2.69625,0 -4.56,2.26 -4.56,4.855 0,2.635 1.88375,4.915 4.59875,4.915 1.01125,0 1.96375,-0.3962 2.6975,-1.07 0.2375,0.6338 0.61375,1.01 1.3275,1.01 0.8925,0 1.32875,-0.6137 1.32875,-1.4662 m 7.682,-6.6185 c 0,-0.9125 -0.8125,-1.625 -1.705,-1.625 -0.75375,0 -1.4875,0.3362 -2.0425,0.8325 -0.2375,-0.4763 -0.67375,-0.7738 -1.20875,-0.7738 -0.615,0 -1.11,0.4363 -1.24875,1.03 -0.06,0.2388 -0.06,0.4763 -0.06,0.715 v 6.44 c 0,0.7925 0.47625,1.4663 1.32875,1.4663 0.8325,0 1.30875,-0.6738 1.30875,-1.4663 v -0.2975 -4.0625 c 0,-0.4162 -0.02,-1.2087 0.575,-1.2087 0.455,0 0.7725,0.495 1.46625,0.495 0.8525,0 1.58625,-0.6738 1.58625,-1.545 m 9.266,6.7181 c 0,-0.5363 -0.3775,-0.9125 -0.73375,-1.2488 l -2.69625,-2.5962 2.5175,-1.8225 c 0.47625,-0.3375 0.9125,-0.7138 0.9125,-1.3488 0,-0.7325 -0.615,-1.3475 -1.3475,-1.3475 -0.49625,0 -0.81375,0.2975 -1.17,0.575 l -3.25125,2.5575 v -4.995 -0.2975 c 0,-0.7925 -0.45625,-1.4662 -1.30875,-1.4662 -0.8525,0 -1.32875,0.6737 -1.32875,1.4662 V 84.761 c 0,0.7937 0.47625,1.4662 1.32875,1.4662 0.8525,0 1.30875,-0.6725 1.30875,-1.4662 V 84.4635 82.186 l 3.13125,3.3087 c 0.3575,0.3763 0.675,0.7525 1.25,0.7525 0.7725,0 1.3875,-0.6137 1.3875,-1.3862 m 2.752488,-3.648 c -0.0412,-1.3513 1.24875,-2.5475 2.7475,-2.5425 0.68,0 1.17625,0.285 1.495,0.7625 l 0.08,0.12 -4.30875,1.8475 -0.0138,-0.1875 z m 5.19625,1.7687 -0.1775,0.016 c -0.0738,0.013 -0.14625,0.034 -0.21625,0.061 -0.175,0.067 -0.345,0.185 -0.5225,0.3088 -0.2225,0.155 -0.45125,0.315 -0.7325,0.4162 -0.22,0.092 -0.54,0.1388 -0.9525,0.1388 h -0.1125 c -0.5425,-0.01 -1.16125,-0.2688 -1.6075,-0.6925 l -0.0937,-0.1063 4.80375,-2.1075 c 0.59875,-0.2612 1.025,-0.605 1.025,-1.24 0,-2.0012 -2.31875,-3.2575 -4.08375,-3.2575 -2.61625,0 -4.837488,2.2388 -4.837488,4.855 0,2.675 2.261238,4.915 4.937488,4.915 0.455,0 0.91125,-0.08 1.3675,-0.1987 0.89125,-0.2375 2.31875,-0.9913 2.31875,-2.0813 0,-0.7325 -0.3825,-1.0262 -1.11625,-1.0262 m 11.02163,1.7795 v -3.5663 c 0,-1.3487 -0.2775,-2.4375 -1.26875,-3.4087 -0.79375,-0.7925 -1.90375,-1.2688 -3.03375,-1.2688 -2.61625,0 -4.2225,2.1 -4.2225,4.5975 v 3.6463 c 0,0.7925 0.47625,1.4662 1.3275,1.4662 0.8525,0 1.31,-0.6737 1.31,-1.4662 v -0.2975 -3.6063 c 0,-0.9112 0.65375,-1.7037 1.605,-1.7037 0.595,0 1.19,0.3562 1.4475,0.9112 0.1975,0.435 0.1775,0.9113 0.1775,1.3663 v 3.0325 0.2975 c 0,0.8125 0.47625,1.4662 1.32875,1.4662 0.8525,0 1.32875,-0.6737 1.32875,-1.4662 m 18.41175,-5.2511 c 0,1.625 -0.97125,3.1512 -2.5575,3.6262 -0.595,0.1788 -1.23,0.1988 -1.86375,0.1988 h -1.28875 v -7.63 h 1.30875 c 2.33875,0 4.40125,1.2687 4.40125,3.805 m 3.0325,0 c 0,-2.5763 -1.565,-5.0338 -3.925,-6.0838 -1.15,-0.515 -1.9625,-0.555 -3.19125,-0.555 h -2.895 c -1.13,0 -1.76375,0.6338 -1.76375,1.7638 v 9.69 c 0,1.15 0.61375,1.7637 1.76375,1.7637 h 2.895 c 2.02125,0 3.6875,-0.455 5.15375,-1.9012 1.24875,-1.23 1.9625,-2.9138 1.9625,-4.6775 m 4.1915,-5.0729 c 0,-0.8725 -0.69375,-1.585 -1.56625,-1.585 -0.8925,0 -1.62625,0.7125 -1.62625,1.6037 0,0.8725 0.73375,1.5263 1.58625,1.5263 0.85375,0 1.60625,-0.6738 1.60625,-1.545 m -0.238,10.324 v -6.7175 c 0,-0.8125 -0.47625,-1.4663 -1.32875,-1.4663 -0.8325,0 -1.30875,0.6738 -1.30875,1.4663 v 6.7175 c 0,0.7925 0.47625,1.4662 1.30875,1.4662 0.8525,0 1.32875,-0.6737 1.32875,-1.4662 m 6.08975,-4.617 c -0.445,-0.105 -0.9,-0.175 -1.345,-0.2563 -0.3475,-0.062 -0.78375,-0.165 -0.78375,-0.5825 0,-0.415 0.30375,-0.6875 0.68,-0.715 1.29,-0.094 1.5625,0.7325 2.685,0.6925 0.53125,-0.1212 0.83875,-0.3837 0.89,-0.9025 0.135,-1.3412 -2.12,-1.8825 -3.19125,-1.8825 -1.725,0 -3.43,0.9513 -3.43,2.8538 0,1.01 0.575,1.8825 1.4475,2.3375 0.71375,0.3775 1.5275,0.555 2.3,0.7737 0.3575,0.099 0.8525,0.2175 0.8525,0.6738 0,0.435 -0.475,0.7737 -0.8725,0.7737 -1.49625,0 -1.63625,-1.085 -2.8325,-1.285 -0.68375,-0.1137 -1.37,0.4325 -1.37,1.1075 0,1.7625 2.5375,2.555 3.985,2.555 1.98125,0 3.78625,-1.15 3.78625,-3.29 0,-1.9825 -1.51375,-2.505 -2.80125,-2.8537 m 12.39462,3.7849 c 0,-0.7138 -0.615,-1.3275 -1.32875,-1.3275 -0.9525,0 -1.24875,1.03 -2.5375,1.03 -1.22875,0 -2.24,-0.9913 -2.24,-2.2188 0,-1.2687 1.05,-2.24 2.29875,-2.24 1.21,0 1.5475,0.9313 2.36,0.9313 0.75375,0 1.32875,-0.5738 1.32875,-1.3275 0,-1.4863 -2.6175,-2.2788 -3.8075,-2.2788 -2.65625,0 -4.85625,2.2188 -4.85625,4.875 0,2.695 2.22,4.915 4.91625,4.915 1.20875,0 3.86625,-0.8525 3.86625,-2.3587 m 7.844,-2.4974 c 0,1.2087 -1.03,2.1812 -2.22,2.1812 -1.20875,0 -2.28,-0.9125 -2.28,-2.1612 0,-1.2675 0.99125,-2.3188 2.26,-2.3188 1.25,0 2.24,1.07 2.24,2.2988 m 2.67625,0.04 c 0,-2.695 -2.18,-4.9538 -4.89625,-4.9538 -2.755,0 -4.97625,2.2188 -4.97625,4.9738 0,2.735 2.3,4.7962 4.97625,4.7962 2.65625,0 4.89625,-2.1412 4.89625,-4.8162 m 9.49675,0.198 v -3.6263 c 0,-0.7925 -0.47625,-1.4662 -1.3275,-1.4662 -0.85375,0 -1.33,0.6737 -1.33,1.4662 v 0.2975 3.5863 c 0,0.9112 -0.65375,1.725 -1.605,1.725 -0.595,0 -1.19,-0.3963 -1.4475,-0.9313 -0.1975,-0.4362 -0.1775,-0.8925 -0.1775,-1.3487 v -3.0313 -0.2975 c 0,-0.8125 -0.45625,-1.4662 -1.31,-1.4662 -0.85125,0 -1.3275,0.6737 -1.3275,1.4662 v 3.5675 c 0,1.3275 0.2775,2.4575 1.24875,3.4088 0.79375,0.7912 1.90375,1.2675 3.03375,1.2675 2.63625,0 4.2425,-2.1 4.2425,-4.6175 m 9.62663,3.0915 v -3.5663 c 0,-1.3487 -0.2775,-2.4375 -1.26875,-3.4087 -0.79375,-0.7925 -1.90375,-1.2688 -3.03375,-1.2688 -2.61625,0 -4.22125,2.1 -4.22125,4.5975 v 3.6463 c 0,0.7925 0.475,1.4662 1.3275,1.4662 0.8525,0 1.30875,-0.6737 1.30875,-1.4662 v -0.2975 -3.6063 c 0,-0.9112 0.65375,-1.7037 1.605,-1.7037 0.595,0 1.19,0.3562 1.4475,0.9112 0.1975,0.435 0.17875,0.9113 0.17875,1.3663 v 3.0325 0.2975 c 0,0.8125 0.475,1.4662 1.32875,1.4662 0.85125,0 1.3275,-0.6737 1.3275,-1.4662 m 6.53782,-6.8564 c 0,-0.7725 -0.615,-1.1888 -1.3275,-1.1888 h -0.55625 v -1.4075 -0.2975 c 0,-0.8125 -0.475,-1.4662 -1.3275,-1.4662 -0.8525,0 -1.3275,0.6537 -1.3275,1.4662 v 0.2975 1.4075 c -0.79375,0 -1.5075,0.2963 -1.5075,1.1888 0,0.8912 0.71375,1.1887 1.5075,1.1887 v 5.37 0.2975 c 0,0.7938 0.475,1.4663 1.3275,1.4663 0.8525,0 1.3275,-0.6725 1.3275,-1.4663 v -0.2975 -5.37 h 0.55625 c 0.7125,0 1.3275,-0.4362 1.3275,-1.1887"
         inkscape:connector-curvature="0" />
      <path
         id="path6277"
         style="fill:#e41d25;fill-opacity:1;fill-rule:nonzero;stroke:none"
         d="m 175.34634,63.0036 c 1.51875,0 3.10125,-0.092 4.70375,-0.2762 h 10e-4 v 0 c 3.35875,-0.3838 6.42,-1.3663 9.0975,-2.9188 2.8275,-1.64 5.21375,-3.905 7.09125,-6.735 1.1975,-1.805 2.2225,-3.735 3.045,-5.7337 0.78875,-1.9163 1.4125,-3.945 1.85125,-6.0313 0.4175,-1.9812 0.68125,-4.0662 0.78375,-6.1975 0.0962,-2.0125 0.05,-4.1212 -0.13625,-6.2662 -0.1575,-1.8163 -0.56125,-3.5238 -1.19875,-5.0775 -0.65,-1.58 -1.54625,-3.0113 -2.66375,-4.2513 -1.1,-1.2225 -2.4175,-2.2612 -3.915,-3.0925 -1.43875,-0.7962 -3.05375,-1.4037 -4.80125,-1.8075 -1.26,-0.2912 -2.56875,-0.5137 -3.88625,-0.66 -1.3,-0.1462 -2.62,-0.22 -3.92375,-0.22 h -10e-4 c -0.5525,0 -1.10875,0.014 -1.655,0.04 -1.17875,0.056 -2.33625,0.1763 -3.44,0.3563 -1.12875,0.185 -2.23375,0.4362 -3.2825,0.75 -1.0725,0.32 -2.115,0.7125 -3.1,1.1662 -1.00125,0.4625 -1.96875,0.9988 -2.8775,1.5975 -0.9175,0.6038 -1.79625,1.2863 -2.61375,2.0263 -0.5425,0.4925 -1.0675,1.0187 -1.56625,1.5725 l 0.1775,-0.915 c 0.2975,-1.5313 -0.0838,-3.08 -1.04625,-4.2475 -0.95625,-1.16 -2.38875,-1.825 -3.93,-1.825 h -5.0825 l 0.85875,-4.445 c 0.295,-1.5313 -0.0863,-3.0775 -1.04875,-4.2438 -0.95625,-1.1587 -2.3875,-1.8225 -3.92875,-1.8225 h -8.11375 c -1.31,0 -2.6025,0.4788 -3.63875,1.3475 -1.02125,0.8563 -1.71875,2.0288 -1.965,3.3013 l -1.1325,5.8625 h -9.1625 l 0.85875,-4.445 c 0.29625,-1.5313 -0.0863,-3.0775 -1.04875,-4.2438 -0.95625,-1.1587 -2.3875,-1.8225 -3.9275,-1.8225 h -8.115 c -1.30875,0 -2.60125,0.4788 -3.63875,1.3475 -1.02,0.8563 -1.71875,2.0288 -1.965,3.3013 l -1.13125,5.8625 h -2.68125 c -1.3075,0 -2.6,0.4775 -3.636248,1.3462 -1.02,0.855 -1.71875,2.025 -1.965,3.2975 l -0.33625,1.7275 c -0.004,0 -0.007,-0.011 -0.0113,-0.016 -1.1425,-1.625 -2.60625,-2.985 -4.35125,-4.0388 -1.68375,-1.0187 -3.60875,-1.7387 -5.7225,-2.1412 -2.09,-0.4625 -4.36125,-0.6963 -6.7525,-0.6963 -0.77125,0 -1.56125,0.025 -2.34875,0.074 -1.2175,0.075 -2.41,0.2125 -3.54875,0.41 -1.16625,0.2025 -2.305,0.4725 -3.38625,0.8025 -1.10625,0.3387 -2.1825,0.7487 -3.1975,1.2212 -1.03625,0.4813 -2.03625,1.0388 -2.9725,1.6575 -0.95,0.6275 -1.8575,1.3338 -2.7,2.1 -0.84875,0.7713 -1.65125,1.6225 -2.3875,2.5313 -0.735,0.9075 -1.4225,1.8962 -2.04375,2.9387 -0.1725,0.29 -0.34125,0.5863 -0.505,0.8875 0,0 -0.0325,0.068 -0.1075,0.036 -0.0525,-0.022 -0.0412,-0.085 -0.0412,-0.085 l 3.93375,-20.2375 c 0.2975,-1.5325 -0.0837,-3.08 -1.045,-4.2475 C 59.116342,0.665 57.683842,0 56.141342,0 h -8.98375 c -1.30875,0 -2.6,0.4775 -3.63625,1.345 -1.02125,0.855 -1.72,2.0262 -1.96625,3.2975 l -3.48875,17.9412 -4.1725,-18.07 c -0.15,-0.6475 -0.41375,-1.265 -0.78625,-1.8337 -0.3375,-0.5163 -0.75375,-0.9775 -1.23625,-1.37 C 30.830092,0.465 29.548842,0 28.260092,0 h -12.3875 c -1.3075,0 -2.6,0.4775 -3.63625,1.345 -1.02,0.855 -1.71875,2.0262 -1.96625,3.2975 L 0.09884243,56.9312 c -0.2975,1.5313 0.0838,3.08 1.04624997,4.2475 0.95625,1.16 2.38875,1.825 3.93,1.825 H 175.34634 Z"
         inkscape:connector-curvature="0" />
      <path
         id="path6281"
         style="fill:#fee702;fill-opacity:1;fill-rule:nonzero;stroke:none"
         d="m 57.440342,5.3571 -10.025,51.5638 c -0.1725,0.89 -1.035,1.6112 -1.92375,1.6112 h -12.61875 c -0.89,0 -1.77875,-0.7212 -1.98375,-1.6112 l -7.88375,-34.145 c -0.03,-0.1263 -0.21125,-0.1238 -0.23625,0 l -6.6375,34.14 c -0.17375,0.89 -1.035,1.6112 -1.925,1.6112 H 5.2215924 c -0.89,0 -1.47125,-0.7212 -1.2975,-1.6112 L 13.947842,5.3521 c 0.17375,-0.89 1.035,-1.6112 1.925,-1.6112 h 12.3875 c 0.89,0 1.77875,0.7212 1.98375,1.6112 l 8.00875,34.6863 c 0.03,0.1275 0.2125,0.1237 0.2375,0 l 6.74125,-34.6825 c 0.17375,-0.89 1.035,-1.6113 1.925,-1.6113 h 8.985 c 0.89,0 1.47125,0.7213 1.29875,1.6113 m 27.7,26.5437 c -0.3175,2.28 -1.66625,3.1913 -4.21875,3.1888 -3.37375,0 -10.29375,0 -11.36875,0 -0.075,0 -0.13125,-0.066 -0.11875,-0.14 0.1725,-1.0475 0.56875,-2.6575 1.915,-4.6825 2.44,-3.675 6.41125,-4.5875 10.45875,-3.5988 2.30625,0.5738 3.71125,2.4888 3.3325,5.2325 m 1.28125,-13.7987 c -2.62375,-0.5863 -5.42625,-0.72 -8.11625,-0.5538 -8.63875,0.5338 -15.17875,4.4988 -18.7125,12.7263 -2.01875,4.7012 -2.9625,9.705 -3.04625,14.8137 -0.11625,7.1075 3.585,13.3538 14.54375,14.0525 9.20625,0.5875 15.425,-1.215 17.79375,-1.9237 0.57875,-0.1725 1.01125,-0.6538 1.1225,-1.2463 l 1.36875,-7.08 c 0.0175,-0.088 -0.065,-0.1625 -0.15125,-0.1375 -4.09875,1.1563 -7.255,1.9 -14.51375,1.8063 -7.86375,-0.1025 -8.8675,-3.3263 -8.68125,-7.3 0.003,-0.065 0.0562,-0.1163 0.12125,-0.1163 1.32625,0.011 10.8025,0.1488 15.01875,-0.076 6.4675,-0.3438 11.99,-3.0025 12.96625,-11.0813 0.8875,-7.355 -2.85125,-12.6 -9.71375,-13.8837 m 32.257498,8.845 c -0.0575,0 -0.1075,0.041 -0.11875,0.099 l -3.45625,17.9913 c -0.53125,2.735 0.73,4.6262 2.6575,4.995 2.7325,0.52 5.715,0.1162 7.96125,0.01 0.0787,0 0.14,0.067 0.125,0.1437 l -1.2275,6.315 c -0.0888,0.475 -0.3375,0.8888 -0.76,1.1213 -1.10625,0.6087 -3.71,1.5987 -8.9625,1.5987 -10.985,0 -12.28125,-8.0037 -10.89625,-15.4587 l 3.21375,-16.6675 c 0.0138,-0.074 -0.0425,-0.1438 -0.11875,-0.1438 h -5.6375 c -0.89,0 -1.469998,-0.7212 -1.2975,-1.6112 l 1.1125,-5.72 c 0.1725,-0.89 1.03375,-1.6125 1.92375,-1.6125 h 5.6725 c 0.0588,0 0.10875,-0.04 0.11875,-0.098 l 1.7,-8.8 c 0.17125,-0.8913 1.03375,-1.6138 1.925,-1.6138 h 8.11375 c 0.89,0 1.47,0.72 1.29875,1.61 l -1.69125,8.7588 c -0.015,0.074 0.0425,0.1425 0.1175,0.1425 h 16.54875 c 0.0575,0 0.1075,-0.04 0.11875,-0.098 l 1.7,-8.8 c 0.17125,-0.8913 1.03375,-1.6138 1.92375,-1.6138 h 8.115 c 0.89,0 1.47,0.72 1.29875,1.61 l -1.6925,8.7588 c -0.0137,0.074 0.0437,0.1425 0.12,0.1425 h 9.475 c 0.89,0 1.47125,0.7225 1.29875,1.6125 l -1.1125,5.72 c -0.17375,0.89 -1.035,1.6112 -1.925,1.6112 h -9.51125 c -0.0575,0 -0.1075,0.041 -0.11875,0.099 l -3.45625,17.9912 c -0.52625,2.7325 0.72875,4.6263 2.6575,4.995 2.7325,0.52 5.715,0.1163 7.96125,0.01 0.0788,0 0.14,0.067 0.125,0.1438 l -1.2275,6.315 c -0.0888,0.475 -0.3375,0.8887 -0.76125,1.1212 -1.105,0.6088 -3.70875,1.5988 -8.96125,1.5988 -10.985,0 -12.31375,-8.0038 -10.9125,-15.4588 l 3.23,-16.6675 c 0.0138,-0.074 -0.0437,-0.1437 -0.12,-0.1437 h -16.5475 z m 65.52875,18.1238 c -1.3925,3.0975 -3.89625,4.6012 -6.8225,4.4887 -4.6875,0.125 -7.07625,-1.9937 -6.69875,-6.2387 0.34,-3.8338 1.05875,-7.6863 2.22,-11.2825 1.6025,-4.9588 6.105,-5.9963 10.37375,-4.8625 2.11,0.56 3.38375,2.33 3.385,5.1487 0.004,4.3938 -0.65125,8.7288 -2.4575,12.7463 m 13.84375,-15.9025 c -0.505,-5.8238 -4.035,-9.5975 -9.68875,-10.9013 -2.74625,-0.635 -5.6525,-0.8837 -8.44375,-0.7487 -8.3075,0.3975 -14.53875,4.2437 -18.01625,12.1262 -2.06,4.67 -2.79875,9.7213 -3.0775,13.8425 0.0238,9.1425 3.61625,13.9213 11.32375,15.325 3.09375,0.565 6.36625,0.5488 9.47625,0.1938 5.58625,-0.64 10.30125,-3.1938 13.4925,-8.0038 4.35625,-6.5625 5.6075,-14.07 4.93375,-21.8337"
         inkscape:connector-curvature="0" />
    </g>
  </g>
</svg>
