<?xml version="1.0" encoding="UTF-8" standalone="no"?>
<!-- Created with Inkscape (http://www.inkscape.org/) -->

<svg
   xmlns:dc="http://purl.org/dc/elements/1.1/"
   xmlns:cc="http://creativecommons.org/ns#"
   xmlns:rdf="http://www.w3.org/1999/02/22-rdf-syntax-ns#"
   xmlns:svg="http://www.w3.org/2000/svg"
   xmlns="http://www.w3.org/2000/svg"
   xmlns:sodipodi="http://sodipodi.sourceforge.net/DTD/sodipodi-0.dtd"
   xmlns:inkscape="http://www.inkscape.org/namespaces/inkscape"
   width="1206"
   height="2048"
   viewBox="0 0 319.08749 541.86665"
   version="1.1"
   id="svg8"
   inkscape:version="0.92.2 (5c3e80d, 2017-08-06)"
   sodipodi:docname="NORMA.svg">
  <defs
     id="defs2">
    <style
       id="style815"
       type="text/css"><![CDATA[
    .fil3 {fill:white}
    .fil2 {fill:#D60F19}
    .fil1 {fill:#FF6600}
    .fil0 {fill:#FFCC33}
   ]]></style>
  </defs>
  <sodipodi:namedview
     id="base"
     pagecolor="#ffffff"
     bordercolor="#666666"
     borderopacity="1.0"
     inkscape:pageopacity="0.0"
     inkscape:pageshadow="2"
     inkscape:zoom="0.0875"
     inkscape:cx="-4358.4876"
     inkscape:cy="597.49223"
     inkscape:document-units="mm"
     inkscape:current-layer="layer1"
     showgrid="false"
     units="px"
     inkscape:measure-start="0,0"
     inkscape:measure-end="0,0"
     inkscape:window-width="1920"
     inkscape:window-height="1017"
     inkscape:window-x="-8"
     inkscape:window-y="-8"
     inkscape:window-maximized="1" />
  <metadata
     id="metadata5">
    <rdf:RDF>
      <cc:Work
         rdf:about="">
        <dc:format>image/svg+xml</dc:format>
        <dc:type
           rdf:resource="http://purl.org/dc/dcmitype/StillImage" />
        <dc:title></dc:title>
      </cc:Work>
    </rdf:RDF>
  </metadata>
  <g
     inkscape:label="Ebene 1"
     inkscape:groupmode="layer"
     id="layer1"
     transform="translate(0,244.86641)">
    <path
       style="fill:#d60f19;fill-opacity:1;stroke-width:5;stroke:#ff6600;stroke-opacity:1;stroke-miterlimit:4;stroke-dasharray:none"
       d="M 1.0262235,4.2861323 159.71639,67.502734 318.51546,4.2848623 159.77151,296.58252 Z M 276.6553,40.689706 159.77129,87.310846 43.250557,40.917226 159.78028,255.85044 Z"
       id="path1447"
       inkscape:connector-curvature="0"
       sodipodi:nodetypes="cccccccccc" />
    <path
       style="fill:#ff6600;fill-opacity:1;stroke-width:5;stroke:#ffcc33;stroke-opacity:1;stroke-miterlimit:4;stroke-dasharray:none"
       d="M 151.20123,26.1654 C 125.27629,24.601951 99.92019,15.319212 78.88626,-0.30871156 69.470801,-7.3042707 59.779109,-16.790242 52.57333,-26.063109 38.314001,-44.412949 28.928442,-66.502672 25.649432,-89.430814 c -1.08353,-7.576463 -1.320236,-11.086846 -1.320236,-19.579166 0,-4.43839 0.148063,-9.6176 0.32903,-11.50937 3.098985,-32.39596 16.047891,-60.54606 38.261619,-83.17831 23.075476,-23.51023 52.116925,-37.21902 85.342255,-40.28514 4.60498,-0.42496 18.14917,-0.42496 22.75416,0 26.03849,2.4029 49.24523,11.24615 69.80113,26.59869 16.4265,12.26842 30.1993,28.66009 39.59439,47.12309 18.67654,36.70273 19.51191,80.226839 2.26232,117.871871 -8.88068,19.381045 -22.93136,37.050949 -40.08805,50.4141949 C 216.81315,18.099395 184.16357,28.153268 151.20123,26.1654 Z"
       id="path846" />
    <path
       style="fill:#d60f19;fill-opacity:1;stroke-width:5;stroke:none;stroke-opacity:1;stroke-miterlimit:4;stroke-dasharray:none"
       d="m 171.01626,-1.2003097 c 20.09063,-2.211996 38.30728,-9.4704293 54.34341,-21.6531653 13.00387,-9.879121 23.90542,-23.06571 31.33211,-37.8996 15.08308,-30.12659 15.08308,-66.387225 0,-96.513805 -5.94188,-11.86815 -14.39196,-23.08524 -23.8329,-31.63701 -14.65561,-13.27535 -31.54597,-22.01533 -50.43995,-26.10033 -26.13401,-5.65034 -54.31271,-1.18384 -77.25499,12.24542 -24.128353,14.12352 -41.910948,36.88895 -49.668729,63.58632 -7.54717,25.97259 -5.004612,54.175786 7.063078,78.346819 5.513308,11.042906 11.817162,19.77691 20.60485,28.548077 18.609081,18.57409 42.660321,29.4977833 69.317201,31.48277467 4.22501,0.31461338 13.92222,0.10247312 18.53592,-0.40550037 z"
       id="path6" />
    <g
       style="clip-rule:evenodd;fill-rule:evenodd;image-rendering:optimizeQuality;shape-rendering:geometricPrecision;text-rendering:geometricPrecision"
       id="g842"
       transform="matrix(2.0143141,0,0,2.0143141,-462.85714,-138.60322)">
      <g
         id="Ebene_x0020_1">
        <metadata
           id="CorelCorpID_0Corel-Layer" />
        <g
           id="_66142040">
          <path
             d="m 272.15882,6.2031946 h 4.89663 c 0,6.1021704 0,12.2042914 0,18.3064624 h -4.89663 l -5.86721,-9.192839 v 9.192839 h -4.89668 V 6.2031946 h 4.89668 l 5.86721,9.1928384 z m 75.50106,0 h 3.57325 0.22059 l 7.3446,18.3064624 h -5.91131 l -0.6745,-2.362182 h -5.53198 l -0.67451,2.362182 h -5.9113 l 7.34429,-18.3064624 z m 3.60301,12.6183494 -1.81637,-6.361187 -1.81635,6.361187 z M 338.10962,6.2031946 h -4.89668 l -4.76433,7.4181804 -4.76433,-7.4181804 -4.89652,-2.093e-4 -3.7e-4,18.3069097 4.89683,-2.61e-4 v -9.765575 l 4.76439,7.418429 4.76433,-7.41838 v 9.765526 h 4.89668 V 6.2031721 Z M 289.03264,25.416789 c -5.12764,0 -9.28601,-4.505073 -9.28601,-10.060364 0,-5.183728 3.87105,-10.0603631 9.28601,-10.0603631 5.12767,0 9.28605,4.5050734 9.28605,10.0603631 0,5.555291 -4.15836,10.060364 -9.28605,10.060364 z m 0,-5.232802 c -2.42376,0 -4.38936,-2.161829 -4.38936,-4.827577 0.0299,-2.456502 1.77441,-4.827576 4.38936,-4.827576 2.4238,0 4.38936,2.161828 4.38936,4.827576 0,2.665748 -1.96556,4.827577 -4.38936,4.827577 z m 12.0211,-13.9807924 h 4.89667 v 5.22e-5 h 2.33807 v 0.00424 c 3.80007,0 6.87907,2.5615936 6.87907,5.7183032 0,2.092149 -1.35293,3.922427 -3.37143,4.919276 l 3.5506,7.664593 h -4.89668 l -3.1785,-6.861334 h -1.32113 v 6.861337 h -4.89667 z m 4.89667,3.9709224 v 1.241144 1.020962 1.241195 c 4.03611,0 -0.46755,-5.2e-5 2.33807,-5.2e-5 0.87722,0 1.58792,-0.784674 1.58792,-1.751601 0,-0.966982 -0.71071,-1.751656 -1.58792,-1.751656 h -2.33807 z"
             class="fil3"
             id="_42823240"
             inkscape:connector-curvature="0"
             style="fill:#ffffff;stroke-width:0.49820551" />
        </g>
      </g>
    </g>
  </g>
</svg>
