<?xml version="1.0" encoding="UTF-8" standalone="no"?>
<!-- Created with Inkscape (http://www.inkscape.org/) -->

<svg
   xmlns:dc="http://purl.org/dc/elements/1.1/"
   xmlns:cc="http://creativecommons.org/ns#"
   xmlns:rdf="http://www.w3.org/1999/02/22-rdf-syntax-ns#"
   xmlns:svg="http://www.w3.org/2000/svg"
   xmlns="http://www.w3.org/2000/svg"
   xmlns:sodipodi="http://sodipodi.sourceforge.net/DTD/sodipodi-0.dtd"
   xmlns:inkscape="http://www.inkscape.org/namespaces/inkscape"
   width="1206"
   height="2048"
   viewBox="0 0 319.08749 541.86665"
   version="1.1"
   id="svg8"
   inkscape:version="0.92.2 (5c3e80d, 2017-08-06)"
   sodipodi:docname="Penny.svg">
  <defs
     id="defs2">
    <style
       id="style815">.cls-1{fill:#cd1414;}.cls-2{fill:#ffd200;}.cls-3{fill:#fff;}</style>
  </defs>
  <sodipodi:namedview
     id="base"
     pagecolor="#ffffff"
     bordercolor="#666666"
     borderopacity="1.0"
     inkscape:pageopacity="0.0"
     inkscape:pageshadow="2"
     inkscape:zoom="0.175"
     inkscape:cx="-1660.4366"
     inkscape:cy="944.20345"
     inkscape:document-units="mm"
     inkscape:current-layer="layer1"
     showgrid="false"
     units="px"
     inkscape:measure-start="0,0"
     inkscape:measure-end="0,0"
     inkscape:window-width="1920"
     inkscape:window-height="1017"
     inkscape:window-x="-8"
     inkscape:window-y="-8"
     inkscape:window-maximized="1" />
  <metadata
     id="metadata5">
    <rdf:RDF>
      <cc:Work
         rdf:about="">
        <dc:format>image/svg+xml</dc:format>
        <dc:type
           rdf:resource="http://purl.org/dc/dcmitype/StillImage" />
        <dc:title></dc:title>
      </cc:Work>
    </rdf:RDF>
  </metadata>
  <g
     inkscape:label="Ebene 1"
     inkscape:groupmode="layer"
     id="layer1"
     transform="translate(0,244.86641)">
    <path
       style="fill:#cd1414;fill-opacity:1;stroke-width:0.26458332"
       d="M 1.0262235,4.2861323 159.71639,67.502734 318.51546,4.2848623 159.77151,296.58252 Z M 276.6553,40.689706 159.77129,87.310846 43.250557,40.917226 159.78028,255.85044 Z"
       id="path1447"
       inkscape:connector-curvature="0"
       sodipodi:nodetypes="cccccccccc" />
    <path
       style="fill:#cd1414;fill-opacity:1;stroke-width:0.26458332"
       d="M 151.20123,26.1654 C 125.27629,24.601951 99.92019,15.319212 78.88626,-0.30871156 69.470801,-7.3042707 59.779109,-16.790242 52.57333,-26.063109 38.314001,-44.412949 28.928442,-66.502672 25.649432,-89.430814 c -1.08353,-7.576463 -1.320236,-11.086846 -1.320236,-19.579166 0,-4.43839 0.148063,-9.6176 0.32903,-11.50937 3.098985,-32.39596 16.047891,-60.54606 38.261619,-83.17831 23.075476,-23.51023 52.116925,-37.21902 85.342255,-40.28514 4.60498,-0.42496 18.14917,-0.42496 22.75416,0 26.03849,2.4029 49.24523,11.24615 69.80113,26.59869 16.4265,12.26842 30.1993,28.66009 39.59439,47.12309 18.67654,36.70273 19.51191,80.226839 2.26232,117.871871 -8.88068,19.381045 -22.93136,37.050949 -40.08805,50.4141949 C 216.81315,18.099395 184.16357,28.153268 151.20123,26.1654 Z"
       id="path6"
       inkscape:connector-curvature="0"
       sodipodi:nodetypes="ssssssssssscss" />
    <g
       id="g836"
       transform="matrix(0.97613706,0,0,0.97613706,22.548849,-248.72774)">
      <rect
         id="rect821"
         height="69.15715"
         width="262.17856"
         class="cls-1"
         x="8.5714283"
         y="108.57143"
         style="fill:#cd1414" />
      <path
         id="path823"
         d="m 265.75,156.3 a 10.23,10.23 0 1 1 -10.23,-10.23 10.23,10.23 0 0 1 10.23,10.23 z"
         class="cls-2"
         inkscape:connector-curvature="0"
         style="fill:#ffd200" />
      <path
         id="path825"
         d="m 39,140.83 h 3.8 c 4.32,0 6.94,-2.67 7.41,-6 0.4,-2.87 -1.6,-6 -5.67,-6 h -3.65 z m 192.27,-6.93 8.66,-16.24 h 19.91 l -30,47.56 h -20.35 l 9.63,-13.57 -11,-33 -7.5,46.55 H 184.7 l -9.78,-22 -3.54,22 h -15.93 l 7.66,-47.56 h 16.35 l 9.48,21.28 3.43,-21.28 h 34.82 z m -74.45,-16.24 -7.66,47.56 h -15.98 l -9.78,-22 -3.54,22 h -15.93 l 7.66,-47.56 h 16.35 l 9.47,21.28 3.43,-21.28 z m -107.7,-0.72 c 11,0 18.47,6 18.54,15.56 L 70,117.65 h 36.07 l -1.94,12 h -19 l -0.95,5.7 h 17.23 l -1.92,11.89 H 82.18 l -1,5.91 h 19.4 l -1.94,12 H 62.35 L 66.5,139.4 c -2.79,8.34 -10.4,13.25 -20.36,13.25 H 37 l -2,12.5 H 17.72 l 7.78,-48.28 z"
         class="cls-3"
         inkscape:connector-curvature="0"
         style="fill:#ffffff" />
    </g>
  </g>
</svg>
