<?xml version="1.0" encoding="UTF-8" standalone="no"?>
<!-- Created with Inkscape (http://www.inkscape.org/) -->

<svg
   width="1206"
   height="2048"
   viewBox="0 0 319.08749 541.86665"
   version="1.1"
   id="svg8"
   inkscape:version="1.2.2 (732a01da63, 2022-12-09)"
   sodipodi:docname="Q1290900.svg"
   xml:space="preserve"
   xmlns:inkscape="http://www.inkscape.org/namespaces/inkscape"
   xmlns:sodipodi="http://sodipodi.sourceforge.net/DTD/sodipodi-0.dtd"
   xmlns="http://www.w3.org/2000/svg"
   xmlns:svg="http://www.w3.org/2000/svg"
   xmlns:rdf="http://www.w3.org/1999/02/22-rdf-syntax-ns#"
   xmlns:cc="http://creativecommons.org/ns#"
   xmlns:dc="http://purl.org/dc/elements/1.1/"><defs
     id="defs2"><style
       id="style14746">.cls-1{fill:#f0c43f;}.cls-2{fill:#fff;}.cls-3{fill:#ef373e;}</style></defs><sodipodi:namedview
     id="base"
     pagecolor="#ffffff"
     bordercolor="#666666"
     borderopacity="1.0"
     inkscape:pageopacity="0.0"
     inkscape:pageshadow="2"
     inkscape:zoom="0.36"
     inkscape:cx="602.77778"
     inkscape:cy="1000"
     inkscape:document-units="mm"
     inkscape:current-layer="layer1"
     showgrid="false"
     units="px"
     inkscape:measure-start="0,0"
     inkscape:measure-end="0,0"
     inkscape:window-width="1920"
     inkscape:window-height="986"
     inkscape:window-x="-11"
     inkscape:window-y="-11"
     inkscape:window-maximized="1"
     inkscape:showpageshadow="2"
     inkscape:pagecheckerboard="0"
     inkscape:deskcolor="#d1d1d1" /><metadata
     id="metadata5"><rdf:RDF><cc:Work
         rdf:about=""><dc:format>image/svg+xml</dc:format><dc:type
           rdf:resource="http://purl.org/dc/dcmitype/StillImage" /></cc:Work></rdf:RDF></metadata><g
     inkscape:label="Ebene 1"
     inkscape:groupmode="layer"
     id="layer1"
     transform="translate(0,244.86641)"><path
       style="fill:#ef3c32;fill-opacity:1;stroke-width:0.26458332"
       d="M 1.0262235,4.2861323 159.71639,67.502734 318.51546,4.2848623 159.77151,296.58252 Z M 276.6553,40.689706 159.77129,87.310846 43.250557,40.917226 159.78028,255.85044 Z"
       id="path1447"
       inkscape:connector-curvature="0"
       sodipodi:nodetypes="cccccccccc" /><path
       style="display:inline;fill:#01833d;fill-opacity:1;stroke-width:0.447868"
       d="M 149.30917,3.9130256 C 116.46974,0.60648387 86.82739,-15.794059 67.297626,-41.46214 44.895485,-70.905286 38.373125,-108.58242 49.675931,-143.25572 c 11.532121,-35.37678 39.480584,-62.74429 75.673039,-74.09961 11.70825,-3.67335 21.45374,-5.11322 34.588,-5.11046 13.7661,0.002 23.22289,1.4595 35.77161,5.51182 35.26817,11.38712 62.51611,38.12688 74.16454,72.78137 4.05022,12.04969 5.59474,21.71419 5.59474,35.00802 0,13.293876 -1.54455,22.958621 -5.59474,35.008042 -13.91921,41.410196 -49.9957,71.0725412 -94.19628,77.4487296 -5.70126,0.8237289 -20.82865,1.1775422 -26.36767,0.6219338 z"
       id="path2100" /><path
       style="display:inline;fill:#01833d;fill-opacity:1;stroke-width:0.264583"
       d="M 151.20123,26.1654 C 125.27629,24.601951 99.92019,15.319212 78.88626,-0.30871156 69.470801,-7.3042707 59.779109,-16.790242 52.57333,-26.063109 38.314001,-44.412949 28.928442,-66.502672 25.649432,-89.430814 c -1.08353,-7.576463 -1.320236,-11.086846 -1.320236,-19.579166 0,-4.43839 0.148063,-9.6176 0.32903,-11.50937 3.098985,-32.39596 16.047891,-60.54606 38.261619,-83.17831 23.075476,-23.51023 52.116925,-37.21902 85.342255,-40.28514 4.60498,-0.42496 18.14917,-0.42496 22.75416,0 26.03849,2.4029 49.24523,11.24615 69.80113,26.59869 16.4265,12.26842 30.1993,28.66009 39.59439,47.12309 18.67654,36.70273 19.51191,80.226839 2.26232,117.871871 -8.88068,19.381045 -22.93136,37.050949 -40.08805,50.4141949 C 216.81315,18.099395 184.16357,28.153268 151.20123,26.1654 Z m 19.81503,-27.3657097 c 20.09063,-2.211996 38.30728,-9.4704293 54.34341,-21.6531653 13.00387,-9.879121 23.90542,-23.06571 31.33211,-37.8996 15.08308,-30.12659 15.08308,-66.387225 0,-96.513805 -5.94188,-11.86815 -14.39196,-23.08524 -23.8329,-31.63701 -14.65561,-13.27535 -31.54597,-22.01533 -50.43995,-26.10033 -26.13401,-5.65034 -54.31271,-1.18384 -77.25499,12.24542 -24.128353,14.12352 -41.910948,36.88895 -49.668729,63.58632 -7.54717,25.97259 -5.004612,54.175786 7.063078,78.346819 5.513308,11.042906 11.817162,19.77691 20.60485,28.548077 18.609081,18.57409 42.660321,29.4977833 69.317201,31.48277467 4.22501,0.31461338 13.92222,0.10247312 18.53592,-0.40550037 z"
       id="path6"
       inkscape:connector-curvature="0"
       sodipodi:nodetypes="ssssssssssscsssssscsssssss" /><path
       style="fill:#ffffff;fill-opacity:1;stroke-width:2.85714"
       d="M 386.48143,1487.8761 C 266.97185,1267.4728 169.64364,1086.6582 170.19652,1086.0658 c 0.55289,-0.5924 98.44914,37.6796 217.54722,85.049 l 216.54197,86.126 217.14286,-86.7477 c 119.42857,-47.7113 217.56783,-86.4154 218.08733,-86.0093 0.7122,0.5568 -432.16481,799.7671 -435.14213,803.3923 -0.3312,0.4033 -98.38277,-179.5967 -217.89234,-400 z"
       id="path3304"
       transform="matrix(0.26458333,0,0,0.26458333,0,-244.86641)" /><path
       style="fill:#ffffff;stroke:none;stroke-width:0.183123"
       d="m 262.80012,-160.76087 c -7.36599,0.82959 -12.35697,5.01317 -16.46558,10.27918 -6.09296,7.8115 -9.8984,16.88257 -15.4083,25.01862 -3.22216,4.7582 -7.41494,10.27801 -13.79905,11.87868 -5.97868,1.49887 -10.48902,-0.95347 -15.54822,-3.52297 -5.24908,-2.66577 -10.35551,-5.50323 -15.54822,-8.25149 -13.91626,-7.36479 -29.74435,-9.86458 -45.08986,-4.24333 -21.48474,7.87 -32.80949,28.98796 -45.59109,44.859095 -2.286569,2.839178 -4.775646,5.530496 -7.190485,8.282026 -4.132325,4.708682 -9.156352,10.146353 -16.019335,11.74599 -4.095599,0.954506 -9.393072,-0.43015 -10.365031,-4.499212 -0.484717,-2.029096 0.449342,-4.134458 -0.110394,-6.211518 -1.012189,-3.755555 -3.381758,-7.218309 -6.821978,-9.589043 -3.018223,-2.079822 -6.833193,-3.522789 -10.689407,-3.524169 -1.317577,-5e-4 -3.255774,-0.0973 -4.063265,1.053881 -0.577992,0.824064 -0.19165,1.821184 0.767813,2.229595 1.344655,0.57232 2.89629,0.705696 4.267216,1.286476 3.095768,1.31149 5.856066,3.990037 6.702472,6.990375 1.06307,3.768318 -0.933089,6.604748 -1.586172,10.179998 -0.455136,2.49168 0.41471,5.476146 1.893151,7.591855 3.9152,5.602793 11.087908,7.24677 18.062066,7.24677 14.841955,0 26.390013,-7.48057 37.510099,-15.390761 4.15856,-2.958074 8.41139,-5.85592 13.02164,-8.245457 1.19585,-0.619943 3.88918,-2.21682 5.2032,-1.15482 1.51519,1.22453 0.0354,3.77746 -0.52901,5.121223 -1.96395,4.676589 -3.19673,9.53969 -3.86666,14.493549 -0.14809,1.094956 -1.31402,4.798749 -0.14013,5.516522 1.07477,0.657212 3.52052,0.337322 4.77447,0.350609 3.82216,0.04034 7.63711,0.252598 11.46682,0.16926 0.86624,-0.01881 4.57702,0.08748 4.90217,-0.742445 0.39919,-1.01869 -0.94554,-3.31126 -1.12628,-4.43123 -0.62738,-3.888242 0,-8.13071 1.80824,-11.732876 0.76324,-1.520444 2.78373,-3.433762 4.91092,-2.780864 1.8104,0.555585 2.9291,2.459937 3.41517,3.988665 1.12822,3.549534 0.1174,7.367552 1.30586,11.042702 0.32378,1.00109 0.72883,3.591296 1.91283,4.03697 1.14258,0.429975 2.66437,0.0519 3.8612,0.119575 3.17106,0.17944 6.33979,0.157011 9.52328,0.157011 0.90804,0 3.69135,0.344562 4.15546,-0.572327 0.42796,-0.845277 -0.7018,-2.275138 -1.03336,-3.051061 -1.06759,-2.498758 -1.82089,-5.121573 -2.26169,-7.764404 -0.49754,-2.984808 -1.20675,-11.293579 4.77583,-10.293701 3.37708,0.564385 2.65602,3.980722 2.51959,6.152687 -0.25342,4.042835 0.26976,7.996649 2.18977,11.732875 0.52845,1.028348 1.10275,2.637307 2.14411,3.346802 0.80928,0.551273 2.65661,0.447401 3.64159,0.449129 2.65019,0.0049 5.30602,0.172542 7.96846,0.172542 0.86993,0 3.17572,0.276929 3.51254,-0.715529 0.29717,-0.876346 -0.88644,-2.016339 -1.31247,-2.735317 -1.42091,-2.398852 -2.34895,-5.220615 -2.01524,-7.936946 0.15839,-1.289919 0.6983,-2.916136 2.53612,-2.763264 1.71923,0.143042 2.42998,2.062743 2.95143,3.280897 1.44541,3.376651 2.32291,7.132894 5.0248,9.982081 0.99024,1.044058 3.08905,0.715536 4.46235,0.715536 3.8163,0 7.85826,0.608726 11.66097,0.09852 3.06786,-0.411511 -2.09629,-4.684002 -3.03676,-5.792419 -4.92277,-5.802077 -10.9788,-13.680524 -5.14064,-20.705067 3.23987,-3.898248 9.01429,-5.943216 13.03641,-9.174076 7.19397,-5.778431 12.6446,-12.793143 17.23716,-20.33066 4.60811,-7.56252 7.88101,-15.91564 10.5553,-24.15592 1.55288,-4.78631 2.14954,-10.63757 6.05993,-14.49103 0.39841,-0.39105 0.84737,-0.74024 1.32547,-1.05027 3.12132,-2.021 4.64893,0.0811 7.38542,1.29658 1.45375,0.64617 3.26124,0.78588 4.85882,0.78643 1.72974,5e-4 3.60719,-0.0186 4.73443,-1.383 1.45961,-1.76483 0.77159,-4.31027 0.0603,-6.20886 -1.8483,-4.92416 -7.19107,-8.90183 -13.34621,-8.20867 z"
       id="path20778" /></g></svg>
