<?xml version="1.0" encoding="UTF-8" standalone="no"?>
<!-- Created with Inkscape (http://www.inkscape.org/) -->

<svg
   width="1206"
   height="2048"
   viewBox="0 0 319.08749 541.86665"
   version="1.1"
   id="svg8"
   inkscape:version="1.2.2 (732a01da63, 2022-12-09)"
   sodipodi:docname="Q145168.svg"
   xml:space="preserve"
   xmlns:inkscape="http://www.inkscape.org/namespaces/inkscape"
   xmlns:sodipodi="http://sodipodi.sourceforge.net/DTD/sodipodi-0.dtd"
   xmlns="http://www.w3.org/2000/svg"
   xmlns:svg="http://www.w3.org/2000/svg"
   xmlns:rdf="http://www.w3.org/1999/02/22-rdf-syntax-ns#"
   xmlns:cc="http://creativecommons.org/ns#"
   xmlns:dc="http://purl.org/dc/elements/1.1/"><defs
     id="defs2" /><sodipodi:namedview
     id="base"
     pagecolor="#ffffff"
     bordercolor="#666666"
     borderopacity="1.0"
     inkscape:pageopacity="0.0"
     inkscape:pageshadow="2"
     inkscape:zoom="0.35"
     inkscape:cx="-242.85714"
     inkscape:cy="992.85714"
     inkscape:document-units="mm"
     inkscape:current-layer="layer1"
     showgrid="false"
     units="px"
     inkscape:measure-start="0,0"
     inkscape:measure-end="0,0"
     inkscape:window-width="1920"
     inkscape:window-height="986"
     inkscape:window-x="-11"
     inkscape:window-y="-11"
     inkscape:window-maximized="1"
     inkscape:showpageshadow="2"
     inkscape:pagecheckerboard="0"
     inkscape:deskcolor="#d1d1d1" /><metadata
     id="metadata5"><rdf:RDF><cc:Work
         rdf:about=""><dc:format>image/svg+xml</dc:format><dc:type
           rdf:resource="http://purl.org/dc/dcmitype/StillImage" /><dc:title /></cc:Work></rdf:RDF></metadata><g
     inkscape:label="Ebene 1"
     inkscape:groupmode="layer"
     id="layer1"
     transform="translate(0,244.86641)"><path
       style="fill:#000000;fill-opacity:0.9719626;stroke-width:0.26458332"
       d="M 1.0262235,4.2861323 159.71639,67.502734 318.51546,4.2848623 159.77151,296.58252 Z M 276.6553,40.689706 159.77129,87.310846 43.250557,40.917226 159.78028,255.85044 Z"
       id="path1447"
       inkscape:connector-curvature="0"
       sodipodi:nodetypes="cccccccccc" /><path
       style="fill:#000000;stroke-width:0.447852"
       d="M 148.17322,4.6488543 C 115.22942,1.3530347 85.492855,-14.994326 65.901016,-40.579173 43.427671,-69.926844 36.88458,-107.48181 48.223311,-142.04267 c 11.568776,-35.26207 39.606072,-62.54084 75.913559,-73.85933 11.74547,-3.66144 21.52193,-5.09664 34.69794,-5.09389 13.80985,0.002 23.2967,1.45477 35.88531,5.49395 35.38026,11.35019 62.71481,38.00324 74.40026,72.54536 4.06309,12.01062 5.61253,21.64377 5.61253,34.8945 0,13.250773 -1.54947,22.884178 -5.61253,34.894527 -13.96345,41.275915 -50.1546,70.8420742 -94.49568,77.1975865 -5.71937,0.8210579 -20.89485,1.1737232 -26.45148,0.6199171 z"
       id="path2100" /><path
       style="display:inline;fill:#000000;fill-opacity:0.971962;stroke-width:0.264583"
       d="M 151.20123,26.1654 C 125.27629,24.601951 99.92019,15.319212 78.88626,-0.30871156 69.470801,-7.3042707 59.779109,-16.790242 52.57333,-26.063109 38.314001,-44.412949 28.928442,-66.502672 25.649432,-89.430814 c -1.08353,-7.576463 -1.320236,-11.086846 -1.320236,-19.579166 0,-4.43839 0.148063,-9.6176 0.32903,-11.50937 3.098985,-32.39596 16.047891,-60.54606 38.261619,-83.17831 23.075476,-23.51023 52.116925,-37.21902 85.342255,-40.28514 4.60498,-0.42496 18.14917,-0.42496 22.75416,0 26.03849,2.4029 49.24523,11.24615 69.80113,26.59869 16.4265,12.26842 30.1993,28.66009 39.59439,47.12309 18.67654,36.70273 19.51191,80.226839 2.26232,117.871871 -8.88068,19.381045 -22.93136,37.050949 -40.08805,50.4141949 C 216.81315,18.099395 184.16357,28.153268 151.20123,26.1654 Z m 19.81503,-27.3657097 c 20.09063,-2.211996 38.30728,-9.4704293 54.34341,-21.6531653 13.00387,-9.879121 23.90542,-23.06571 31.33211,-37.8996 15.08308,-30.12659 15.08308,-66.387225 0,-96.513805 -5.94188,-11.86815 -14.39196,-23.08524 -23.8329,-31.63701 -14.65561,-13.27535 -31.54597,-22.01533 -50.43995,-26.10033 -26.13401,-5.65034 -54.31271,-1.18384 -77.25499,12.24542 -24.128353,14.12352 -41.910948,36.88895 -49.668729,63.58632 -7.54717,25.97259 -5.004612,54.175786 7.063078,78.346819 5.513308,11.042906 11.817162,19.77691 20.60485,28.548077 18.609081,18.57409 42.660321,29.4977833 69.317201,31.48277467 4.22501,0.31461338 13.92222,0.10247312 18.53592,-0.40550037 z"
       id="path6"
       inkscape:connector-curvature="0"
       sodipodi:nodetypes="ssssssssssscsssssscsssssss" /><path
       style="display:inline;fill:#fef000;fill-opacity:1;stroke-width:0.334289"
       d="m 189.8432,-53.612744 c -12.41431,-3.08112 -21.93644,-10.44985 -27.44695,-21.239925 -0.71457,-1.399162 -1.41569,-2.543945 -1.55807,-2.543945 -0.14238,0 -0.58963,0.627785 -0.9939,1.395068 -2.06794,3.924859 -7.72217,10.017402 -11.70482,12.612202 -6.99406,4.55681 -15.01133,7.36243 -25.87334,9.05432 -4.13372,0.64389 -6.03716,0.69775 -28.852173,0.81645 l -24.42648,0.12708 v -41.216909 -41.216927 h -5.44701 -5.44702 v -9.86855 -9.86855 l 29.70326,0.13494 c 31.199283,0.14173 31.687513,0.16259 40.402753,1.72569 15.0658,2.70208 25.58846,9.20229 31.3866,19.3886 0.75977,1.33478 1.43633,2.42689 1.50347,2.42689 0.0672,0 0.58368,-0.93265 1.1479,-2.07253 2.6306,-5.31461 7.79579,-11.24747 13.13233,-15.08412 5.2435,-3.76977 12.78503,-6.68883 21.112,-8.17172 5.90917,-1.05233 16.96276,-1.05996 22.70462,-0.0156 9.58456,1.74315 16.21425,4.7579 21.88532,9.95202 3.48748,3.19416 5.66636,6.03567 7.64958,9.97588 2.4428,4.85328 4.42044,10.98197 3.55082,11.00398 -0.16436,0.004 -7.11613,1.09343 -15.44835,2.42062 -8.33224,1.32719 -15.19421,2.37623 -15.24883,2.33122 -0.0546,-0.045 -0.41343,-1.17122 -0.79736,-2.50268 -1.6655,-5.77583 -4.26904,-9.3945 -8.05062,-11.18951 -2.1726,-1.03128 -2.44672,-1.07888 -6.21274,-1.07888 -3.86702,0 -3.98764,0.0228 -6.52474,1.23179 -3.21436,1.53175 -5.71611,4.03379 -7.66472,7.66558 -2.86002,5.33045 -4.12347,10.86213 -4.41555,19.33224 -0.45831,13.290647 2.38186,23.277032 8.2214,28.907527 4.20741,4.056788 9.07716,5.773826 16.35179,5.765514 3.88237,-0.005 7.24946,-0.536326 10.61492,-1.676854 1.07673,-0.364895 2.0043,-0.663442 2.06126,-0.663442 0.057,0 0.0623,-3.212759 0.0116,-7.139466 l -0.0917,-7.139462 -5.70235,-0.09 -5.70234,-0.09 v -8.034225 -8.034212 h 20.59858 20.59857 l -0.0871,26.178035 -0.0871,26.178031 -8.75916,0.0876 -8.75918,0.0876 -1.77904,-2.46741 c -0.97848,-1.35707 -1.91189,-2.46741 -2.07425,-2.46741 -0.16235,0 -0.93526,0.35796 -1.71757,0.79546 -2.49833,1.39717 -7.43316,3.20003 -11.41653,4.17081 l -3.86626,0.94225 -11.6237,-0.0161 c -11.19201,-0.0155 -11.74381,-0.0459 -14.85787,-0.81882 z m -70.98336,-20.635128 c 5.94772,-1.737682 9.64058,-4.635134 12.06352,-9.46516 2.51897,-5.021441 3.46521,-10.695371 3.49023,-20.928438 0.0237,-9.67003 -0.89915,-15.05885 -3.45748,-20.19051 -2.26972,-4.55273 -5.51963,-7.33963 -10.56239,-9.05753 -3.96834,-1.3519 -7.02341,-1.72086 -14.46866,-1.74741 l -6.808773,-0.0243 -0.0877,30.85561 c -0.0483,16.970587 -0.009,31.055389 0.0877,31.299558 0.14314,0.361844 1.701993,0.417027 8.428563,0.298361 7.77736,-0.137202 8.42938,-0.19715 11.31498,-1.040198 z"
       id="path170"
       inkscape:label="path170" /><path
       style="fill:#ffffff;fill-opacity:1;stroke-width:2.85714"
       d="M 386.48143,1487.8761 C 266.97185,1267.4728 169.64364,1086.6582 170.19652,1086.0658 c 0.55289,-0.5924 98.44914,37.6796 217.54722,85.049 l 216.54197,86.126 217.14286,-86.7477 c 119.42857,-47.7113 217.56783,-86.4154 218.08733,-86.0093 0.7122,0.5568 -432.16481,799.7671 -435.14213,803.3923 -0.3312,0.4033 -98.38277,-179.5967 -217.89234,-400 z"
       id="path3304"
       transform="matrix(0.26458333,0,0,0.26458333,0,-244.86641)" /></g></svg>
