<?xml version="1.0" encoding="UTF-8" standalone="no"?>
<!-- Created with Inkscape (http://www.inkscape.org/) -->

<svg
   width="1206"
   height="2048"
   viewBox="0 0 319.08749 541.86665"
   version="1.1"
   id="svg8"
   inkscape:version="1.2.2 (732a01da63, 2022-12-09)"
   sodipodi:docname="Q1591889.svg"
   xml:space="preserve"
   xmlns:inkscape="http://www.inkscape.org/namespaces/inkscape"
   xmlns:sodipodi="http://sodipodi.sourceforge.net/DTD/sodipodi-0.dtd"
   xmlns="http://www.w3.org/2000/svg"
   xmlns:svg="http://www.w3.org/2000/svg"
   xmlns:rdf="http://www.w3.org/1999/02/22-rdf-syntax-ns#"
   xmlns:cc="http://creativecommons.org/ns#"
   xmlns:dc="http://purl.org/dc/elements/1.1/"><defs
     id="defs2"><style
       id="style14746">.cls-1{fill:#f0c43f;}.cls-2{fill:#fff;}.cls-3{fill:#ef373e;}</style></defs><sodipodi:namedview
     id="base"
     pagecolor="#ffffff"
     bordercolor="#666666"
     borderopacity="1.0"
     inkscape:pageopacity="0.0"
     inkscape:pageshadow="2"
     inkscape:zoom="0.36"
     inkscape:cx="602.77778"
     inkscape:cy="1000"
     inkscape:document-units="mm"
     inkscape:current-layer="layer1"
     showgrid="false"
     units="px"
     inkscape:measure-start="0,0"
     inkscape:measure-end="0,0"
     inkscape:window-width="1920"
     inkscape:window-height="986"
     inkscape:window-x="-11"
     inkscape:window-y="-11"
     inkscape:window-maximized="1"
     inkscape:showpageshadow="2"
     inkscape:pagecheckerboard="0"
     inkscape:deskcolor="#d1d1d1" /><metadata
     id="metadata5"><rdf:RDF><cc:Work
         rdf:about=""><dc:format>image/svg+xml</dc:format><dc:type
           rdf:resource="http://purl.org/dc/dcmitype/StillImage" /></cc:Work></rdf:RDF></metadata><g
     inkscape:label="Ebene 1"
     inkscape:groupmode="layer"
     id="layer1"
     transform="translate(0,244.86641)"><path
       style="fill:#e62324;fill-opacity:1;stroke-width:0.26458332"
       d="M 1.0262235,4.2861323 159.71639,67.502734 318.51546,4.2848623 159.77151,296.58252 Z M 276.6553,40.689706 159.77129,87.310846 43.250557,40.917226 159.78028,255.85044 Z"
       id="path1447"
       inkscape:connector-curvature="0"
       sodipodi:nodetypes="cccccccccc" /><path
       style="display:inline;fill:#e62324;fill-opacity:1;stroke-width:0.447868"
       d="M 149.30917,3.9130256 C 116.46974,0.60648387 86.82739,-15.794059 67.297626,-41.46214 44.895485,-70.905286 38.373125,-108.58242 49.675931,-143.25572 c 11.532121,-35.37678 39.480584,-62.74429 75.673039,-74.09961 11.70825,-3.67335 21.45374,-5.11322 34.588,-5.11046 13.7661,0.002 23.22289,1.4595 35.77161,5.51182 35.26817,11.38712 62.51611,38.12688 74.16454,72.78137 4.05022,12.04969 5.59474,21.71419 5.59474,35.00802 0,13.293876 -1.54455,22.958621 -5.59474,35.008042 -13.91921,41.410196 -49.9957,71.0725412 -94.19628,77.4487296 -5.70126,0.8237289 -20.82865,1.1775422 -26.36767,0.6219338 z"
       id="path2100" /><path
       style="display:inline;fill:#e62324;fill-opacity:1;stroke-width:0.264583"
       d="M 151.20123,26.1654 C 125.27629,24.601951 99.92019,15.319212 78.88626,-0.30871156 69.470801,-7.3042707 59.779109,-16.790242 52.57333,-26.063109 38.314001,-44.412949 28.928442,-66.502672 25.649432,-89.430814 c -1.08353,-7.576463 -1.320236,-11.086846 -1.320236,-19.579166 0,-4.43839 0.148063,-9.6176 0.32903,-11.50937 3.098985,-32.39596 16.047891,-60.54606 38.261619,-83.17831 23.075476,-23.51023 52.116925,-37.21902 85.342255,-40.28514 4.60498,-0.42496 18.14917,-0.42496 22.75416,0 26.03849,2.4029 49.24523,11.24615 69.80113,26.59869 16.4265,12.26842 30.1993,28.66009 39.59439,47.12309 18.67654,36.70273 19.51191,80.226839 2.26232,117.871871 -8.88068,19.381045 -22.93136,37.050949 -40.08805,50.4141949 C 216.81315,18.099395 184.16357,28.153268 151.20123,26.1654 Z m 19.81503,-27.3657097 c 20.09063,-2.211996 38.30728,-9.4704293 54.34341,-21.6531653 13.00387,-9.879121 23.90542,-23.06571 31.33211,-37.8996 15.08308,-30.12659 15.08308,-66.387225 0,-96.513805 -5.94188,-11.86815 -14.39196,-23.08524 -23.8329,-31.63701 -14.65561,-13.27535 -31.54597,-22.01533 -50.43995,-26.10033 -26.13401,-5.65034 -54.31271,-1.18384 -77.25499,12.24542 -24.128353,14.12352 -41.910948,36.88895 -49.668729,63.58632 -7.54717,25.97259 -5.004612,54.175786 7.063078,78.346819 5.513308,11.042906 11.817162,19.77691 20.60485,28.548077 18.609081,18.57409 42.660321,29.4977833 69.317201,31.48277467 4.22501,0.31461338 13.92222,0.10247312 18.53592,-0.40550037 z"
       id="path6"
       inkscape:connector-curvature="0"
       sodipodi:nodetypes="ssssssssssscsssssscsssssss" /><path
       style="fill:#ffffff;fill-opacity:1;stroke-width:2.85714"
       d="M 386.48143,1487.8761 C 266.97185,1267.4728 169.64364,1086.6582 170.19652,1086.0658 c 0.55289,-0.5924 98.44914,37.6796 217.54722,85.049 l 216.54197,86.126 217.14286,-86.7477 c 119.42857,-47.7113 217.56783,-86.4154 218.08733,-86.0093 0.7122,0.5568 -432.16481,799.7671 -435.14213,803.3923 -0.3312,0.4033 -98.38277,-179.5967 -217.89234,-400 z"
       id="path3304"
       transform="matrix(0.26458333,0,0,0.26458333,0,-244.86641)" /><path
       style="fill:#ffffff;fill-opacity:1;stroke-width:0.286631"
       d="m 528.9075,86.464323 c -5.03399,-1.055829 -8.79732,-4.498068 -10.10294,-9.240961 -0.84014,-3.051973 -0.33519,-6.971013 1.27444,-9.891321 1.6146,-2.929342 5.21768,-5.603343 8.55207,-6.346853 4.48712,-1.000555 9.49979,0.421121 12.66224,3.591251 3.39821,3.40643 4.68556,8.077481 3.47011,12.590956 -0.63837,2.370546 -1.73441,4.154648 -3.62248,5.896517 -1.97421,1.821362 -4.06824,2.898051 -6.67613,3.432705 -2.34402,0.48055 -3.13403,0.475958 -5.55731,-0.03229 z m 110.95394,-0.0912 c -4.2219,-1.350568 -7.5648,-4.677827 -8.79487,-8.753719 -0.63928,-2.118211 -0.5978,-5.74901 0.0901,-7.886717 0.98973,-3.075764 3.2425,-5.789133 6.16953,-7.430905 3.58419,-2.01039 8.22956,-2.159145 12.0875,-0.38707 3.73202,1.714231 6.32319,4.804506 7.26338,8.662444 1.53457,6.296885 -1.41188,12.409407 -7.28135,15.105431 -2.00107,0.919157 -2.52922,1.036961 -5.0484,1.12603 -2.18995,0.07746 -3.18417,-0.01907 -4.48586,-0.435494 z m -64.0492,-22.191265 c -26.84655,-3.128939 -50.64835,-18.08579 -65.00163,-40.846475 -0.68441,-1.085298 -2.12823,-3.685775 -3.20849,-5.778841 -4.84192,-9.3814601 -7.66578,-18.7127501 -8.87202,-29.31703 -1.44236,-12.68002 -4.45307,-19.97374 -10.77182,-26.09568 -4.72944,-4.58214 -12.15186,-7.98598 -18.9865,-8.70702 -0.94818,-0.10005 -2.01905,-0.24105 -2.37973,-0.31337 l -0.65576,-0.13149 v -10.86157 -10.86157 l 1.82156,0.17134 c 11.683,1.09895 20.06581,3.80839 28.22544,9.12284 8.57661,5.58603 15.04058,13.25856 19.30297,22.912 2.784,6.30517 4.21068,11.7612 5.31934,20.34274 0.94691,7.3294799 1.60447,10.3777999 3.34297,15.49734985 6.47492,19.06733815 21.98727,34.05514515 41.91613,40.49875015 11.74777,3.798413 25.44225,4.109688 37.36862,0.849371 25.40901,-6.94604 44.36564,-28.622792 47.50933,-54.326481 l 0.3534,-2.88941 h 11.07295 11.07294 l -0.19956,2.74846 c -0.90781,12.5018499 -5.42031,26.13486 -12.31748,37.212987 -12.6821,20.36981 -33.36645,34.666879 -56.94469,39.360298 -8.85859,1.76337 -20.09147,2.330795 -27.96797,1.412801 z m 4.37172,-30.737551 c -0.40075,-0.05689 -1.71226,-0.244197 -2.91449,-0.416231 -4.51324,-0.645831 -9.87718,-2.185886 -13.07881,-3.755092 -1.6353,-0.801511 -2.31443,-1.951439 -1.89728,-3.212555 0.36368,-1.099415 22.2099,-38.052127 22.87854,-38.698857 0.62071,-0.60036 2.44568,-0.71757 3.52318,-0.22628 0.85055,0.38781 22.47076,36.890542 22.60215,38.160608 0.19522,1.887012 -0.88078,2.730266 -5.94469,4.658787 -4.47308,1.703514 -10.59629,3.063757 -15.25937,3.3898 -3.80657,0.266154 -8.41101,0.312533 -9.90923,0.09983 z M 550.00402,20.976365 c -1.11773,-0.659255 -6.31059,-6.030141 -8.30572,-8.590464 -2.73947,-3.5154791 -6.44627,-10.1457691 -7.98361,-14.2800691 -1.02477,-2.7559 -2.19146,-8.00971 -2.37552,-10.6975299 -0.16118,-2.35352 0.19661,-3.09833 1.76556,-3.67529 1.1244,-0.41348 37.65341,-0.38818 38.88456,0.0269 1.09941,0.3707 1.91006,1.92505 1.65609,3.17538 -0.24424,1.20229 -19.04719,33.194286 -19.94322,33.932085 -0.95064,0.782759 -2.4794,0.827806 -3.69814,0.108961 z m 69.80959,-1.792818 c -0.82516,-0.535655 -2.73011,-3.580214 -10.28322,-16.4350151 -7.93228,-13.5000699 -9.24635,-15.8974899 -9.10352,-16.6084899 0.23328,-1.16119 0.93368,-2.10645 1.79564,-2.42343 1.06263,-0.39077 34.95115,-0.35858 35.7094,0.0339 0.9196,0.47603 1.60671,1.24333 1.80798,2.01903 0.29771,1.14731 -0.89692,6.8179399 -2.28558,10.8489599 -2.72905,7.92194 -6.28591,13.9027951 -11.75547,19.7667801 -3.22346,3.455888 -4.17511,3.908364 -5.88523,2.798241 z"
       id="path25408" /><path
       inkscape:connector-curvature="0"
       id="path21"
       style="fill:#ffffff;fill-opacity:1;fill-rule:nonzero;stroke:none;stroke-width:0.139446"
       d="m 153.9897,-72.748388 c 0.44726,-28.593152 20.10314,-58.642242 30.08183,-58.642242 2.94779,0 3.57396,1.96547 3.57396,4.05527 0,9.78491 -14.14729,35.932748 -33.65579,54.586972 m 98.9116,-101.977042 c -9.28924,-0.0523 -18.25369,5.72117 -24.05843,14.387 27.42595,18.414 -6.17905,110.102819 -55.74088,110.102819 -5.9396,0 -10.97932,-1.776113 -14.35097,-5.402954 26.83019,-24.815115 46.21234,-58.560285 46.21234,-78.460745 0,-10.17491 -4.84141,-16.62941 -16.18803,-16.62941 -32.91801,0 -67.62422,55.454245 -61.18617,95.460497 -20.75571,7.570476 -31.070618,-1.899335 -31.070618,-20.919373 0,-39.712484 40.412968,-80.899554 38.066998,-93.291424 -41.874615,13.29194 -74.647023,-17.59024 -89.753374,32.6696 20.355106,-11.37169 39.144265,6.80635 62.364724,-6.48418 -19.942258,23.61944 -40.070571,57.061102 -39.799606,85.303685 0.179048,18.484649 9.903147,31.819691 30.968371,31.819691 11.962055,0 24.375075,-4.300695 36.323095,-11.316032 5.1194,6.569825 13.36947,11.316032 25.97819,11.316032 51.40716,0 107.59117,-74.162876 107.59117,-127.083506 0,-14.03941 -5.42628,-21.41518 -15.35681,-21.4717" /></g></svg>
