<?xml version="1.0" encoding="UTF-8" standalone="no"?>
<!-- Created with Inkscape (http://www.inkscape.org/) -->

<svg
   width="1206"
   height="2048"
   viewBox="0 0 319.08749 541.86665"
   version="1.1"
   id="svg8"
   inkscape:version="1.2.2 (732a01da63, 2022-12-09)"
   sodipodi:docname="Q19995004.svg"
   xml:space="preserve"
   xmlns:inkscape="http://www.inkscape.org/namespaces/inkscape"
   xmlns:sodipodi="http://sodipodi.sourceforge.net/DTD/sodipodi-0.dtd"
   xmlns="http://www.w3.org/2000/svg"
   xmlns:svg="http://www.w3.org/2000/svg"
   xmlns:rdf="http://www.w3.org/1999/02/22-rdf-syntax-ns#"
   xmlns:cc="http://creativecommons.org/ns#"
   xmlns:dc="http://purl.org/dc/elements/1.1/"><defs
     id="defs2" /><sodipodi:namedview
     id="base"
     pagecolor="#ffffff"
     bordercolor="#666666"
     borderopacity="1.0"
     inkscape:pageopacity="0.0"
     inkscape:pageshadow="2"
     inkscape:zoom="0.36"
     inkscape:cx="-244.44444"
     inkscape:cy="1000"
     inkscape:document-units="mm"
     inkscape:current-layer="layer1"
     showgrid="false"
     units="px"
     inkscape:measure-start="0,0"
     inkscape:measure-end="0,0"
     inkscape:window-width="1920"
     inkscape:window-height="986"
     inkscape:window-x="-11"
     inkscape:window-y="-11"
     inkscape:window-maximized="1"
     inkscape:showpageshadow="2"
     inkscape:pagecheckerboard="0"
     inkscape:deskcolor="#d1d1d1" /><metadata
     id="metadata5"><rdf:RDF><cc:Work
         rdf:about=""><dc:format>image/svg+xml</dc:format><dc:type
           rdf:resource="http://purl.org/dc/dcmitype/StillImage" /></cc:Work></rdf:RDF></metadata><g
     inkscape:label="Ebene 1"
     inkscape:groupmode="layer"
     id="layer1"
     transform="translate(0,244.86641)"><path
       style="fill:#000000;fill-opacity:1;stroke-width:0.26458332"
       d="M 1.0262235,4.2861323 159.71639,67.502734 318.51546,4.2848623 159.77151,296.58252 Z M 276.6553,40.689706 159.77129,87.310846 43.250557,40.917226 159.78028,255.85044 Z"
       id="path1447"
       inkscape:connector-curvature="0"
       sodipodi:nodetypes="cccccccccc" /><path
       style="display:none;fill:#000000;fill-opacity:1;stroke-width:0.448579"
       d="M 149.64313,3.9130256 C 116.69933,0.60648387 86.962762,-15.794059 67.370923,-41.46214 44.897578,-70.905286 38.354487,-108.58242 49.693218,-143.25572 c 11.568776,-35.37678 39.606072,-62.74429 75.913562,-74.09961 11.74547,-3.67335 21.52193,-5.11322 34.69794,-5.11046 13.80985,0.002 23.2967,1.4595 35.88531,5.51182 35.38026,11.38712 62.71481,38.12688 74.40026,72.78137 4.06309,12.04969 5.61253,21.71419 5.61253,35.00802 0,13.293876 -1.54947,22.958621 -5.61253,35.008042 -13.96345,41.410196 -50.1546,71.0725412 -94.49568,77.4487296 -5.71937,0.8237289 -20.89485,1.1775422 -26.45148,0.6219338 z"
       id="path2100" /><path
       style="display:inline;fill:#f9f9f9;fill-opacity:1;stroke-width:0.264583"
       d="M 151.20123,26.1654 C 125.27629,24.601951 99.92019,15.319212 78.88626,-0.30871156 69.470801,-7.3042707 59.779109,-16.790242 52.57333,-26.063109 38.314001,-44.412949 28.928442,-66.502672 25.649432,-89.430814 c -1.08353,-7.576463 -1.320236,-11.086846 -1.320236,-19.579166 0,-4.43839 0.148063,-9.6176 0.32903,-11.50937 3.098985,-32.39596 16.047891,-60.54606 38.261619,-83.17831 23.075476,-23.51023 52.116925,-37.21902 85.342255,-40.28514 4.60498,-0.42496 18.14917,-0.42496 22.75416,0 26.03849,2.4029 49.24523,11.24615 69.80113,26.59869 16.4265,12.26842 30.1993,28.66009 39.59439,47.12309 18.67654,36.70273 19.51191,80.226839 2.26232,117.871871 -8.88068,19.381045 -22.93136,37.050949 -40.08805,50.4141949 C 216.81315,18.099395 184.16357,28.153268 151.20123,26.1654 Z m 19.81503,-27.3657097 c 20.09063,-2.211996 38.30728,-9.4704293 54.34341,-21.6531653 13.00387,-9.879121 23.90542,-23.06571 31.33211,-37.8996 15.08308,-30.12659 15.08308,-66.387225 0,-96.513805 -5.94188,-11.86815 -14.39196,-23.08524 -23.8329,-31.63701 -14.65561,-13.27535 -31.54597,-22.01533 -50.43995,-26.10033 -26.13401,-5.65034 -54.31271,-1.18384 -77.25499,12.24542 -24.128353,14.12352 -41.910948,36.88895 -49.668729,63.58632 -7.54717,25.97259 -5.004612,54.175786 7.063078,78.346819 5.513308,11.042906 11.817162,19.77691 20.60485,28.548077 18.609081,18.57409 42.660321,29.4977833 69.317201,31.48277467 4.22501,0.31461338 13.92222,0.10247312 18.53592,-0.40550037 z"
       id="path6"
       inkscape:connector-curvature="0"
       sodipodi:nodetypes="ssssssssssscsssssscsssssss" /><path
       style="fill:#ffffff;fill-opacity:1;stroke-width:2.85714"
       d="M 386.48143,1487.8761 C 266.97185,1267.4728 169.64364,1086.6582 170.19652,1086.0658 c 0.55289,-0.5924 98.44914,37.6796 217.54722,85.049 l 216.54197,86.126 217.14286,-86.7477 c 119.42857,-47.7113 217.56783,-86.4154 218.08733,-86.0093 0.7122,0.5568 -432.16481,799.7671 -435.14213,803.3923 -0.3312,0.4033 -98.38277,-179.5967 -217.89234,-400 z"
       id="path3304"
       transform="matrix(0.26458333,0,0,0.26458333,0,-244.86641)" /><path
       class="st0"
       d="m 103.60376,-143.45965 0.53914,2.02178 -2.42613,1.61742 c -1.886987,1.34785 -2.965277,2.96528 -2.965277,4.85227 0,1.61742 0.53914,3.36963 1.482637,6.3349 l 10.37846,32.618018 9.43496,-25.743968 -3.10006,-8.35668 c -1.88699,-5.25663 -3.90877,-8.62626 -7.00883,-11.32196 l 0.53914,-2.02178 c 12.53503,0.80871 23.85698,0.80871 36.39201,0 l 0.53913,2.02178 -2.83048,1.75221 c -1.887,1.21306 -2.69571,2.42613 -2.69571,4.44791 0,1.61742 0.53914,3.50441 1.48264,6.3349 l 10.78281,32.887588 8.62626,-22.778698 c 1.07828,-2.96527 1.48263,-5.12184 1.48263,-7.68275 0,-4.98706 -2.96527,-9.70454 -9.30017,-14.96116 l 0.53914,-2.02178 c 9.03061,0.67393 18.06121,0.67393 27.09182,0 l 0.53914,2.02178 c -5.93055,5.39141 -9.56975,10.9176 -13.6133,21.43085 l -18.06122,47.174818 c -4.44791,-0.26957 -9.03061,-0.26957 -13.47852,0 l -14.96115,-40.570348 -14.82637,40.570348 c -4.5827,-0.26957 -9.434967,-0.26957 -14.017657,0 l -21.70042,-56.744568 c -2.83049,-7.2784 -4.31313,-9.1654 -8.89582,-11.8611 l 0.53914,-2.02178 c 13.34373,0.80871 26.14833,0.80871 39.492057,0 z m 113.08477,72.784008 c -23.18305,0 -37.87463,-14.82637 -37.87463,-37.335498 0,-22.50913 15.63508,-37.3355 38.27899,-37.3355 21.0265,0 35.5833,12.26545 37.73986,32.61801 h -48.65746 c 0.80871,16.848158 8.76104,23.991768 22.91348,23.991768 8.35669,0 16.30902,-2.6957 22.50914,-7.41318 l 2.02178,1.48264 c -5.79577,14.82637 -19.67864,23.99176 -36.93116,23.99176 z M 206.0405,-117.98525 h 23.04827 c -1.07828,-16.98293 -5.66098,-22.37434 -11.86109,-22.37434 -6.87405,0 -10.91761,6.60448 -11.18718,22.37434 z m -45.08564,-124.6763 c -73.053577,0 -132.291667,59.23809 -132.291667,132.29167 0,73.053579 59.23809,132.291669 132.291667,132.291669 73.05358,0 132.29167,-59.23809 132.29167,-132.291669 0,-73.05358 -59.1707,-132.29167 -132.29167,-132.29167 z m 0,256.563619 c -68.605657,0 -124.204557,-55.666291 -124.204557,-124.271949 0,-68.60567 55.5989,-124.20456 124.204557,-124.20456 68.60566,0 124.20456,55.59889 124.20456,124.20456 0,68.605658 -55.5989,124.271949 -124.20456,124.271949 z"
       id="path2"
       inkscape:connector-curvature="0"
       style="stroke-width:0.673926" /></g></svg>
