<?xml version="1.0" encoding="UTF-8" standalone="no"?>
<!-- Created with Inkscape (http://www.inkscape.org/) -->

<svg
   width="1206"
   height="2048"
   viewBox="0 0 319.08749 541.86665"
   version="1.1"
   id="svg8"
   inkscape:version="1.2.2 (732a01da63, 2022-12-09)"
   sodipodi:docname="Q29714.svg"
   xml:space="preserve"
   xmlns:inkscape="http://www.inkscape.org/namespaces/inkscape"
   xmlns:sodipodi="http://sodipodi.sourceforge.net/DTD/sodipodi-0.dtd"
   xmlns="http://www.w3.org/2000/svg"
   xmlns:svg="http://www.w3.org/2000/svg"
   xmlns:rdf="http://www.w3.org/1999/02/22-rdf-syntax-ns#"
   xmlns:cc="http://creativecommons.org/ns#"
   xmlns:dc="http://purl.org/dc/elements/1.1/"><defs
     id="defs2" /><sodipodi:namedview
     id="base"
     pagecolor="#ffffff"
     bordercolor="#666666"
     borderopacity="1.0"
     inkscape:pageopacity="0.0"
     inkscape:pageshadow="2"
     inkscape:zoom="0.36"
     inkscape:cx="-244.44444"
     inkscape:cy="1000"
     inkscape:document-units="mm"
     inkscape:current-layer="g9797"
     showgrid="false"
     units="px"
     inkscape:measure-start="0,0"
     inkscape:measure-end="0,0"
     inkscape:window-width="1920"
     inkscape:window-height="986"
     inkscape:window-x="-11"
     inkscape:window-y="-11"
     inkscape:window-maximized="1"
     inkscape:showpageshadow="2"
     inkscape:pagecheckerboard="0"
     inkscape:deskcolor="#d1d1d1" /><metadata
     id="metadata5"><rdf:RDF><cc:Work
         rdf:about=""><dc:format>image/svg+xml</dc:format><dc:type
           rdf:resource="http://purl.org/dc/dcmitype/StillImage" /></cc:Work></rdf:RDF></metadata><g
     inkscape:label="Ebene 1"
     inkscape:groupmode="layer"
     id="layer1"
     transform="translate(0,244.86641)"><path
       style="fill:#000000;fill-opacity:1;stroke-width:0.26458332"
       d="M 1.0262235,4.2861323 159.71639,67.502734 318.51546,4.2848623 159.77151,296.58252 Z M 276.6553,40.689706 159.77129,87.310846 43.250557,40.917226 159.78028,255.85044 Z"
       id="path1447"
       inkscape:connector-curvature="0"
       sodipodi:nodetypes="cccccccccc" /><path
       style="display:inline;fill:#ffffff;fill-opacity:1;stroke-width:0.447868"
       d="M 149.30917,3.9130256 C 116.46974,0.60648387 86.82739,-15.794059 67.297626,-41.46214 44.895485,-70.905286 38.373125,-108.58242 49.675931,-143.25572 c 11.532121,-35.37678 39.480584,-62.74429 75.673039,-74.09961 11.70825,-3.67335 21.45374,-5.11322 34.588,-5.11046 13.7661,0.002 23.22289,1.4595 35.77161,5.51182 35.26817,11.38712 62.51611,38.12688 74.16454,72.78137 4.05022,12.04969 5.59474,21.71419 5.59474,35.00802 0,13.293876 -1.54455,22.958621 -5.59474,35.008042 -13.91921,41.410196 -49.9957,71.0725412 -94.19628,77.4487296 -5.70126,0.8237289 -20.82865,1.1775422 -26.36767,0.6219338 z"
       id="path2100" /><path
       style="display:inline;fill:#000000;fill-opacity:1;stroke-width:0.264583"
       d="M 151.20123,26.1654 C 125.27629,24.601951 99.92019,15.319212 78.88626,-0.30871156 69.470801,-7.3042707 59.779109,-16.790242 52.57333,-26.063109 38.314001,-44.412949 28.928442,-66.502672 25.649432,-89.430814 c -1.08353,-7.576463 -1.320236,-11.086846 -1.320236,-19.579166 0,-4.43839 0.148063,-9.6176 0.32903,-11.50937 3.098985,-32.39596 16.047891,-60.54606 38.261619,-83.17831 23.075476,-23.51023 52.116925,-37.21902 85.342255,-40.28514 4.60498,-0.42496 18.14917,-0.42496 22.75416,0 26.03849,2.4029 49.24523,11.24615 69.80113,26.59869 16.4265,12.26842 30.1993,28.66009 39.59439,47.12309 18.67654,36.70273 19.51191,80.226839 2.26232,117.871871 -8.88068,19.381045 -22.93136,37.050949 -40.08805,50.4141949 C 216.81315,18.099395 184.16357,28.153268 151.20123,26.1654 Z m 19.81503,-27.3657097 c 20.09063,-2.211996 38.30728,-9.4704293 54.34341,-21.6531653 13.00387,-9.879121 23.90542,-23.06571 31.33211,-37.8996 15.08308,-30.12659 15.08308,-66.387225 0,-96.513805 -5.94188,-11.86815 -14.39196,-23.08524 -23.8329,-31.63701 -14.65561,-13.27535 -31.54597,-22.01533 -50.43995,-26.10033 -26.13401,-5.65034 -54.31271,-1.18384 -77.25499,12.24542 -24.128353,14.12352 -41.910948,36.88895 -49.668729,63.58632 -7.54717,25.97259 -5.004612,54.175786 7.063078,78.346819 5.513308,11.042906 11.817162,19.77691 20.60485,28.548077 18.609081,18.57409 42.660321,29.4977833 69.317201,31.48277467 4.22501,0.31461338 13.92222,0.10247312 18.53592,-0.40550037 z"
       id="path6"
       inkscape:connector-curvature="0"
       sodipodi:nodetypes="ssssssssssscsssssscsssssss" /><path
       style="fill:#ffffff;fill-opacity:1;stroke-width:2.85714"
       d="M 386.48143,1487.8761 C 266.97185,1267.4728 169.64364,1086.6582 170.19652,1086.0658 c 0.55289,-0.5924 98.44914,37.6796 217.54722,85.049 l 216.54197,86.126 217.14286,-86.7477 c 119.42857,-47.7113 217.56783,-86.4154 218.08733,-86.0093 0.7122,0.5568 -432.16481,799.7671 -435.14213,803.3923 -0.3312,0.4033 -98.38277,-179.5967 -217.89234,-400 z"
       id="path3304"
       transform="matrix(0.26458333,0,0,0.26458333,0,-244.86641)" /><g
       style="clip-rule:evenodd;fill-rule:evenodd;image-rendering:optimizeQuality;shape-rendering:geometricPrecision;text-rendering:geometricPrecision"
       id="g9797"
       transform="matrix(0.33701422,0,0,0.33259374,66.644442,-157.55527)"><path
         style="opacity:0.969"
         fill="#000000"
         d="m 254.86156,5.9195282 c 64.637,-2.409696 127.303,7.4236398 188,29.4999998 30.977,11.7289 57.81,29.5622 80.5,53.5 28.136,37.656002 26.47,73.989002 -5,109.000002 -28.241,26.047 -61.075,44.213 -98.5,54.5 -16.816,4.954 -33.816,9.121 -51,12.5 -31.994,-61.988 -63.494,-124.321 -94.5,-187.000002 -31.039,62.244002 -62.205,124.411002 -93.5,186.500002 -43.917,-6.528 -84.917001,-21.194 -123.000001,-44 -17.5,-10.833 -31.6667,-25 -42.5,-42.5 -15.91198999,-31.792 -12.57866,-61.458 10,-89.000002 23.9116,-25.3846 52.4116,-43.8846 85.500001,-55.5 46.746,-16.4505 94.746,-25.6171198 144,-27.4999998 z m -4,7.9999998 c 51.96,-2.50532 102.627,4.328 152,20.5 26.137,8.7261 49.47,22.0594 70,40 39.188,43.060002 33.521,79.060002 -17,108.000002 -19.037,10.011 -39.037,17.011 -60,21 -35.667,-42.333 -71.333,-84.667 -107,-127.000002 -9.667,-0.6667 -19.333,-0.6667 -29,0 -35.667,42.333002 -71.333,84.667002 -107,127.000002 -28.015,-5.005 -53.682001,-15.672 -77.000001,-32 -27.4297,-20.738 -32.9297,-46.238 -16.5,-76.500002 10.9131,-16.2116 24.7464,-29.3783 41.500001,-39.5 30.567,-17.4121 63.233,-29.0788 98,-35 17.4,-2.8417 34.734,-5.0084 52,-6.5 z"
         id="path9785" /></g></g></svg>
