<?xml version="1.0" encoding="UTF-8" standalone="no"?>
<!-- Created with Inkscape (http://www.inkscape.org/) -->

<svg
   width="1206"
   height="2048"
   viewBox="0 0 319.08749 541.86665"
   version="1.1"
   id="svg8"
   inkscape:version="1.2.2 (732a01da63, 2022-12-09)"
   sodipodi:docname="Q458363.svg"
   xml:space="preserve"
   xmlns:inkscape="http://www.inkscape.org/namespaces/inkscape"
   xmlns:sodipodi="http://sodipodi.sourceforge.net/DTD/sodipodi-0.dtd"
   xmlns="http://www.w3.org/2000/svg"
   xmlns:svg="http://www.w3.org/2000/svg"
   xmlns:rdf="http://www.w3.org/1999/02/22-rdf-syntax-ns#"
   xmlns:cc="http://creativecommons.org/ns#"
   xmlns:dc="http://purl.org/dc/elements/1.1/"><defs
     id="defs2"><style
       id="style14746">.cls-1{fill:#f0c43f;}.cls-2{fill:#fff;}.cls-3{fill:#ef373e;}</style></defs><sodipodi:namedview
     id="base"
     pagecolor="#ffffff"
     bordercolor="#666666"
     borderopacity="1.0"
     inkscape:pageopacity="0.0"
     inkscape:pageshadow="2"
     inkscape:zoom="0.36"
     inkscape:cx="602.77778"
     inkscape:cy="1000"
     inkscape:document-units="mm"
     inkscape:current-layer="layer1"
     showgrid="false"
     units="px"
     inkscape:measure-start="0,0"
     inkscape:measure-end="0,0"
     inkscape:window-width="1920"
     inkscape:window-height="986"
     inkscape:window-x="-11"
     inkscape:window-y="-11"
     inkscape:window-maximized="1"
     inkscape:showpageshadow="2"
     inkscape:pagecheckerboard="0"
     inkscape:deskcolor="#d1d1d1" /><metadata
     id="metadata5"><rdf:RDF><cc:Work
         rdf:about=""><dc:format>image/svg+xml</dc:format><dc:type
           rdf:resource="http://purl.org/dc/dcmitype/StillImage" /></cc:Work></rdf:RDF></metadata><g
     inkscape:label="Ebene 1"
     inkscape:groupmode="layer"
     id="layer1"
     transform="translate(0,244.86641)"><path
       style="fill:#00509e;fill-opacity:1;stroke-width:0.26458332"
       d="M 1.0262235,4.2861323 159.71639,67.502734 318.51546,4.2848623 159.77151,296.58252 Z M 276.6553,40.689706 159.77129,87.310846 43.250557,40.917226 159.78028,255.85044 Z"
       id="path1447"
       inkscape:connector-curvature="0"
       sodipodi:nodetypes="cccccccccc" /><path
       style="display:inline;fill:#ffffff;fill-opacity:1;stroke-width:0.447868"
       d="M 149.30917,3.9130256 C 116.46974,0.60648387 86.82739,-15.794059 67.297626,-41.46214 44.895485,-70.905286 38.373125,-108.58242 49.675931,-143.25572 c 11.532121,-35.37678 39.480584,-62.74429 75.673039,-74.09961 11.70825,-3.67335 21.45374,-5.11322 34.588,-5.11046 13.7661,0.002 23.22289,1.4595 35.77161,5.51182 35.26817,11.38712 62.51611,38.12688 74.16454,72.78137 4.05022,12.04969 5.59474,21.71419 5.59474,35.00802 0,13.293876 -1.54455,22.958621 -5.59474,35.008042 -13.91921,41.410196 -49.9957,71.0725412 -94.19628,77.4487296 -5.70126,0.8237289 -20.82865,1.1775422 -26.36767,0.6219338 z"
       id="path2100" /><path
       style="display:inline;fill:#ffffff;fill-opacity:1;stroke-width:0.264583"
       d="M 151.20123,26.1654 C 125.27629,24.601951 99.92019,15.319212 78.88626,-0.30871156 69.470801,-7.3042707 59.779109,-16.790242 52.57333,-26.063109 38.314001,-44.412949 28.928442,-66.502672 25.649432,-89.430814 c -1.08353,-7.576463 -1.320236,-11.086846 -1.320236,-19.579166 0,-4.43839 0.148063,-9.6176 0.32903,-11.50937 3.098985,-32.39596 16.047891,-60.54606 38.261619,-83.17831 23.075476,-23.51023 52.116925,-37.21902 85.342255,-40.28514 4.60498,-0.42496 18.14917,-0.42496 22.75416,0 26.03849,2.4029 49.24523,11.24615 69.80113,26.59869 16.4265,12.26842 30.1993,28.66009 39.59439,47.12309 18.67654,36.70273 19.51191,80.226839 2.26232,117.871871 -8.88068,19.381045 -22.93136,37.050949 -40.08805,50.4141949 C 216.81315,18.099395 184.16357,28.153268 151.20123,26.1654 Z m 19.81503,-27.3657097 c 20.09063,-2.211996 38.30728,-9.4704293 54.34341,-21.6531653 13.00387,-9.879121 23.90542,-23.06571 31.33211,-37.8996 15.08308,-30.12659 15.08308,-66.387225 0,-96.513805 -5.94188,-11.86815 -14.39196,-23.08524 -23.8329,-31.63701 -14.65561,-13.27535 -31.54597,-22.01533 -50.43995,-26.10033 -26.13401,-5.65034 -54.31271,-1.18384 -77.25499,12.24542 -24.128353,14.12352 -41.910948,36.88895 -49.668729,63.58632 -7.54717,25.97259 -5.004612,54.175786 7.063078,78.346819 5.513308,11.042906 11.817162,19.77691 20.60485,28.548077 18.609081,18.57409 42.660321,29.4977833 69.317201,31.48277467 4.22501,0.31461338 13.92222,0.10247312 18.53592,-0.40550037 z"
       id="path6"
       inkscape:connector-curvature="0"
       sodipodi:nodetypes="ssssssssssscsssssscsssssss" /><path
       style="fill:#ffffff;fill-opacity:1;stroke-width:2.85714"
       d="M 386.48143,1487.8761 C 266.97185,1267.4728 169.64364,1086.6582 170.19652,1086.0658 c 0.55289,-0.5924 98.44914,37.6796 217.54722,85.049 l 216.54197,86.126 217.14286,-86.7477 c 119.42857,-47.7113 217.56783,-86.4154 218.08733,-86.0093 0.7122,0.5568 -432.16481,799.7671 -435.14213,803.3923 -0.3312,0.4033 -98.38277,-179.5967 -217.89234,-400 z"
       id="path3304"
       transform="matrix(0.26458333,0,0,0.26458333,0,-244.86641)" /><g
       id="g17496"
       transform="matrix(0.56020829,0,0,0.5446165,37.889611,-235.92542)"><path
         d="M 398.1,247.58 339.69,94.36 c -2.33,-6.72 -5.71,-12.4 -9.76,-16.43 -4.96,-4.92 -10.86,-7.42 -17.55,-7.42 H 119.1 c -6.69,0 -12.6,2.5 -17.55,7.42 -4.06,4.03 -7.43,9.71 -9.74,16.37 L 33.36,247.63 c -4.89,13.86 -4.62,21.72 -1.31,38.31 l 0.04,0.18 c 0.6,2.06 14.8,50.5 15.11,51.48 l 0.03,0.1 c 3.41,10.89 7.28,23.24 27.96,23.24 h 281.09 c 20.68,0 24.55,-12.35 27.96,-23.24 l 0.03,-0.1 c 0.31,-0.98 14.51,-49.42 15.11,-51.48 l 0.04,-0.18 c 3.31,-16.59 3.59,-24.45 -1.32,-38.36"
         fill="#ffffff"
         id="path17478" /><path
         d="M 418.38,244.1 418.36,244.05 359.4,89.43 C 350.83,64.48 334.87,50.35 310.68,50.35 H 120.79 C 96.6,50.35 80.64,64.48 72.07,89.43 L 13.11,244.05 v 0.05 c -2.65,8.89 -6.39,24.06 -0.85,45.23 2.22,8.48 15.12,52.07 15.12,52.07 6.55,24.36 19.19,39.64 47.87,39.64 h 280.97 c 28.69,0 41.32,-15.29 47.88,-39.64 0,0 12.9,-43.59 15.12,-52.07 5.54,-21.17 1.81,-36.34 -0.83,-45.23 m -20.95,41.44 c 0,0 -14.79,50.47 -15.1,51.44 l -0.03,0.1 c -3.36,10.72 -6.84,21.76 -26.02,21.76 H 75.2 c -19.18,0 -22.66,-11.04 -26.02,-21.76 l -0.03,-0.1 C 48.84,336 34.05,285.54 34.05,285.54 30.82,269.36 30.55,261.71 35.28,248.31 L 93.71,95.03 c 2.23,-6.44 5.43,-11.84 9.27,-15.65 4.56,-4.53 9.98,-6.83 16.12,-6.83 h 193.27 c 6.13,0 11.56,2.3 16.12,6.83 3.84,3.81 7.04,9.21 9.27,15.65 l 58.43,153.27 c 4.73,13.4 4.46,21.06 1.23,37.23"
         fill="#00509e"
         id="path17480" /><path
         d="m 306.93,94.76 -64.06,0.03 -27.21,87.28 -27.28,-87.28 -64.06,-0.03 -52.09,181.04 68.6,-0.01 19.33,-91.36 28.73,91.14 h 53.47 l 28.73,-91.14 19.33,91.36 68.6,0.01 z"
         fill="#ee3124"
         fill-rule="evenodd"
         id="path17482" /><path
         d="m 308.39,297.68 c -5.79,0 -10.36,1.55 -13.88,4.23 -4.38,3.35 -5.67,9.4 -5.8,15.46 -0.05,2.46 -0.25,10.15 4.99,14.88 3.43,3.09 8.71,4.72 14.69,4.76 h 0.17 c 5.98,-0.04 11.26,-1.67 14.68,-4.76 5.24,-4.73 5.04,-12.42 4.99,-14.88 -0.13,-6.06 -1.42,-12.12 -5.8,-15.46 -3.51,-2.68 -8.34,-4.29 -13.88,-4.23 h -0.17 z m 8.8,19.65 c 0,7.63 -2.94,11.59 -8.74,11.7 -5.8,-0.12 -8.74,-4.07 -8.74,-11.7 0,-7.63 2.94,-11.59 8.74,-11.7 5.8,0.12 8.74,4.07 8.74,11.7 M 240.24,298 h 7.33 v 7.94 h -7.34 v 19.4 c -0.04,5.06 4.15,3.51 7.34,3.31 v 7.89 c -10.25,1.43 -16.35,-0.46 -17.7,-5.87 v -0.05 c -0.25,-1.3 -0.43,-2.3 -0.44,-4.12 v -20.57 h -6.33 v -7.94 h 6.34 v -9.6 h 10.76 c 0.02,3.81 0.04,8.64 0.04,9.6 m 91,38.68 v -38.68 h 10.8 v 2.82 c 3.17,-1.39 6.06,-3.05 11.53,-3.13 h 0.07 c 12.64,0 12.14,8.27 12.14,13.38 v 25.61 h -10.8 v -27.01 c -0.12,-2.23 -0.42,-4.03 -5.16,-4.03 -6.2,0 -7.85,2.19 -7.78,2.19 v 28.85 z m -80.07,0 v -48.28 h 10.8 v 12.42 c 3.17,-1.39 6.06,-3.05 11.53,-3.13 h 0.07 c 12.64,0 12.14,8.27 12.14,13.38 v 25.61 h -10.8 v -27.01 c -0.12,-2.23 -0.42,-4.03 -5.16,-4.03 -6.2,0 -7.85,2.19 -7.78,2.19 v 28.85 z M 65.42,336.7 74.5,288.42 h 14.35 l 6.59,26.92 6.59,-26.92 h 14.35 l 9.08,48.28 h -11.84 l -5.52,-29.6 -7.19,29.6 H 89.98 l -7.19,-29.6 -5.52,29.6 H 65.43 Z m 121.7,-29.28 c -3.04,-0.67 -11.97,-0.96 -11.97,5.81 v 23.46 h -10.8 v -38.67 h 10.8 v 3.84 c 4.27,-4.17 9.77,-3.6 11.97,-2.66 z m 34.13,1.82 c 0,-2.31 -0.57,-4.74 -1.79,-6.4 -3.26,-4.3 -10.15,-4.72 -14.59,-4.8 -7.77,-0.15 -13.25,2.98 -14.4,3.56 l 2.27,7.28 c 1.69,-1.4 4.99,-3.37 10.82,-3.21 5.51,0.15 6.89,1.92 6.89,3.9 v 1.33 c 0,0 -6.45,0.06 -13.45,2.11 -1.42,0.41 -2.8,0.96 -4.06,1.66 -3.4,1.89 -5.79,5.31 -6.09,9.37 -0.54,7.3 4.6,12.73 11.36,13 5.98,0.23 9,-1.57 12.24,-3.45 v 3.12 h 10.8 v -27.46 z m -10.8,17.57 c -4.22,2.88 -9.12,2.52 -9.41,2.49 -2.42,-0.21 -4.23,-2.54 -4.06,-4.88 0.11,-1.43 0.98,-2.6 2.1,-3.44 0.52,-0.39 3.1,-2.04 11.37,-2.38 v 8.2 z m -49.7,-17.57 c 0,-2.31 -0.57,-4.74 -1.79,-6.4 -3.26,-4.3 -10.15,-4.72 -14.59,-4.8 -7.77,-0.15 -13.25,2.98 -14.4,3.56 l 2.27,7.28 c 1.69,-1.4 4.99,-3.37 10.82,-3.21 5.51,0.15 6.89,1.92 6.89,3.9 v 1.33 c 0,0 -6.45,0.06 -13.45,2.11 -1.42,0.41 -2.8,0.96 -4.06,1.66 -3.4,1.89 -5.79,5.31 -6.09,9.37 -0.54,7.3 4.6,12.73 11.36,13 5.98,0.23 9,-1.57 12.24,-3.45 v 3.12 h 10.8 v -27.46 z m -10.8,17.57 c -4.22,2.88 -9.12,2.52 -9.41,2.49 -2.42,-0.21 -4.23,-2.54 -4.06,-4.88 0.1,-1.43 0.98,-2.6 2.1,-3.44 0.52,-0.39 3.1,-2.04 11.37,-2.38 v 8.2 z"
         fill="#01519d"
         id="path17484" /></g></g></svg>
