<?xml version="1.0" encoding="UTF-8" standalone="no"?>
<!-- Created with Inkscape (http://www.inkscape.org/) -->

<svg
   width="1206"
   height="2048"
   viewBox="0 0 319.08749 541.86665"
   version="1.1"
   id="svg8"
   inkscape:version="1.2.2 (732a01da63, 2022-12-09)"
   sodipodi:docname="Q4646934.svg"
   xml:space="preserve"
   xmlns:inkscape="http://www.inkscape.org/namespaces/inkscape"
   xmlns:sodipodi="http://sodipodi.sourceforge.net/DTD/sodipodi-0.dtd"
   xmlns="http://www.w3.org/2000/svg"
   xmlns:svg="http://www.w3.org/2000/svg"
   xmlns:rdf="http://www.w3.org/1999/02/22-rdf-syntax-ns#"
   xmlns:cc="http://creativecommons.org/ns#"
   xmlns:dc="http://purl.org/dc/elements/1.1/"><defs
     id="defs2"><style
       id="style14746">.cls-1{fill:#f0c43f;}.cls-2{fill:#fff;}.cls-3{fill:#ef373e;}</style></defs><sodipodi:namedview
     id="base"
     pagecolor="#ffffff"
     bordercolor="#666666"
     borderopacity="1.0"
     inkscape:pageopacity="0.0"
     inkscape:pageshadow="2"
     inkscape:zoom="0.36"
     inkscape:cx="602.77778"
     inkscape:cy="1000"
     inkscape:document-units="mm"
     inkscape:current-layer="layer1"
     showgrid="false"
     units="px"
     inkscape:measure-start="0,0"
     inkscape:measure-end="0,0"
     inkscape:window-width="1920"
     inkscape:window-height="986"
     inkscape:window-x="-11"
     inkscape:window-y="-11"
     inkscape:window-maximized="1"
     inkscape:showpageshadow="2"
     inkscape:pagecheckerboard="0"
     inkscape:deskcolor="#d1d1d1" /><metadata
     id="metadata5"><rdf:RDF><cc:Work
         rdf:about=""><dc:format>image/svg+xml</dc:format><dc:type
           rdf:resource="http://purl.org/dc/dcmitype/StillImage" /></cc:Work></rdf:RDF></metadata><g
     inkscape:label="Ebene 1"
     inkscape:groupmode="layer"
     id="layer1"
     transform="translate(0,244.86641)"><path
       style="fill:#004785;fill-opacity:1;stroke-width:0.26458332"
       d="M 1.0262235,4.2861323 159.71639,67.502734 318.51546,4.2848623 159.77151,296.58252 Z M 276.6553,40.689706 159.77129,87.310846 43.250557,40.917226 159.78028,255.85044 Z"
       id="path1447"
       inkscape:connector-curvature="0"
       sodipodi:nodetypes="cccccccccc" /><path
       style="display:inline;fill:#004785;fill-opacity:1;stroke-width:0.447868"
       d="M 149.30917,3.9130256 C 116.46974,0.60648387 86.82739,-15.794059 67.297626,-41.46214 44.895485,-70.905286 38.373125,-108.58242 49.675931,-143.25572 c 11.532121,-35.37678 39.480584,-62.74429 75.673039,-74.09961 11.70825,-3.67335 21.45374,-5.11322 34.588,-5.11046 13.7661,0.002 23.22289,1.4595 35.77161,5.51182 35.26817,11.38712 62.51611,38.12688 74.16454,72.78137 4.05022,12.04969 5.59474,21.71419 5.59474,35.00802 0,13.293876 -1.54455,22.958621 -5.59474,35.008042 -13.91921,41.410196 -49.9957,71.0725412 -94.19628,77.4487296 -5.70126,0.8237289 -20.82865,1.1775422 -26.36767,0.6219338 z"
       id="path2100" /><path
       style="display:inline;fill:#004785;fill-opacity:1;stroke-width:0.264583"
       d="M 151.20123,26.1654 C 125.27629,24.601951 99.92019,15.319212 78.88626,-0.30871156 69.470801,-7.3042707 59.779109,-16.790242 52.57333,-26.063109 38.314001,-44.412949 28.928442,-66.502672 25.649432,-89.430814 c -1.08353,-7.576463 -1.320236,-11.086846 -1.320236,-19.579166 0,-4.43839 0.148063,-9.6176 0.32903,-11.50937 3.098985,-32.39596 16.047891,-60.54606 38.261619,-83.17831 23.075476,-23.51023 52.116925,-37.21902 85.342255,-40.28514 4.60498,-0.42496 18.14917,-0.42496 22.75416,0 26.03849,2.4029 49.24523,11.24615 69.80113,26.59869 16.4265,12.26842 30.1993,28.66009 39.59439,47.12309 18.67654,36.70273 19.51191,80.226839 2.26232,117.871871 -8.88068,19.381045 -22.93136,37.050949 -40.08805,50.4141949 C 216.81315,18.099395 184.16357,28.153268 151.20123,26.1654 Z m 19.81503,-27.3657097 c 20.09063,-2.211996 38.30728,-9.4704293 54.34341,-21.6531653 13.00387,-9.879121 23.90542,-23.06571 31.33211,-37.8996 15.08308,-30.12659 15.08308,-66.387225 0,-96.513805 -5.94188,-11.86815 -14.39196,-23.08524 -23.8329,-31.63701 -14.65561,-13.27535 -31.54597,-22.01533 -50.43995,-26.10033 -26.13401,-5.65034 -54.31271,-1.18384 -77.25499,12.24542 -24.128353,14.12352 -41.910948,36.88895 -49.668729,63.58632 -7.54717,25.97259 -5.004612,54.175786 7.063078,78.346819 5.513308,11.042906 11.817162,19.77691 20.60485,28.548077 18.609081,18.57409 42.660321,29.4977833 69.317201,31.48277467 4.22501,0.31461338 13.92222,0.10247312 18.53592,-0.40550037 z"
       id="path6"
       inkscape:connector-curvature="0"
       sodipodi:nodetypes="ssssssssssscsssssscsssssss" /><path
       style="fill:#ffffff;fill-opacity:1;stroke-width:2.85714"
       d="M 386.48143,1487.8761 C 266.97185,1267.4728 169.64364,1086.6582 170.19652,1086.0658 c 0.55289,-0.5924 98.44914,37.6796 217.54722,85.049 l 216.54197,86.126 217.14286,-86.7477 c 119.42857,-47.7113 217.56783,-86.4154 218.08733,-86.0093 0.7122,0.5568 -432.16481,799.7671 -435.14213,803.3923 -0.3312,0.4033 -98.38277,-179.5967 -217.89234,-400 z"
       id="path3304"
       transform="matrix(0.26458333,0,0,0.26458333,0,-244.86641)" /><g
       id="logo"
       transform="matrix(0.97859998,0,0,0.96943104,62.784593,-208.32848)"><path
         id="Path_11"
         data-name="Path 11"
         class="cls-1"
         d="m 183.3,83.09 7.33,-0.59 7,-8 H 133.7 C 81.61,74.55 28.46,99.68 0,133.15 h 64 c 20.75,-24.91 40.65,-37.55 78,-44.72 8.26,-1.58 18,-3.58 26.36,-4.36 5.42,-0.5 15,-1 15,-1" /><path
         id="Path_12"
         data-name="Path 12"
         class="cls-2"
         d="M 17.79,158.63 C 18.93,153.26 20,147.84 20.4,146 h 20.54 c 13.68,0 20.62,5.22 20.62,15.53 0,13.4 -8.92,21.09 -24.46,21.09 h -6.87 l -1,4.57 -0.23,1.24 c -0.68,3.22 -1.05,5 -2,5.87 -0.95,0.87 -2.95,1.06 -6.44,1.06 h -2.81 c -4.32,0 -6.71,0 -7.92,0.07 z m 14.67,11.94 H 38 c 4.26,0 6.8,-2.71 6.8,-7.26 0,-3.08 -2.19,-4.84 -6,-4.84 H 35 Z" /><path
         id="Path_13"
         data-name="Path 13"
         class="cls-2"
         d="m 74.49,196 c -4.06,0 -6.93,-1 -8.55,-3 -1.62,-2 -2,-5.14 -1.2,-9.23 L 72.49,148 h 16.43 l -7.65,36.18 c -1,4.63 -0.52,7.12 1.86,8.55 -0.67,1 -2.81,3.23 -8.64,3.23" /><path
         id="Path_14"
         data-name="Path 14"
         class="cls-2"
         d="m 124.86,196 c -3.35,0 -7.71,-1 -9.4,-5.91 l -0.5,-1.42 -0.95,1.16 c -3.49,4.21 -7.47,6.17 -12.54,6.17 -3.54,0 -6.22,-1.09 -8,-3.23 -2.35,-2.9 -2.92,-7.63 -1.64,-13.69 l 4.91,-21.85 h 16.6 l -4.88,21.35 a 4.22,4.22 0 0 0 0.62,3.69 3.61,3.61 0 0 0 2.87,1.38 4.58,4.58 0 0 0 2.81,-1 l 0.27,-0.2 0.05,-0.32 c 0.07,-0.4 0.14,-0.8 0.23,-1.21 l 5.09,-23.56 H 137 l -5.8,26.88 c -1,4.64 -0.51,7.14 1.87,8.56 -0.64,1 -2.7,3.23 -8.25,3.23" /><path
         id="Path_15"
         data-name="Path 15"
         class="cls-2"
         d="m 157.81,195.76 c -7.5,0 -13.56,-1.77 -16.64,-4.85 a 7,7 0 0 1 -2.34,-5 6.72,6.72 0 0 1 3.7,-5.8 c 3.14,2.86 8.49,5.78 12.61,5.78 0.72,0 2.65,0 2.65,-2.1 0,-1.31 -1.61,-2.11 -3.26,-2.81 -5.87,-2.59 -10.38,-5.11 -10.38,-11.76 0,-7.72 6.53,-12.71 16.63,-12.71 6.65,0 12.34,1.88 15.62,5.16 a 5.71,5.71 0 0 1 1.71,4.18 7.35,7.35 0 0 1 -4.4,6.63 c -1.94,-2 -6.43,-6.06 -11.44,-6.06 -2.24,0 -3,1.17 -3,2.17 0,1.42 1.77,2.15 4.46,3.26 h 0.06 c 6.23,2.58 11.38,5.23 11.38,11.52 0,7.71 -6.47,12.31 -17.33,12.31" /><path
         id="Path_16"
         data-name="Path 16"
         class="cls-3"
         d="M 176.08,133.1 H 188 c -6.15,-6.55 -9.65,-12.48 -13.77,-22.41 L 137.85,26.37 v 0 C 134.32,18.06 131.93,12.45 131.51,11.45 127.65,2.5 124.57,0 112.92,0 h -49.1 c 1,5.6 0.06,12 -3.64,20.83 -2.26,5.4 -35.38,82.83 -35.38,82.83 A 193.16,193.16 0 0 1 55.42,86.41 c 13.36,-6 29.75,-10.35 29.75,-10.35 l 12.45,-29.24 30.53,71.57 h 0.08 c 1.26,3 2.07,4.94 2.23,5.36 2,5.39 5.57,9.3 14,9.3 h 31.65 z" /><g
         id="Group_6"
         data-name="Group 6"><g
           id="Group_5"
           data-name="Group 5"><path
             id="Path_17"
             data-name="Path 17"
             class="cls-2"
             d="m 178.43,189.35 a 3.21,3.21 0 0 1 1.58,0.41 3,3 0 0 1 1.2,1.18 3.23,3.23 0 0 1 0,3.21 2.91,2.91 0 0 1 -1.18,1.18 3.19,3.19 0 0 1 -3.19,0 3,3 0 0 1 -1.19,-1.18 3.23,3.23 0 0 1 0,-3.21 3,3 0 0 1 1.19,-1.18 3.26,3.26 0 0 1 1.59,-0.41 z m 0,0.62 a 2.75,2.75 0 0 0 -1.26,0.33 2.37,2.37 0 0 0 -1,0.95 2.58,2.58 0 0 0 0,2.58 2.37,2.37 0 0 0 1,1 2.57,2.57 0 0 0 2.57,0 2.37,2.37 0 0 0 0.95,-1 2.56,2.56 0 0 0 0,-2.58 2.37,2.37 0 0 0 -1,-0.95 2.75,2.75 0 0 0 -1.26,-0.33 z m -1.32,4.3 v -3.4 h 1.77 a 1.26,1.26 0 0 1 0.54,0.13 0.92,0.92 0 0 1 0.32,0.33 0.9,0.9 0 0 1 0.12,0.48 0.86,0.86 0 0 1 -0.24,0.63 1.1,1.1 0 0 1 -0.67,0.33 0.94,0.94 0 0 1 0.24,0.13 1.94,1.94 0 0 1 0.23,0.26 c 0,0 0.11,0.17 0.25,0.41 l 0.4,0.69 h -0.86 l -0.28,-0.55 a 2.29,2.29 0 0 0 -0.48,-0.7 0.73,0.73 0 0 0 -0.47,-0.15 h -0.18 v 1.4 z m 0.69,-1.94 h 0.28 a 3.07,3.07 0 0 0 0.74,0 0.44,0.44 0 0 0 0.31,-0.42 0.47,0.47 0 0 0 -0.08,-0.26 0.53,0.53 0 0 0 -0.23,-0.16 3.07,3.07 0 0 0 -0.74,0 h -0.28 z" /></g></g></g></g></svg>
