<?xml version="1.0" encoding="UTF-8" standalone="no"?>
<!-- Created with Inkscape (http://www.inkscape.org/) -->

<svg
   width="1206"
   height="2048"
   viewBox="0 0 319.08749 541.86665"
   version="1.1"
   id="svg8"
   inkscape:version="1.2.2 (732a01da63, 2022-12-09)"
   sodipodi:docname="Q4947190.svg"
   xml:space="preserve"
   xmlns:inkscape="http://www.inkscape.org/namespaces/inkscape"
   xmlns:sodipodi="http://sodipodi.sourceforge.net/DTD/sodipodi-0.dtd"
   xmlns="http://www.w3.org/2000/svg"
   xmlns:svg="http://www.w3.org/2000/svg"
   xmlns:rdf="http://www.w3.org/1999/02/22-rdf-syntax-ns#"
   xmlns:cc="http://creativecommons.org/ns#"
   xmlns:dc="http://purl.org/dc/elements/1.1/"><defs
     id="defs2" /><sodipodi:namedview
     id="base"
     pagecolor="#ffffff"
     bordercolor="#666666"
     borderopacity="1.0"
     inkscape:pageopacity="0.0"
     inkscape:pageshadow="2"
     inkscape:zoom="0.36"
     inkscape:cx="-244.44444"
     inkscape:cy="1000"
     inkscape:document-units="mm"
     inkscape:current-layer="layer1"
     showgrid="false"
     units="px"
     inkscape:measure-start="0,0"
     inkscape:measure-end="0,0"
     inkscape:window-width="1920"
     inkscape:window-height="986"
     inkscape:window-x="-11"
     inkscape:window-y="-11"
     inkscape:window-maximized="1"
     inkscape:showpageshadow="2"
     inkscape:pagecheckerboard="0"
     inkscape:deskcolor="#d1d1d1" /><metadata
     id="metadata5"><rdf:RDF><cc:Work
         rdf:about=""><dc:format>image/svg+xml</dc:format><dc:type
           rdf:resource="http://purl.org/dc/dcmitype/StillImage" /></cc:Work></rdf:RDF></metadata><g
     inkscape:label="Ebene 1"
     inkscape:groupmode="layer"
     id="layer1"
     transform="translate(0,244.86641)"><path
       style="fill:#192991;fill-opacity:1;stroke-width:0.26458332"
       d="M 1.0262235,4.2861323 159.71639,67.502734 318.51546,4.2848623 159.77151,296.58252 Z M 276.6553,40.689706 159.77129,87.310846 43.250557,40.917226 159.78028,255.85044 Z"
       id="path1447"
       inkscape:connector-curvature="0"
       sodipodi:nodetypes="cccccccccc" /><path
       style="fill:#192991;stroke-width:0.447852;fill-opacity:1"
       d="M 148.17322,4.6488543 C 115.22942,1.3530347 85.492855,-14.994326 65.901016,-40.579173 43.427671,-69.926844 36.88458,-107.48181 48.223311,-142.04267 c 11.568776,-35.26207 39.606072,-62.54084 75.913559,-73.85933 11.74547,-3.66144 21.52193,-5.09664 34.69794,-5.09389 13.80985,0.002 23.2967,1.45477 35.88531,5.49395 35.38026,11.35019 62.71481,38.00324 74.40026,72.54536 4.06309,12.01062 5.61253,21.64377 5.61253,34.8945 0,13.250773 -1.54947,22.884178 -5.61253,34.894527 -13.96345,41.275915 -50.1546,70.8420742 -94.49568,77.1975865 -5.71937,0.8210579 -20.89485,1.1737232 -26.45148,0.6199171 z"
       id="path2100" /><path
       style="display:inline;fill:#192991;fill-opacity:1;stroke-width:0.264583"
       d="M 151.20123,26.1654 C 125.27629,24.601951 99.92019,15.319212 78.88626,-0.30871156 69.470801,-7.3042707 59.779109,-16.790242 52.57333,-26.063109 38.314001,-44.412949 28.928442,-66.502672 25.649432,-89.430814 c -1.08353,-7.576463 -1.320236,-11.086846 -1.320236,-19.579166 0,-4.43839 0.148063,-9.6176 0.32903,-11.50937 3.098985,-32.39596 16.047891,-60.54606 38.261619,-83.17831 23.075476,-23.51023 52.116925,-37.21902 85.342255,-40.28514 4.60498,-0.42496 18.14917,-0.42496 22.75416,0 26.03849,2.4029 49.24523,11.24615 69.80113,26.59869 16.4265,12.26842 30.1993,28.66009 39.59439,47.12309 18.67654,36.70273 19.51191,80.226839 2.26232,117.871871 -8.88068,19.381045 -22.93136,37.050949 -40.08805,50.4141949 C 216.81315,18.099395 184.16357,28.153268 151.20123,26.1654 Z m 19.81503,-27.3657097 c 20.09063,-2.211996 38.30728,-9.4704293 54.34341,-21.6531653 13.00387,-9.879121 23.90542,-23.06571 31.33211,-37.8996 15.08308,-30.12659 15.08308,-66.387225 0,-96.513805 -5.94188,-11.86815 -14.39196,-23.08524 -23.8329,-31.63701 -14.65561,-13.27535 -31.54597,-22.01533 -50.43995,-26.10033 -26.13401,-5.65034 -54.31271,-1.18384 -77.25499,12.24542 -24.128353,14.12352 -41.910948,36.88895 -49.668729,63.58632 -7.54717,25.97259 -5.004612,54.175786 7.063078,78.346819 5.513308,11.042906 11.817162,19.77691 20.60485,28.548077 18.609081,18.57409 42.660321,29.4977833 69.317201,31.48277467 4.22501,0.31461338 13.92222,0.10247312 18.53592,-0.40550037 z"
       id="path6"
       inkscape:connector-curvature="0"
       sodipodi:nodetypes="ssssssssssscsssssscsssssss" /><path
       style="fill:#ffffff;fill-opacity:1;stroke-width:2.85714"
       d="M 386.48143,1487.8761 C 266.97185,1267.4728 169.64364,1086.6582 170.19652,1086.0658 c 0.55289,-0.5924 98.44914,37.6796 217.54722,85.049 l 216.54197,86.126 217.14286,-86.7477 c 119.42857,-47.7113 217.56783,-86.4154 218.08733,-86.0093 0.7122,0.5568 -432.16481,799.7671 -435.14213,803.3923 -0.3312,0.4033 -98.38277,-179.5967 -217.89234,-400 z"
       id="path3304"
       transform="matrix(0.26458333,0,0,0.26458333,0,-244.86641)" /><path
       style="fill:#ffffff;stroke:none;stroke-width:0.0522916"
       d="m 97.04878,-23.112162 c -2.338923,0 -5.330779,0.07833 -7.3304,-1.328572 -1.607454,-1.130644 -1.969787,-2.885879 -2.099114,-4.729372 -0.270178,-3.844707 0.924679,-7.584439 2.319028,-11.123639 4.417084,-11.21189 8.452464,-22.558524 12.682646,-33.840918 1.4357,-3.827998 2.84733,-7.664866 4.29351,-11.4892 0.44821,-1.184434 0.88594,-2.373042 1.34984,-3.551207 0.30003,-0.7609 0.69064,-1.555224 0.87966,-2.350066 -2.26091,-1.256503 -3.76154,-4.172669 -3.51703,-6.736844 0.0534,-0.560369 -0.021,-1.526497 0.39009,-1.96884 0.60371,-0.64966 1.63572,-1.1181 2.3939,-1.57193 1.83784,-1.09981 3.73746,-2.07328 5.60252,-3.12192 0.65293,-0.36715 1.32994,-0.69457 1.98968,-1.05023 0.2796,-0.15092 0.63042,-0.24962 0.79482,-0.5405 0.93306,-1.65705 1.56923,-3.54337 2.36301,-5.2725 1.77029,-3.8562 3.54948,-7.70715 5.36533,-11.54142 5.12604,-10.82387 10.57096,-21.48586 16.27924,-32.01308 1.72579,-3.18199 3.41545,-6.37913 5.33496,-9.4525 0.94091,-1.50769 1.86821,-3.14699 3.16359,-4.3847 1.89021,-1.80589 4.34536,-2.96525 6.91153,-3.42692 1.56713,-0.28147 3.18611,-0.32377 4.76476,-0.11175 0.67283,0.0904 1.32052,0.31335 1.98968,0.40318 -7.7e-4,2.64512 -1.10218,5.14559 -2.02006,7.57243 -1.38387,3.65982 -2.82796,7.30764 -4.34588,10.91473 -3.0175,7.17291 -6.02558,14.34844 -9.17766,21.46391 -2.49076,5.62241 -5.05065,11.23383 -7.39009,16.92047 1.14198,-0.32797 2.22007,-1.05649 3.29869,-1.55053 2.68293,-1.22881 5.31034,-2.6211 7.90636,-4.02121 8.69385,-4.6902 17.03166,-9.87027 25.08044,-15.59398 7.67074,-5.45476 14.91527,-11.62342 21.57232,-18.26313 4.25635,-4.24526 8.49855,-8.68584 11.57104,-13.89148 1.12417,-1.9046 2.06978,-3.87762 2.83058,-5.9535 0.4618,-1.25964 0.91997,-2.61171 0.88697,-3.969 -0.045,-1.82261 -0.8299,-3.59717 -1.94779,-5.01347 -0.56339,-0.71338 -1.22522,-1.36492 -1.97868,-1.87854 -1.03568,-0.70595 -2.25304,-1.20355 -3.45575,-1.54593 -3.78721,-1.07783 -7.85454,-0.92268 -11.72865,-0.55341 -6.08842,0.58032 -12.07998,1.62449 -18.01184,3.12298 -26.42505,6.67419 -50.07344,20.93801 -71.15724,37.82924 -4.89619,3.92252 -9.647866,8.0534 -14.24193,12.32008 -2.733192,2.5386 -5.552253,4.94557 -7.928567,7.83825 -2.038577,2.48166 -3.652255,5.28085 -4.43504,8.408 -0.279655,1.11707 -0.617744,2.51927 -0.313537,3.65566 0.402549,1.50351 1.74275,2.58873 2.624023,3.81232 -1.230986,0.51962 -1.86464,1.99755 -3.351037,2.08425 -1.85684,0.10757 -3.882389,-1.15258 -5.131278,-2.3976 -2.891845,-2.88326 -4.223884,-6.8136 -4.498302,-10.81028 -0.251488,-3.6635 0.828754,-7.39643 2.306454,-10.70585 1.633945,-3.65932 3.750552,-7.08936 6.234613,-10.23584 6.138471,-7.7761 14.048655,-13.94475 21.927792,-19.8643 3.500799,-2.63051 6.866499,-5.44902 10.524369,-7.86645 4.42285,-2.92243 9.10854,-5.5378 13.77068,-8.05863 7.93986,-4.29278 15.97398,-8.35484 24.3474,-11.75481 15.04303,-6.10808 31.47778,-10.77578 47.85704,-10.06057 3.02537,0.13212 5.99994,0.22507 9.00591,0.66685 6.99426,1.02781 14.41786,3.97196 18.3035,10.19776 1.15558,1.8508 1.98601,3.88742 2.48971,6.0057 0.44873,1.88999 0.60058,3.85778 0.51522,5.79684 -0.34295,7.81683 -5.22186,14.80749 -10.30392,20.41944 -5.20667,5.74929 -11.36631,10.60714 -17.60186,15.19082 -6.35755,4.67401 -12.90465,9.1475 -19.635,13.27107 v 0.0523 c 1.26344,-0.16293 2.5138,-0.5003 3.76992,-0.71806 2.97614,-0.51546 5.95543,-0.98756 8.95355,-1.35625 10.40865,-1.27844 21.29378,-1.06589 31.31129,2.33544 5.44858,1.84976 10.44634,5.15709 12.97376,10.49695 0.7409,1.56515 1.36817,3.41961 1.37288,5.17014 1.37917,-0.46844 2.70597,-1.25702 4.03171,-1.86387 2.72953,-1.2497 5.47269,-2.46808 8.22053,-3.67915 8.07024,-3.55642 16.26092,-6.85644 24.45212,-10.12407 3.1065,-1.23927 6.24603,-2.42735 9.32009,-3.74548 0.74245,-0.31856 1.50117,-0.60319 2.25146,-0.90243 0.1948,-0.0778 0.66237,-0.1786 0.75191,-0.3875 0.14606,-0.3405 -0.2037,-1.18599 -0.28065,-1.54478 -0.30004,-1.39802 -0.62781,-2.79134 -0.97547,-4.17789 -1.4153,-5.64799 -3.1039,-11.22861 -5.21296,-16.65933 -9.49235,-24.44067 -26.68894,-45.41389 -48.52779,-59.93536 -20.50731,-13.636 -45.18824,-20.95905 -69.79588,-20.95905 -1.77448,0 -3.5678,-0.0754 -5.34071,0.002 -22.83211,0.99704 -45.42597,8.29006 -64.559891,20.74868 -14.278835,9.29744 -26.521495,21.56362 -36.040963,35.6508 -10.538122,15.5945 -17.306804,33.59285 -20.050818,52.17141 -1.131161,7.6586 -1.685219,15.43992 -1.345083,23.1873 0.679207,15.470716 4.218927,30.871472 10.30501,45.121211 4.795134,11.227042 11.332068,21.706762 19.167429,31.073067 3.159083,3.776293 6.501901,7.516023 10.162028,10.819177 2.875457,2.59499 5.711479,5.195719 8.744121,7.615772 0.760734,0.6068297 1.524875,1.211583 2.303837,1.7949261 0.209851,0.1571916 0.611249,0.5932584 0.885249,0.5901212 0.292902,-0.00382 0.609211,-0.7619374 0.76011,-0.9750094 0.694082,-0.9807642 1.37162,-1.9730099 2.106234,-2.9245319 1.902763,-2.462865 3.920194,-4.827548 6.04444,-7.102407 0.80529,-0.862217 1.623155,-1.723902 2.456203,-2.558962 0.485381,-0.486199 1.069715,-0.953081 1.466084,-1.514479 m 189.43851,-97.188055 c -1.37133,0.51597 -2.88087,0.77918 -4.29354,1.17085 -2.91697,0.80895 -5.83762,1.60744 -8.74412,2.45451 -7.87547,2.29523 -15.69123,4.75444 -23.45727,7.39382 -3.21124,1.09148 -6.38741,2.27277 -9.58189,3.41072 -0.96602,0.34416 -1.91952,0.71965 -2.87981,1.0779 -0.37228,0.13891 -0.9875,0.24493 -1.28228,0.51545 -0.18118,0.16606 -0.12045,0.46897 -0.14661,0.68831 -0.0759,0.64287 -0.12463,1.28888 -0.19687,1.93227 -0.25395,2.255013 -0.66917,4.489663 -1.24775,6.68462 -0.67334,2.553215 -1.72107,5.005639 -2.7887,7.415752 -1.70482,3.84889 -3.59293,7.601155 -5.64021,11.280311 -10.21596,18.360269 -24.7668,34.327645 -40.58633,48.031128 -7.81891,6.773407 -15.98394,13.302407 -24.55685,19.1107201 -5.43077,3.679157 -11.18409,6.9979655 -16.8599,10.2838762 -4.67156,2.7041401 -9.4112,5.2772006 -14.24193,7.685757 -1.36765,0.682029 -2.74733,1.3452657 -4.13644,1.9813667 -0.45501,0.208378 -1.39226,0.437098 -1.67553,0.851761 1.39225,0.318566 2.75571,0.820963 4.13645,1.193325 2.90126,0.782829 5.83866,1.438226 8.79648,1.97039 7.54926,1.357286 15.17235,1.901976 22.82895,1.901976 4.12493,0 8.25352,-0.08304 12.35697,-0.478887 29.56716,-2.854024 58.17667,-16.39665361 78.74735,-37.853264 11.6789,-12.182205 21.00159,-26.389124 27.18741,-42.092249 5.35223,-13.585983 8.21947,-28.042528 8.57709,-42.614483 0.0816,-3.3094 0.0943,-6.61412 -0.0507,-9.92249 -0.045,-1.02411 -0.0236,-2.06231 -0.144,-3.0812 -0.0397,-0.33266 0.0299,-0.68152 -0.11989,-0.99224 M 110.7672,-34.183408 c 1.04772,-0.714415 1.93836,-1.753136 2.8798,-2.602302 1.79647,-1.620499 3.6165,-3.21436 5.44543,-4.798825 5.35748,-4.640594 10.92178,-9.060806 16.59812,-13.306582 18.50664,-13.843968 38.19767,-26.036623 58.27669,-37.461593 6.92251,-3.939223 14.01572,-7.574517 20.94401,-11.49702 1.51842,-0.8596 3.08714,-1.62937 4.60767,-2.4848 0.41888,-0.23553 1.35193,-0.51127 1.60064,-0.9301 0.14034,-0.23657 0.0691,-0.60475 0.0754,-0.86744 0.014,-0.57497 0.0753,-1.14475 0.0498,-1.72338 -0.0577,-1.31342 -0.24505,-2.70519 -0.91054,-3.86455 -0.71891,-1.25336 -1.95252,-2.08424 -3.17145,-2.80963 -2.98138,-1.77456 -6.33871,-2.43988 -9.73896,-2.84566 -3.9448,-0.47054 -7.99013,-0.20837 -11.93808,0.0626 -10.1348,0.69615 -20.023,3.12768 -29.63577,6.32377 -8.18125,2.7198 -15.96771,6.44283 -23.61435,10.37891 -2.10907,1.08574 -4.17205,2.26128 -6.23085,3.438404 -0.61365,0.350946 -1.2226,0.708675 -1.8326,1.065887 -0.2707,0.158758 -0.64821,0.299759 -0.85346,0.542607 -0.37175,0.439196 -0.56497,1.227253 -0.79169,1.755754 -0.52203,1.216293 -1.04353,2.432578 -1.54933,3.655655 -1.6928,4.090677 -3.3657,8.188146 -4.9433,12.32478 -3.70133,9.70367 -7.10683,19.512322 -10.27514,29.401908 -1.72735,5.393654 -3.26307,10.848938 -4.99199,16.241548 m 108.12337,-63.033839 c -4.20976,2.238831 -8.50118,4.303748 -12.67113,6.625091 -8.93524,4.974304 -17.58458,10.494338 -25.97056,16.338692 -12.77689,8.904652 -25.0705,18.489776 -37.12325,28.341768 -7.06231,5.773323 -14.03457,11.665192 -21.15343,17.368536 -4.33541,3.473397 -8.51793,7.220961 -12.30932,11.280303 -2.73319,2.926616 -5.39151,5.905975 -7.62257,9.2435917 -1.28858,1.9275702 -2.557264,4.0770973 -3.043166,6.3712827 -0.156035,0.73635191 0.196349,1.38078871 0.482232,2.0367206 0.0969,0.2214299 0.18116,0.5765499 0.4037,0.7013629 0.792734,0.4444169 2.055134,0.407344 2.925354,0.3478076 2.38029,-0.1634582 4.68098,-1.0716265 6.85917,-1.99702969 8.11475,-3.44728511 15.85356,-7.69829011 23.19547,-12.57806981 25.52812,-16.966413 51.11384,-34.580399 70.27812,-58.856038 4.60088,-5.827638 8.65563,-11.99681 12.33812,-18.434941 0.91786,-1.604319 1.75824,-3.25719 2.58658,-4.909029 0.22672,-0.452775 0.90896,-1.375568 0.82468,-1.880048 z"
       id="path3338" /></g></svg>
