<?xml version="1.0" encoding="UTF-8" standalone="no"?>
<!-- Created with Inkscape (http://www.inkscape.org/) -->

<svg
   width="1206"
   height="2048"
   viewBox="0 0 319.08749 541.86665"
   version="1.1"
   id="svg8"
   inkscape:version="1.2.2 (732a01da63, 2022-12-09)"
   sodipodi:docname="Q5495935.svg"
   xml:space="preserve"
   xmlns:inkscape="http://www.inkscape.org/namespaces/inkscape"
   xmlns:sodipodi="http://sodipodi.sourceforge.net/DTD/sodipodi-0.dtd"
   xmlns="http://www.w3.org/2000/svg"
   xmlns:svg="http://www.w3.org/2000/svg"
   xmlns:rdf="http://www.w3.org/1999/02/22-rdf-syntax-ns#"
   xmlns:cc="http://creativecommons.org/ns#"
   xmlns:dc="http://purl.org/dc/elements/1.1/"><defs
     id="defs2"><style
       id="style14746">.cls-1{fill:#f0c43f;}.cls-2{fill:#fff;}.cls-3{fill:#ef373e;}</style><clipPath
       id="1"><path
         id=""
         clip-rule="evenodd"
         transform="matrix(1 0 0 1 0 0)"
         d="M0 1437L0 -0.6291504L0 -0.6291504L1493.25 -0.6291504L1493.25 -0.6291504L1493.25 1437L1493.25 1437L0 1437z" /></clipPath><clipPath
       id="2"><path
         id="path47444"
         clip-rule="evenodd"
         transform="matrix(1 0 0 1 0 0)"
         d="M0 -0.6291504L1494 -0.6291504L1494 -0.6291504L1494 1437.3708L1494 1437.3708L0 1437.3708z" /></clipPath></defs><sodipodi:namedview
     id="base"
     pagecolor="#ffffff"
     bordercolor="#666666"
     borderopacity="1.0"
     inkscape:pageopacity="0.0"
     inkscape:pageshadow="2"
     inkscape:zoom="0.36"
     inkscape:cx="602.77778"
     inkscape:cy="1000"
     inkscape:document-units="mm"
     inkscape:current-layer="layer1"
     showgrid="false"
     units="px"
     inkscape:measure-start="0,0"
     inkscape:measure-end="0,0"
     inkscape:window-width="1920"
     inkscape:window-height="986"
     inkscape:window-x="-11"
     inkscape:window-y="-11"
     inkscape:window-maximized="1"
     inkscape:showpageshadow="2"
     inkscape:pagecheckerboard="0"
     inkscape:deskcolor="#d1d1d1" /><metadata
     id="metadata5"><rdf:RDF><cc:Work
         rdf:about=""><dc:format>image/svg+xml</dc:format><dc:type
           rdf:resource="http://purl.org/dc/dcmitype/StillImage" /></cc:Work></rdf:RDF></metadata><g
     inkscape:label="Ebene 1"
     inkscape:groupmode="layer"
     id="layer1"
     transform="translate(0,244.86641)"><path
       style="fill:#ffffff;fill-opacity:1;stroke-width:0.789747"
       d="M 99.119759,150.28935 C 65.983956,89.554783 38.998268,39.729325 39.151562,39.566083 c 0.153297,-0.163242 27.296483,10.383029 60.318191,23.43619 l 60.039477,23.73297 60.20607,-23.904286 c 33.11334,-13.147375 60.32391,-23.812717 60.46794,-23.700812 0.19748,0.153432 -119.82409,220.384645 -120.6496,221.383605 -0.0918,0.11114 -27.27808,-49.48985 -60.413881,-110.2244 z"
       id="path3304"
       inkscape:label="Inner Point"
       transform="translate(0)" /><path
       style="fill:#1a1a1a;fill-opacity:1;stroke-width:0.26458332"
       d="M 1.0262235,4.2861323 159.71639,67.502734 318.51546,4.2848623 159.77151,296.58252 Z M 276.6553,40.689706 159.77129,87.310846 43.250557,40.917226 159.78028,255.85044 Z"
       id="path1447"
       inkscape:connector-curvature="0"
       sodipodi:nodetypes="cccccccccc"
       inkscape:label="Outer Point" /><path
       style="display:inline;fill:#c7b087;fill-opacity:1;stroke-width:0.447868"
       d="M 149.30917,3.9130256 C 116.46974,0.60648387 86.82739,-15.794059 67.297626,-41.46214 44.895485,-70.905286 38.373125,-108.58242 49.675931,-143.25572 c 11.532121,-35.37678 39.480584,-62.74429 75.673039,-74.09961 11.70825,-3.67335 21.45374,-5.11322 34.588,-5.11046 13.7661,0.002 23.22289,1.4595 35.77161,5.51182 35.26817,11.38712 62.51611,38.12688 74.16454,72.78137 4.05022,12.04969 5.59474,21.71419 5.59474,35.00802 0,13.293876 -1.54455,22.958621 -5.59474,35.008042 -13.91921,41.410196 -49.9957,71.0725412 -94.19628,77.4487296 -5.70126,0.8237289 -20.82865,1.1775422 -26.36767,0.6219338 z"
       id="path2100"
       inkscape:label="Inner Circle" /><path
       style="display:inline;fill:#c7b087;fill-opacity:1;stroke-width:0.264583"
       d="M 151.20123,26.1654 C 125.27629,24.601951 99.92019,15.319212 78.88626,-0.30871156 69.470801,-7.3042707 59.779109,-16.790242 52.57333,-26.063109 38.314001,-44.412949 28.928442,-66.502672 25.649432,-89.430814 c -1.08353,-7.576463 -1.320236,-11.086846 -1.320236,-19.579166 0,-4.43839 0.148063,-9.6176 0.32903,-11.50937 3.098985,-32.39596 16.047891,-60.54606 38.261619,-83.17831 23.075476,-23.51023 52.116925,-37.21902 85.342255,-40.28514 4.60498,-0.42496 18.14917,-0.42496 22.75416,0 26.03849,2.4029 49.24523,11.24615 69.80113,26.59869 16.4265,12.26842 30.1993,28.66009 39.59439,47.12309 18.67654,36.70273 19.51191,80.226839 2.26232,117.871871 -8.88068,19.381045 -22.93136,37.050949 -40.08805,50.4141949 C 216.81315,18.099395 184.16357,28.153268 151.20123,26.1654 Z m 19.81503,-27.3657097 c 20.09063,-2.211996 38.30728,-9.4704293 54.34341,-21.6531653 13.00387,-9.879121 23.90542,-23.06571 31.33211,-37.8996 15.08308,-30.12659 15.08308,-66.387225 0,-96.513805 -5.94188,-11.86815 -14.39196,-23.08524 -23.8329,-31.63701 -14.65561,-13.27535 -31.54597,-22.01533 -50.43995,-26.10033 -26.13401,-5.65034 -54.31271,-1.18384 -77.25499,12.24542 -24.128353,14.12352 -41.910948,36.88895 -49.668729,63.58632 -7.54717,25.97259 -5.004612,54.175786 7.063078,78.346819 5.513308,11.042906 11.817162,19.77691 20.60485,28.548077 18.609081,18.57409 42.660321,29.4977833 69.317201,31.48277467 4.22501,0.31461338 13.92222,0.10247312 18.53592,-0.40550037 z"
       id="path6"
       inkscape:connector-curvature="0"
       sodipodi:nodetypes="ssssssssssscsssssscsssssss"
       inkscape:label="Outer Circle" /><path
       style="fill:#000000;stroke-width:0.437897"
       d="m 73.317106,-57.190252 c -0.238662,-0.08098 -0.968457,-0.267376 -1.621757,-0.414034 -1.63196,-0.366304 -2.721025,-2.100777 -2.082239,-3.316243 0.675246,-1.284895 2.038941,-1.13578 3.770287,0.41227 2.791171,2.495671 5.904072,1.410322 7.125769,-2.484481 0.370474,-1.181067 0.593359,-6.657252 0.717249,-17.621949 0.214274,-18.962637 0.17501,-19.219077 -3.038787,-19.851201 -1.139827,-0.22419 -2.014782,-0.58366 -1.944358,-0.79883 0.196201,-0.59938 12.478567,-0.67092 12.478501,-0.0727 -3.2e-5,0.26864 -0.632194,0.67307 -1.404826,0.89873 -2.417106,0.705954 -2.487202,1.182818 -2.494222,16.969278 -0.0066,15.860886 -0.255718,17.914875 -2.618619,21.631072 -1.521435,2.392775 -3.433057,3.775811 -6.066439,4.388994 -2.070805,0.482179 -2.144067,0.488912 -2.820559,0.259097 z m 25.168095,-9.160604 c -3.714426,-1.34111 -5.846554,-4.792091 -5.853853,-9.474797 -0.0066,-3.853699 1.989378,-7.765762 4.893614,-9.594281 3.723018,-2.344036 8.483388,-1.661521 10.836538,1.553676 0.89949,1.228995 1.68846,4.551999 1.31567,5.541311 -0.16772,0.44507 -1.71962,0.584208 -6.57361,0.589368 -3.494753,0.0037 -6.61323,0.174087 -6.929975,0.378578 -0.453067,0.292501 -0.476388,0.748073 -0.109392,2.135981 0.704734,2.665211 2.213541,4.659678 4.360697,5.764294 3.00099,1.543892 5.35793,1.279056 7.66956,-0.861769 1.67765,-1.553699 1.53918,-0.0376 -0.16253,1.779266 -2.33857,2.49679 -6.14825,3.37931 -9.446719,2.188373 z m 7.507949,-14.533993 c 0.0979,-1.192437 -0.1476,-1.93321 -0.97159,-2.930369 -2.53156,-3.063845 -6.788353,-1.541518 -8.696925,3.110214 l -0.683233,1.665207 5.110328,-0.124595 5.11033,-0.124597 z m 15.73396,8.997679 c -3.98098,-10.389383 -5.01664,-12.452582 -6.51837,-12.9857 -2.41289,-0.856581 -1.36672,-1.265556 3.23738,-1.265556 4.33036,0 5.83402,0.461401 3.47145,1.065252 -0.59665,0.152486 -1.08899,0.522062 -1.09408,0.82124 -0.0132,0.794734 4.51511,12.241199 4.84586,12.248284 0.15416,0.0036 1.19376,-2.3186 2.31024,-5.159778 2.26452,-5.762708 2.23564,-6.849471 -0.20509,-7.71594 -2.39465,-0.8501 -1.3372,-1.259058 3.25566,-1.259058 4.41673,0 5.91693,0.509235 3.25451,1.104736 -0.80957,0.181079 -1.30363,0.570312 -1.30663,1.029392 -0.006,0.983046 4.39926,12.00664 4.79855,12.00664 0.17173,0 0.4165,-0.347994 0.54392,-0.773315 0.12744,-0.425331 1.02892,-2.860791 2.00333,-5.412124 2.09525,-5.486231 2.19672,-6.50415 0.68678,-6.890077 -2.20506,-0.5636 -0.97895,-1.065252 2.6036,-1.065252 3.76242,0 4.51998,0.356098 2.62654,1.23464 -1.55818,0.722985 -2.21445,1.963788 -5.73056,10.834804 -1.75202,4.420337 -3.3937,8.036982 -3.64813,8.036982 -0.25443,0 -1.61695,-2.868419 -3.02779,-6.374259 -1.41084,-3.505841 -2.73893,-6.551203 -2.9513,-6.76747 -0.32337,-0.329322 -3.75861,7.429104 -5.37858,12.147455 -0.22947,0.668368 -0.64938,1.215213 -0.93314,1.215213 -0.28375,0 -1.56362,-2.734251 -2.84415,-6.076109 z m 34.47117,5.238335 c -6.07885,-2.866095 -7.25565,-11.628745 -2.29735,-17.106608 3.38503,-3.739746 8.68903,-4.155335 11.96074,-0.937133 1.4412,1.417642 2.43061,4.027601 2.18704,5.769242 -0.12973,0.927157 -0.36463,0.96761 -6.86022,1.180994 l -6.72596,0.220949 0.0358,1.854922 c 0.10856,5.627288 7.65998,9.368204 11.44883,5.671637 1.62802,-1.588404 2.08434,-0.707239 0.57788,1.115941 -2.39008,2.892613 -6.86973,3.85998 -10.32676,2.230056 z m 7.95524,-13.155366 c 0.87157,-1.586027 -0.69733,-4.761208 -2.68221,-5.428307 -2.35367,-0.791044 -5.14935,0.730849 -6.61606,3.601611 -1.24855,2.44372 -1.056,2.562857 4.14202,2.562857 3.98289,0 4.81715,-0.119083 5.15625,-0.736161 z m 29.79691,13.155366 c -6.24464,-2.944237 -7.29284,-11.971786 -2.01306,-17.337275 1.62247,-1.648826 2.49392,-2.154721 4.4915,-2.607454 2.1701,-0.491815 2.72093,-0.467398 4.42757,0.196345 2.62313,1.020174 4.455,3.216567 4.83499,5.797117 0.16527,1.122222 0.1253,2.218731 -0.0887,2.436698 -0.21403,0.217957 -3.31391,0.451577 -6.88861,0.519152 l -6.49946,0.122925 0.0357,1.854921 c 0.0487,2.528559 1.8627,5.253564 4.22378,6.345202 2.98701,1.381049 5.27962,1.076988 7.51933,-0.997228 1.41851,-1.313689 1.638,-0.199539 0.28359,1.439605 -2.39007,2.892622 -6.86971,3.85998 -10.32674,2.230064 z m 7.97119,-13.195367 c 0.27172,-0.517038 0.20656,-1.365313 -0.19517,-2.540914 -0.33169,-0.970621 -0.60601,-1.791827 -0.60959,-1.824896 -0.003,-0.03307 -0.69743,-0.393977 -1.54184,-0.802034 -1.2372,-0.597871 -1.81306,-0.64856 -2.96595,-0.261081 -2.11857,0.712011 -4.61134,3.692318 -4.61134,5.513185 0,0.585861 0.72916,0.691902 4.75799,0.691902 4.09394,0 4.81493,-0.108391 5.1659,-0.776162 z m 30.1585,13.39664 c -1.69628,-0.751741 -1.77776,-0.892316 -2.14315,-3.697407 -0.23912,-1.83567 -0.17498,-2.294577 0.32073,-2.294577 0.34079,0 0.86327,0.686154 1.16105,1.524778 1.14813,3.233367 4.80275,4.803027 6.98774,3.001247 1.07061,-0.882836 1.29711,-2.925483 0.49389,-4.453876 -0.28763,-0.547315 -1.85663,-1.865667 -3.48667,-2.929667 -3.67298,-2.397564 -4.36203,-3.36317 -4.36203,-6.112794 0,-1.767805 0.21692,-2.366077 1.23322,-3.401032 0.67828,-0.690733 2.05575,-1.481425 3.06106,-1.757088 1.79288,-0.49163 5.00296,-0.273556 6.09557,0.414103 0.63266,0.398202 1.20345,4.443137 0.62337,4.417668 -0.21003,-0.01001 -0.89644,-0.775225 -1.52536,-1.702204 -1.86642,-2.751039 -5.45198,-2.775105 -6.38729,-0.04292 -0.62847,1.836 0.20884,3.034981 3.85359,5.518007 3.73411,2.543887 4.92174,4.350718 4.60334,7.003349 -0.48949,4.078108 -6.09157,6.478961 -10.52906,4.512369 z m -58.573,-0.327233 c -0.2271,-0.374105 0.16187,-0.603847 1.62386,-0.958881 0.68479,-0.166351 1.24664,-0.676918 1.40434,-1.276309 0.46811,-1.778986 0.30914,-29.494326 -0.17445,-30.414481 -0.28904,-0.55001 -0.90789,-0.854754 -1.73572,-0.854754 -0.85429,0 -1.28653,-0.2227 -1.28653,-0.66286 0,-0.53395 0.67501,-0.66284 3.47145,-0.66284 h 3.47147 v 16.482859 c 0,17.451587 0.0101,17.543411 2.03948,17.543411 0.54892,0 0.99803,0.256242 0.99803,0.569413 0,0.43144 -1.16669,0.565282 -4.81462,0.552376 -2.64805,-0.01001 -4.89684,-0.152487 -4.99731,-0.317934 z m 37.71648,-0.05992 c -0.26534,-0.435678 -0.24932,-0.447156 1.38594,-0.992881 l 1.30179,-0.434468 0.11793,-8.505396 0.11791,-8.505411 -1.31119,-0.267061 c -1.55276,-0.316247 -1.75249,-1.040384 -0.28693,-1.040384 0.56334,0 1.93023,-0.126431 3.03751,-0.281006 l 2.01329,-0.281023 v 1.606722 c 0,1.812787 0.38306,2.000881 1.50463,0.7388 1.23031,-1.384439 4.28755,-2.410641 5.39064,-1.809447 1.10441,0.601913 1.207,2.317397 0.19992,3.342948 -0.7325,0.745949 -1.06526,0.719158 -3.51618,-0.283027 -1.29001,-0.527474 -1.49503,-0.491765 -2.38664,0.41584 -0.92742,0.944048 -0.97542,1.330109 -0.97542,7.846144 0,7.451826 0.0756,7.685246 2.49512,7.698975 0.70287,0.0036 1.19332,0.249336 1.19332,0.597004 0,0.460615 -1.10478,0.581922 -5.03092,0.552377 -2.76699,-0.02087 -5.12978,-0.200243 -5.25063,-0.398706 z m 10.32262,-36.522335 c -1.26255,-0.31025 -2.01356,-1.40113 -1.64251,-2.38583 0.34099,-0.90492 1.7528,-0.93926 2.4693,-0.0601 0.29711,0.36457 1.18239,0.66284 1.96727,0.66284 2.52122,0 4.94185,-4.09701 4.34259,-7.35001 -0.2935,-1.59315 -4.46815,-12.35406 -5.93181,-15.29026 -0.50535,-1.01375 -1.23884,-1.75645 -1.9021,-1.92598 -0.59374,-0.15181 -1.07954,-0.55265 -1.07954,-0.89085 0,-0.48659 0.95856,-0.61495 4.59246,-0.61495 3.481,0 4.54874,0.13361 4.41184,0.55238 -0.0994,0.30381 -0.55496,0.62138 -1.0125,0.70572 -0.45755,0.0844 -0.99516,0.31026 -1.19468,0.50202 -0.3169,0.30454 3.43271,10.72697 4.42833,12.30898 0.25759,0.40926 0.85259,-0.57789 1.93407,-3.20881 3.34659,-8.14135 3.54983,-9.53459 1.39085,-9.53459 -0.68713,0 -1.09844,-0.24822 -1.09844,-0.66286 0,-0.53976 0.72035,-0.66284 3.87978,-0.66284 2.13387,0 3.99015,0.18189 4.12507,0.40418 0.13498,0.2223 -0.48623,0.76915 -1.38034,1.21523 -1.96023,0.97797 -2.7665,2.50183 -7.09266,13.40517 -4.00591,10.09619 -4.18468,10.45807 -5.71468,11.56752 -1.48077,1.07376 -3.95087,1.64177 -5.4923,1.26299 z m -129.702478,-7.60712 c -2.443001,-0.55475 -5.45645,-3.45702 -6.111801,-5.88629 -2.021622,-7.49388 2.494056,-14.76266 9.190606,-14.79393 2.423239,-0.0117 5.059342,1.20429 6.091973,2.80922 0.87648,1.36221 1.67594,4.84298 1.32579,5.77222 -0.21942,0.58231 -1.28796,0.68875 -6.913445,0.68875 -3.659664,0 -6.759724,0.1743 -6.88901,0.38738 -0.427679,0.70467 1.009901,4.67333 2.139214,5.90565 1.874048,2.04498 3.787917,2.75204 7.015458,2.59178 0.518686,-0.0258 1.552105,-0.5687 2.296479,-1.20656 0.744374,-0.63785 1.486424,-1.02429 1.648984,-0.85875 0.60793,0.6191 -1.05674,2.66608 -2.938891,3.61384 -2.446545,1.23193 -4.464935,1.51949 -6.855357,0.97669 z m 5.882079,-13.01426 c 1.180483,-0.32215 1.323774,-2.17448 0.32096,-4.14931 -1.132642,-2.2305 -3.408277,-2.82555 -5.862709,-1.53301 -1.529177,0.80529 -3.462349,3.57391 -3.462349,4.95867 0,0.96983 0.129564,1.00199 4.013869,0.99615 2.207636,-0.003 4.45324,-0.12594 4.990229,-0.2725 z m 17.682759,13.12116 c -5.68481,-1.40436 -8.57491,-7.32155 -6.50047,-13.30909 0.958,-2.76512 2.39855,-4.46476 5.03801,-5.94412 1.9994,-1.12063 2.85413,-1.32025 6.01876,-1.40562 l 3.68843,-0.0996 0.12399,-6.09536 c 0.1176,-5.77809 0.0754,-6.13562 -0.80747,-6.8687 -0.51227,-0.42532 -1.30031,-0.77332 -1.75121,-0.77332 -0.45088,0 -0.81978,-0.19885 -0.81978,-0.44189 0,-0.24305 0.82988,-0.4441 1.84422,-0.44677 1.01431,-0.003 2.5741,-0.12776 3.46619,-0.2779 l 1.62197,-0.27303 0.11382,16.73443 0.11381,16.73438 1.266,0.22519 c 1.56178,0.27782 2.0457,1.32835 0.61439,1.33378 -0.55688,0.002 -2.03768,0.12928 -3.29066,0.28251 -2.10928,0.25802 -2.27815,0.21017 -2.27815,-0.64553 0,-0.92035 -0.008,-0.91983 -2.06118,0.12342 -2.38906,1.21415 -4.55673,1.60269 -6.40051,1.1472 z m 6.86297,-2.74509 c 0.52131,-0.27944 1.0913,-0.72686 1.26663,-0.99427 0.17534,-0.26744 0.32179,-3.21734 0.32546,-6.55538 0.007,-6.00083 -0.006,-6.08445 -1.18669,-7.4291 -2.41964,-2.75754 -6.85979,-2.033 -9.15131,1.49328 -0.99493,1.53106 -1.15459,2.23948 -1.15459,5.12325 0,2.84203 0.17706,3.65323 1.17451,5.38108 0.67704,1.17279 1.7798,2.33835 2.60358,2.7518 1.67164,0.83899 4.76863,0.95499 6.12241,0.22934 z m 82.17651,2.52767 c -2.54576,-0.69592 -4.80045,-2.8087 -5.77742,-5.41379 -0.93279,-2.48733 -0.64066,-7.18813 0.59918,-9.64188 2.48196,-4.91197 7.84506,-6.89027 12.2494,-4.51844 2.30205,1.23972 3.47695,3.32413 3.47695,6.16867 v 2.10593 h -6.70035 c -3.68519,0 -6.80615,0.1743 -6.93545,0.38738 -0.53295,0.87817 1.12915,4.94943 2.62435,6.42819 2.59484,2.56636 7.09111,2.91084 9.06095,0.69425 0.90079,-1.01366 1.51656,-1.13755 1.51656,-0.30516 0,0.78344 -2.56819,3.252 -3.9054,3.75388 -2.11181,0.7926 -4.14768,0.9044 -6.20877,0.34097 z m 5.7206,-12.90139 c 1.14784,-0.23379 1.35604,-0.47461 1.35604,-1.5686 0,-1.61722 -1.04731,-3.73013 -2.14563,-4.32872 -2.80104,-1.5266 -6.72331,0.90105 -7.83532,4.84958 l -0.37286,1.32392 h 3.82087 c 2.10147,0 4.43106,-0.12427 5.1769,-0.27618 z m 41.23668,13.09763 c -3.4206,-0.62901 -5.97486,-3.13278 -6.94946,-6.81208 -1.1,-4.15266 0.92751,-9.97063 4.32122,-12.39979 1.67117,-1.19621 2.21897,-1.34283 5.01707,-1.34283 2.75289,0 3.33337,0.14931 4.6973,1.20764 1.73797,1.34866 3.08703,4.3424 2.86192,6.351 l -0.14334,1.27936 -6.83445,0.12176 -6.83443,0.12174 v 1.10773 c 0,1.48849 1.12558,4.14415 2.29885,5.42382 1.4524,1.58406 3.17689,2.33027 5.5105,2.38439 1.68648,0.039 2.43234,-0.1984 3.6897,-1.17504 1.85731,-1.44265 2.47442,-1.17794 1.23447,0.52951 -1.76078,2.42466 -5.58718,3.80643 -8.8693,3.2029 z m 5.10987,-13.09198 c 1.23945,-0.33852 1.48131,-1.08781 0.96537,-2.99065 -0.53276,-1.96496 -2.25059,-3.36732 -4.12478,-3.36732 -2.25478,0 -5.81468,3.63891 -5.81468,5.94371 0,0.56954 0.67556,0.68379 4.01387,0.67876 2.20764,-0.003 4.43973,-0.12243 4.96022,-0.2645 z m -86.82093,12.0024 c -0.14679,-0.59579 -2.38294,-5.7163 -4.96911,-11.37894 -2.58613,-5.66261 -5.26977,-11.58823 -5.96359,-13.168 l -1.26151,-2.87236 -0.28323,3.53519 c -0.15579,1.94437 -0.40977,7.41287 -0.5645,12.15224 -0.3004,9.20218 -0.0682,10.67471 1.7265,10.95031 2.04323,0.31375 2.80965,0.58363 2.80965,0.98939 0,0.26197 -2.31783,0.43348 -5.85808,0.43348 -3.22195,0 -5.8581,-0.17758 -5.8581,-0.39462 0,-0.46761 1.06418,-0.93108 2.1379,-0.93108 1.76975,0 2.22363,-1.38472 2.84426,-8.67789 0.32809,-3.85524 0.73552,-10.24424 0.90541,-14.19776 0.34759,-8.08867 0.20119,-8.59143 -2.66144,-9.13831 -2.89654,-0.55338 -1.47375,-1.12849 2.79179,-1.12849 h 4.2822 l 0.23146,1.75737 c 0.23655,1.79592 3.45878,9.08927 8.88765,20.11665 l 3.04571,6.18659 6.10135,-12.46288 c 3.35574,-6.8546 6.23129,-13.16823 6.39011,-14.03032 l 0.28875,-1.56741 h 4.29102 c 4.38484,0 5.68329,0.56657 2.53845,1.10765 -3.19139,0.54908 -3.19926,0.59279 -2.87601,15.97986 0.31588,15.03634 0.43282,15.69205 2.86303,16.05494 0.81379,0.1216 1.56024,0.46954 1.65875,0.77333 0.13777,0.42498 -1.28024,0.55237 -6.14904,0.55237 -3.84757,0 -6.32819,-0.16991 -6.32819,-0.43348 0,-0.23841 0.537,-0.54853 1.19332,-0.68917 1.82093,-0.39016 2.42423,-0.83378 2.73303,-2.00959 0.15548,-0.59185 0.16548,-6.34344 0.0223,-12.78127 l -0.26026,-11.7052 -6.61748,13.43758 c -3.6396,7.39069 -6.61747,13.70432 -6.61747,14.03032 0,1.03567 -1.19664,0.63765 -1.47468,-0.4905 z m -131.308766,0.20785 c 0,-0.23841 0.536989,-0.55046 1.193325,-0.69343 2.367936,-0.51584 3.020353,-0.99517 3.301246,-2.4254 0.153346,-0.78049 0.275809,-7.31012 0.272299,-14.51034 -0.0066,-14.67736 -0.07003,-15.03996 -2.726307,-15.71256 -3.771106,-0.95491 -1.053869,-1.28511 10.862436,-1.32003 l 12.203185,-0.0357 0.151542,3.31425 c 0.08332,1.82282 0.0066,3.49617 -0.170764,3.71852 -0.177306,0.22235 -0.694484,-0.47365 -1.149272,-1.54664 -1.474612,-3.47922 -1.960594,-3.69726 -8.633871,-3.87373 -4.585415,-0.12126 -5.950109,-0.0246 -6.240399,0.44189 -0.420512,0.67576 -0.526575,12.74283 -0.121529,13.81794 0.21844,0.57968 1.090886,0.699 5.110643,0.699 5.54111,0 6.570428,-0.42278 7.02402,-2.88504 0.161382,-0.87613 0.541007,-1.53396 0.88519,-1.53396 0.480718,0 0.602609,1.07268 0.602609,5.30279 0,4.23013 -0.121858,5.3028 -0.602609,5.3028 -0.344183,0 -0.723792,-0.65782 -0.88519,-1.53394 -0.453592,-2.46227 -1.48291,-2.88505 -7.02402,-2.88505 -4.019757,0 -4.892203,0.11924 -5.110643,0.69898 -0.384414,1.02018 -0.28624,9.80816 0.134321,12.02314 0.445425,2.34597 0.508731,2.40914 2.721041,2.71574 0.990466,0.13728 1.881822,0.49813 1.9808,0.80194 0.138913,0.4266 -1.409157,0.55238 -6.799118,0.55238 -4.273064,0 -6.979082,-0.16808 -6.979082,-0.43349 z m 28.205636,0.004 c 0,-0.2361 0.634622,-0.59674 1.410289,-0.80142 l 1.410272,-0.37214 v -8.56902 -8.56902 l -1.052657,-0.25307 c -0.578974,-0.13913 -1.132232,-0.49612 -1.229487,-0.79323 -0.128253,-0.39175 0.667783,-0.54019 2.896888,-0.54019 h 3.073687 v 1.3257 c 0,0.72915 0.146458,1.3221 0.325454,1.31767 0.178997,-0.005 1.184714,-0.60099 2.23496,-1.3257 2.848294,-1.96546 5.250376,-1.64284 5.250376,0.70517 0,1.37886 -1.060561,2.12052 -2.49263,1.74312 -0.657681,-0.17333 -1.87746,-0.34588 -2.710611,-0.38342 -1.365219,-0.0616 -1.566323,0.0845 -2.036676,1.47836 -0.619828,1.83689 -0.744194,11.40952 -0.168287,12.9521 0.284485,0.76196 0.857391,1.16524 1.952706,1.37449 3.173943,0.60637 1.462246,1.13989 -3.65709,1.13989 -3.080002,0 -5.207194,-0.17536 -5.207194,-0.42925 z m 200.47695,-0.004 c 0,-0.23841 0.49332,-0.55956 1.09626,-0.71369 0.60297,-0.15416 1.28641,-0.64194 1.51879,-1.0841 0.45544,-0.86666 0.59452,-14.91585 0.15908,-16.07141 -0.14482,-0.38446 -0.73068,-0.699 -1.3018,-0.699 -0.63374,0 -1.0384,-0.25831 -1.0384,-0.66283 0,-0.52608 0.62677,-0.66288 3.03752,-0.66288 h 3.03753 v 1.32571 c 0,1.60189 0.11514,1.6176 1.87318,0.25535 3.31449,-2.56829 7.0913,-1.50873 5.48914,1.53994 -0.40631,0.7731 -0.74596,0.89283 -1.86826,0.65858 -5.4405,-1.13558 -5.49648,-1.05707 -5.48741,7.69768 0.003,3.53082 0.15057,6.65 0.32644,6.9315 0.17589,0.2815 1.05163,0.65163 1.94606,0.8225 3.16511,0.60468 1.55959,1.09614 -3.58093,1.09614 -3.11476,0 -5.2072,-0.1742 -5.2072,-0.43349 z"
       id="path84279" /></g><style
     type="text/css"
     id="style40475">
	.st0{fill:#FFFFFF;}
	.st1{fill:#0166B1;}
</style></svg>
