<?xml version="1.0" encoding="UTF-8" standalone="no"?>
<!-- Created with Inkscape (http://www.inkscape.org/) -->

<svg
   width="1206"
   height="2048"
   viewBox="0 0 319.08749 541.86665"
   version="1.1"
   id="svg8"
   inkscape:version="1.2.2 (732a01da63, 2022-12-09)"
   sodipodi:docname="Q5665067.svg"
   xml:space="preserve"
   xmlns:inkscape="http://www.inkscape.org/namespaces/inkscape"
   xmlns:sodipodi="http://sodipodi.sourceforge.net/DTD/sodipodi-0.dtd"
   xmlns="http://www.w3.org/2000/svg"
   xmlns:svg="http://www.w3.org/2000/svg"
   xmlns:rdf="http://www.w3.org/1999/02/22-rdf-syntax-ns#"
   xmlns:cc="http://creativecommons.org/ns#"
   xmlns:dc="http://purl.org/dc/elements/1.1/"><defs
     id="defs2"><style
       id="style14746">.cls-1{fill:#f0c43f;}.cls-2{fill:#fff;}.cls-3{fill:#ef373e;}</style><clipPath
       id="1"><path
         id=""
         clip-rule="evenodd"
         transform="matrix(1 0 0 1 0 0)"
         d="M0 1437L0 -0.6291504L0 -0.6291504L1493.25 -0.6291504L1493.25 -0.6291504L1493.25 1437L1493.25 1437L0 1437z" /></clipPath><clipPath
       id="2"><path
         id="path47444"
         clip-rule="evenodd"
         transform="matrix(1 0 0 1 0 0)"
         d="M0 -0.6291504L1494 -0.6291504L1494 -0.6291504L1494 1437.3708L1494 1437.3708L0 1437.3708z" /></clipPath></defs><sodipodi:namedview
     id="base"
     pagecolor="#ffffff"
     bordercolor="#666666"
     borderopacity="1.0"
     inkscape:pageopacity="0.0"
     inkscape:pageshadow="2"
     inkscape:zoom="0.36"
     inkscape:cx="602.77778"
     inkscape:cy="1000"
     inkscape:document-units="mm"
     inkscape:current-layer="layer1"
     showgrid="false"
     units="px"
     inkscape:measure-start="0,0"
     inkscape:measure-end="0,0"
     inkscape:window-width="1920"
     inkscape:window-height="986"
     inkscape:window-x="-11"
     inkscape:window-y="-11"
     inkscape:window-maximized="1"
     inkscape:showpageshadow="2"
     inkscape:pagecheckerboard="0"
     inkscape:deskcolor="#d1d1d1" /><metadata
     id="metadata5"><rdf:RDF><cc:Work
         rdf:about=""><dc:format>image/svg+xml</dc:format><dc:type
           rdf:resource="http://purl.org/dc/dcmitype/StillImage" /></cc:Work></rdf:RDF></metadata><g
     inkscape:label="Ebene 1"
     inkscape:groupmode="layer"
     id="layer1"
     transform="translate(0,244.86641)"><path
       style="fill:#ffffff;fill-opacity:1;stroke-width:0.789747"
       d="M 99.119759,150.28935 C 65.983956,89.554783 38.998268,39.729325 39.151562,39.566083 c 0.153297,-0.163242 27.296483,10.383029 60.318191,23.43619 l 60.039477,23.73297 60.20607,-23.904286 c 33.11334,-13.147375 60.32391,-23.812717 60.46794,-23.700812 0.19748,0.153432 -119.82409,220.384645 -120.6496,221.383605 -0.0918,0.11114 -27.27808,-49.48985 -60.413881,-110.2244 z"
       id="path3304"
       inkscape:label="Inner Point"
       transform="translate(0)" /><path
       style="fill:#9e2a3f;fill-opacity:1;stroke-width:0.26458332"
       d="M 1.0262235,4.2861323 159.71639,67.502734 318.51546,4.2848623 159.77151,296.58252 Z M 276.6553,40.689706 159.77129,87.310846 43.250557,40.917226 159.78028,255.85044 Z"
       id="path1447"
       inkscape:connector-curvature="0"
       sodipodi:nodetypes="cccccccccc"
       inkscape:label="Outer Point" /><path
       style="display:inline;fill:#ebebeb;fill-opacity:1;stroke-width:0.447868"
       d="M 149.30917,3.9130256 C 116.46974,0.60648387 86.82739,-15.794059 67.297626,-41.46214 44.895485,-70.905286 38.373125,-108.58242 49.675931,-143.25572 c 11.532121,-35.37678 39.480584,-62.74429 75.673039,-74.09961 11.70825,-3.67335 21.45374,-5.11322 34.588,-5.11046 13.7661,0.002 23.22289,1.4595 35.77161,5.51182 35.26817,11.38712 62.51611,38.12688 74.16454,72.78137 4.05022,12.04969 5.59474,21.71419 5.59474,35.00802 0,13.293876 -1.54455,22.958621 -5.59474,35.008042 -13.91921,41.410196 -49.9957,71.0725412 -94.19628,77.4487296 -5.70126,0.8237289 -20.82865,1.1775422 -26.36767,0.6219338 z"
       id="path2100"
       inkscape:label="Inner Circle" /><path
       style="display:inline;fill:#ebebeb;fill-opacity:1;stroke-width:0.264583"
       d="M 151.20123,26.1654 C 125.27629,24.601951 99.92019,15.319212 78.88626,-0.30871156 69.470801,-7.3042707 59.779109,-16.790242 52.57333,-26.063109 38.314001,-44.412949 28.928442,-66.502672 25.649432,-89.430814 c -1.08353,-7.576463 -1.320236,-11.086846 -1.320236,-19.579166 0,-4.43839 0.148063,-9.6176 0.32903,-11.50937 3.098985,-32.39596 16.047891,-60.54606 38.261619,-83.17831 23.075476,-23.51023 52.116925,-37.21902 85.342255,-40.28514 4.60498,-0.42496 18.14917,-0.42496 22.75416,0 26.03849,2.4029 49.24523,11.24615 69.80113,26.59869 16.4265,12.26842 30.1993,28.66009 39.59439,47.12309 18.67654,36.70273 19.51191,80.226839 2.26232,117.871871 -8.88068,19.381045 -22.93136,37.050949 -40.08805,50.4141949 C 216.81315,18.099395 184.16357,28.153268 151.20123,26.1654 Z m 19.81503,-27.3657097 c 20.09063,-2.211996 38.30728,-9.4704293 54.34341,-21.6531653 13.00387,-9.879121 23.90542,-23.06571 31.33211,-37.8996 15.08308,-30.12659 15.08308,-66.387225 0,-96.513805 -5.94188,-11.86815 -14.39196,-23.08524 -23.8329,-31.63701 -14.65561,-13.27535 -31.54597,-22.01533 -50.43995,-26.10033 -26.13401,-5.65034 -54.31271,-1.18384 -77.25499,12.24542 -24.128353,14.12352 -41.910948,36.88895 -49.668729,63.58632 -7.54717,25.97259 -5.004612,54.175786 7.063078,78.346819 5.513308,11.042906 11.817162,19.77691 20.60485,28.548077 18.609081,18.57409 42.660321,29.4977833 69.317201,31.48277467 4.22501,0.31461338 13.92222,0.10247312 18.53592,-0.40550037 z"
       id="path6"
       inkscape:connector-curvature="0"
       sodipodi:nodetypes="ssssssssssscsssssscsssssss"
       inkscape:label="Outer Circle" /><path
       style="fill:#ed1b24;fill-opacity:1;stroke-width:0.286631"
       d="m 485.54523,-6.8747967 c -5.03399,-1.055829 -8.79732,-4.4980683 -10.10294,-9.2409613 -0.84014,-3.051973 -0.33519,-6.971013 1.27444,-9.891321 1.6146,-2.929342 5.21768,-5.603343 8.55207,-6.346853 4.48712,-1.000555 9.49979,0.421121 12.66224,3.591251 3.39821,3.40643 4.68556,8.077481 3.47011,12.590956 -0.63837,2.370546 -1.73441,4.154648 -3.62248,5.896517 -1.97421,1.8213623 -4.06824,2.8980513 -6.67613,3.4327053 -2.34402,0.48055 -3.13403,0.475958 -5.55731,-0.03229 z m 110.95394,-0.0912 c -4.2219,-1.350568 -7.5648,-4.6778273 -8.79487,-8.7537193 -0.63928,-2.118211 -0.5978,-5.74901 0.0901,-7.886717 0.98973,-3.075764 3.2425,-5.789133 6.16953,-7.430905 3.58419,-2.01039 8.22956,-2.159145 12.0875,-0.38707 3.73202,1.714231 6.32319,4.804506 7.26338,8.662444 1.53457,6.296885 -1.41188,12.409407 -7.28135,15.1054313 -2.00107,0.919157 -2.52922,1.036961 -5.0484,1.12603 -2.18995,0.07746 -3.18417,-0.01907 -4.48586,-0.435494 z m -64.0492,-22.1912653 c -26.84655,-3.128939 -50.64835,-18.08579 -65.00163,-40.846476 -0.68441,-1.085298 -2.12823,-3.685775 -3.20849,-5.778841 -4.84192,-9.381455 -7.66578,-18.712745 -8.87202,-29.317021 -1.44236,-12.68002 -4.45307,-19.97374 -10.77182,-26.09568 -4.72944,-4.58214 -12.15186,-7.98598 -18.9865,-8.70702 -0.94818,-0.10005 -2.01905,-0.24105 -2.37973,-0.31337 l -0.65576,-0.13149 v -10.86157 -10.86157 l 1.82156,0.17134 c 11.683,1.09895 20.06581,3.80839 28.22544,9.12284 8.57661,5.58603 15.04058,13.25856 19.30297,22.912 2.784,6.30517 4.21068,11.7612 5.31934,20.34274 0.94691,7.32948 1.60447,10.377796 3.34297,15.497346 6.47492,19.067333 21.98727,34.055141 41.91613,40.498746 11.74777,3.798413 25.44225,4.109688 37.36862,0.849371 25.40901,-6.94604 44.36564,-28.622797 47.50933,-54.326473 l 0.3534,-2.88941 h 11.07295 11.07294 l -0.19956,2.74846 c -0.90781,12.501846 -5.42031,26.134856 -12.31748,37.212978 -12.6821,20.369811 -33.36645,34.66688 -56.94469,39.360299 -8.85859,1.76337 -20.09147,2.330795 -27.96797,1.412801 z m 4.37172,-30.737551 c -0.40075,-0.05689 -1.71226,-0.244197 -2.91449,-0.416231 -4.51324,-0.645831 -9.87718,-2.185886 -13.07881,-3.755092 -1.6353,-0.801511 -2.31443,-1.951439 -1.89728,-3.212555 0.36368,-1.099415 22.2099,-38.052119 22.87854,-38.698849 0.62071,-0.60036 2.44568,-0.71757 3.52318,-0.22628 0.85055,0.38781 22.47076,36.890534 22.60215,38.1606 0.19522,1.887012 -0.88078,2.730266 -5.94469,4.658787 -4.47308,1.703514 -10.59629,3.063757 -15.25937,3.3898 -3.80657,0.266154 -8.41101,0.312533 -9.90923,0.09983 z m -30.17994,-12.467943 c -1.11773,-0.659255 -6.31059,-6.030141 -8.30572,-8.590468 -2.73947,-3.51547 -6.44627,-10.14576 -7.98361,-14.28006 -1.02477,-2.7559 -2.19146,-8.009706 -2.37552,-10.697526 -0.16118,-2.35352 0.19661,-3.09833 1.76556,-3.67529 1.1244,-0.41348 37.65341,-0.38818 38.88456,0.0269 1.09941,0.3707 1.91006,1.92505 1.65609,3.17538 -0.24424,1.20229 -19.04719,33.194277 -19.94322,33.932076 -0.95064,0.782759 -2.4794,0.827806 -3.69814,0.108961 z m 69.80959,-1.792818 c -0.82516,-0.535655 -2.73011,-3.580214 -10.28322,-16.43501 -7.93228,-13.500066 -9.24635,-15.897486 -9.10352,-16.608486 0.23328,-1.16119 0.93368,-2.10645 1.79564,-2.42343 1.06263,-0.39077 34.95115,-0.35858 35.7094,0.0339 0.9196,0.47603 1.60671,1.24333 1.80798,2.01903 0.29771,1.14731 -0.89692,6.81794 -2.28558,10.848956 -2.72905,7.92194 -6.28591,13.90279 -11.75547,19.766775 -3.22346,3.455888 -4.17511,3.908364 -5.88523,2.798241 z"
       id="path25408" /><path
       style="fill:#314d66;stroke:none;stroke-width:0.437643"
       d="m 144.88646,-165.9348 c -3.50355,-2.32866 -6.92155,-4.321 -11.023,-5.46106 -2.85759,-0.79432 -5.85188,-1.16665 -8.81837,-1.03772 -9.70112,0.42158 -16.67336,7.8516 -18.40353,16.92418 -2.42816,12.73202 0.78615,28.39663 7.38054,39.52967 -2.23501,-0.84968 -6.54191,-1.41873 -8.1116,-3.22753 -1.01587,-1.1707 -0.73456,-3.16454 -1.11419,-4.59153 -0.71913,-2.70147 -2.03088,-5.17881 -3.74959,-7.38466 -6.126128,-7.86293 -13.866021,-14.67725 -22.739091,-19.41354 -3.728403,-1.99018 -7.748222,-3.48049 -11.904824,-4.3044 -2.944713,-0.58369 -5.818852,-0.67426 -8.818377,-0.60168 -11.907957,0.28823 -15.054313,8.35354 -14.076446,18.67253 1.403715,14.81189 10.101073,29.69504 18.496883,41.701617 20.28912,29.014783 49.031775,58.579942 82.440675,72.599063 12.8259,5.38212 36.18492,10.831571 43.45745,-5.268296 1.14905,-2.543372 1.7046,-5.068488 2.02514,-7.819056 0.37083,-3.179749 -0.0458,-6.442031 -0.79717,-9.556634 -2.98151,-12.353238 -12.67114,-18.802215 -19.99394,-28.235468 4.13891,-1.643751 5.70417,1.208034 8.8184,3.931248 4.66095,4.076335 9.57897,8.071433 14.99125,11.149096 16.74083,9.519267 32.77839,7.322116 48.06022,-3.992488 12.13498,-8.984978 21.68661,-21.281307 29.98119,-33.676245 2.10539,-3.1463 7.78972,-9.572267 7.57455,-13.466147 -0.11547,-2.08857 -2.70681,-4.18536 -4.02384,-5.64709 -4.02999,-4.47295 -8.24563,-8.94978 -12.8087,-12.90797 -10.70993,-9.28946 -25.28717,-20.20313 -40.56458,-18.24273 -11.53268,1.48042 -23.65928,10.84852 -32.18712,18.11893 0.46651,-10.70385 2.89993,-21.02152 -1.89992,-31.27622 -1.83642,-3.923 -11.21521,-11.88192 -13.59795,-3.4691 -0.68519,2.41944 2.59173,3.86388 3.99297,5.24723 2.57144,2.53934 3.97356,6.05152 4.6927,9.51605 2.2972,11.06833 -1.75399,20.85518 -5.97446,30.84185 h -0.44091 c 2.93211,-8.8781 5.59922,-18.06811 2.76853,-27.3667 -1.73854,-5.70917 -5.1495,-10.13062 -11.58693,-10.40831 -4.68167,-0.20193 -9.11027,1.53755 -13.22758,3.56594 -1.58995,0.78338 -4.37921,3.29382 -6.17287,3.03926 -2.23149,-0.3171 -4.81043,-3.7891 -6.61378,-5.11131 -6.45992,-4.73596 -18.73291,-9.56566 -23.36874,0.22657 -0.12481,-2.11908 0.90697,-3.90721 2.09393,-5.64709 5.82939,-8.54493 13.06886,-6.50123 20.83387,-1.9112 1.80425,1.06653 6.88938,5.3664 8.73948,2.6419 1.03484,-1.52408 0.64947,-4.57928 0.90344,-6.37779 0.58951,-4.17763 1.4978,-8.22388 3.06086,-12.16299 0.67196,-1.69398 2.7747,-4.21928 2.36819,-6.07984 -0.58467,-2.6764 -6.9705,-6.74684 -9.59133,-4.82452 -1.73236,1.27069 -1.48854,4.26269 -1.51413,6.12607 -0.0715,5.23997 0.33292,10.40528 0.4427,15.63811 m 8.37747,10.85979 c 8.87393,-0.71505 19.16543,-9.06077 22.54156,-16.94128 1.0397,-2.42696 2.69401,-8.82502 0.50001,-11.03209 -2.2368,-2.24984 -9.37351,0.57658 -11.57767,1.87936 -8.91231,5.26817 -11.4639,16.59976 -11.4639,26.09401 m -36.15539,1.73756 -0.44093,0.4344 0.44093,-0.4344 m -0.44093,1.73758 -0.44092,0.43439 0.44092,-0.43439 m -21.164124,31.27622 c -6.059989,0 -14.55474,-0.11112 -17.195857,6.51588 12.802104,0 25.167251,0.42658 37.037221,5.78132 11.38146,5.13408 18.14825,14.823617 31.7462,13.766317 l -1.76367,7.38466 c -9.08868,-2.12201 -17.33078,-5.84475 -26.89608,-6.07496 -4.47005,-0.10768 -11.29768,2.94646 -5.14598,7.490215 2.4427,1.804028 7.55384,0.322317 10.43701,0.322317 6.36907,0 13.25182,0.946531 18.95953,3.909528 -1.54233,5.165357 -5.87613,9.897179 -9.38365,13.900536 -1.54189,1.759726 -3.82938,3.718406 -1.93828,6.057604 2.33687,2.890449 5.64156,1.487353 8.67641,0.730206 4.80249,-1.198052 9.59882,-2.715383 14.10943,-4.750078 2.127,-0.959138 5.10717,-3.313967 7.49562,-3.275302 3.12789,0.05073 7.2108,5.588018 9.06575,7.753449 5.83556,6.813439 10.29237,14.670733 12.09661,23.457167 0.65566,3.191916 1.15522,7.834702 -0.40387,10.835907 -1.93034,3.716665 -8.99301,2.184558 -12.38101,1.704562 -11.91012,-1.687175 -23.35462,-6.06803 -33.9508,-11.576553 -28.23603,-14.678104 -49.491881,-38.656969 -67.64779,-63.950745 -7.388265,-10.29292 -16.523237,-22.70263 -19.360998,-35.18575 -2.686511,-11.81807 6.584528,-15.67498 16.902609,-12.96443 12.695929,3.33526 29.531891,13.70767 29.541595,28.16815 m 76.279054,36.923312 h -0.44092 c -4.55293,6.235693 -15.32283,11.056583 -22.92782,12.162973 1.86952,-6.442902 4.5287,-12.269834 4.83293,-19.113238 0.5851,-13.167727 -5.83822,-24.227777 -9.24211,-36.488917 l 16.75494,13.82668 9.70022,9.19608 c 8.37792,-8.62399 16.75669,-16.80011 26.89608,-23.45717 12.38632,-8.13224 27.31981,-13.87709 41.44642,-6.38165 5.28663,2.8053 9.73065,6.65793 14.1028,10.65174 3.53575,3.22968 6.77386,6.79692 9.79327,10.49924 1.06613,1.30752 2.81616,2.94952 2.61862,4.77831 -0.2403,2.22366 -2.17284,4.6189 -3.26986,6.51588 -2.94489,5.091947 -6.18124,10.072677 -9.74123,14.769337 -13.00183,17.154129 -30.505,32.827867 -53.18633,23.271677 -5.05515,-2.130264 -9.71259,-5.116709 -14.10943,-8.341624 -4.60408,-3.376108 -9.90437,-7.241322 -13.22758,-11.889318 m 55.99852,-39.269892 c -5.60718,1.18414 -3.79543,10.01229 1.76148,8.56143 5.36818,-1.40136 3.7337,-9.72169 -1.76148,-8.56143 z"
       id="path79163" /></g><style
     type="text/css"
     id="style40475">
	.st0{fill:#FFFFFF;}
	.st1{fill:#0166B1;}
</style></svg>
