<?xml version="1.0" encoding="UTF-8" standalone="no"?>
<!-- Created with Inkscape (http://www.inkscape.org/) -->

<svg
   width="1206"
   height="2048"
   viewBox="0 0 319.08749 541.86665"
   version="1.1"
   id="svg8"
   inkscape:version="1.2.2 (732a01da63, 2022-12-09)"
   sodipodi:docname="Q584601.svg"
   xml:space="preserve"
   xmlns:inkscape="http://www.inkscape.org/namespaces/inkscape"
   xmlns:sodipodi="http://sodipodi.sourceforge.net/DTD/sodipodi-0.dtd"
   xmlns="http://www.w3.org/2000/svg"
   xmlns:svg="http://www.w3.org/2000/svg"
   xmlns:rdf="http://www.w3.org/1999/02/22-rdf-syntax-ns#"
   xmlns:cc="http://creativecommons.org/ns#"
   xmlns:dc="http://purl.org/dc/elements/1.1/"><defs
     id="defs2"><style
       id="style14746">.cls-1{fill:#f0c43f;}.cls-2{fill:#fff;}.cls-3{fill:#ef373e;}</style><clipPath
       id="1"><path
         id=""
         clip-rule="evenodd"
         transform="matrix(1 0 0 1 0 0)"
         d="M0 1437L0 -0.6291504L0 -0.6291504L1493.25 -0.6291504L1493.25 -0.6291504L1493.25 1437L1493.25 1437L0 1437z" /></clipPath><clipPath
       id="2"><path
         id="path47444"
         clip-rule="evenodd"
         transform="matrix(1 0 0 1 0 0)"
         d="M0 -0.6291504L1494 -0.6291504L1494 -0.6291504L1494 1437.3708L1494 1437.3708L0 1437.3708z" /></clipPath></defs><sodipodi:namedview
     id="base"
     pagecolor="#ffffff"
     bordercolor="#666666"
     borderopacity="1.0"
     inkscape:pageopacity="0.0"
     inkscape:pageshadow="2"
     inkscape:zoom="0.36"
     inkscape:cx="602.77778"
     inkscape:cy="1005.5556"
     inkscape:document-units="mm"
     inkscape:current-layer="layer1"
     showgrid="false"
     units="px"
     inkscape:measure-start="0,0"
     inkscape:measure-end="0,0"
     inkscape:window-width="1920"
     inkscape:window-height="986"
     inkscape:window-x="-11"
     inkscape:window-y="-11"
     inkscape:window-maximized="1"
     inkscape:showpageshadow="2"
     inkscape:pagecheckerboard="0"
     inkscape:deskcolor="#d1d1d1" /><metadata
     id="metadata5"><rdf:RDF><cc:Work
         rdf:about=""><dc:format>image/svg+xml</dc:format><dc:type
           rdf:resource="http://purl.org/dc/dcmitype/StillImage" /></cc:Work></rdf:RDF></metadata><g
     inkscape:label="Ebene 1"
     inkscape:groupmode="layer"
     id="layer1"
     transform="translate(0,244.86641)"><path
       style="fill:#f04da3;fill-opacity:1;stroke-width:0.789747"
       d="M 99.119759,150.28935 C 65.983956,89.554783 38.998268,39.729325 39.151562,39.566083 c 0.153297,-0.163242 27.296483,10.383029 60.318191,23.43619 l 60.039477,23.73297 60.20607,-23.904286 c 33.11334,-13.147375 60.32391,-23.812717 60.46794,-23.700812 0.19748,0.153432 -119.82409,220.384645 -120.6496,221.383605 -0.0918,0.11114 -27.27808,-49.48985 -60.413881,-110.2244 z"
       id="path3304"
       inkscape:label="Inner Point"
       transform="translate(0)" /><path
       style="fill:#402022;fill-opacity:1;stroke-width:0.26458332"
       d="M 1.0262235,4.2861323 159.71639,67.502734 318.51546,4.2848623 159.77151,296.58252 Z M 276.6553,40.689706 159.77129,87.310846 43.250557,40.917226 159.78028,255.85044 Z"
       id="path1447"
       inkscape:connector-curvature="0"
       sodipodi:nodetypes="cccccccccc"
       inkscape:label="Outer Point" /><path
       style="display:inline;fill:#402022;fill-opacity:1;stroke-width:0.447868"
       d="M 149.30917,3.9130256 C 116.46974,0.60648387 86.82739,-15.794059 67.297626,-41.46214 44.895485,-70.905286 38.373125,-108.58242 49.675931,-143.25572 c 11.532121,-35.37678 39.480584,-62.74429 75.673039,-74.09961 11.70825,-3.67335 21.45374,-5.11322 34.588,-5.11046 13.7661,0.002 23.22289,1.4595 35.77161,5.51182 35.26817,11.38712 62.51611,38.12688 74.16454,72.78137 4.05022,12.04969 5.59474,21.71419 5.59474,35.00802 0,13.293876 -1.54455,22.958621 -5.59474,35.008042 -13.91921,41.410196 -49.9957,71.0725412 -94.19628,77.4487296 -5.70126,0.8237289 -20.82865,1.1775422 -26.36767,0.6219338 z"
       id="path2100"
       inkscape:label="Inner Circle" /><path
       style="display:inline;fill:#402022;fill-opacity:1;stroke-width:0.264583"
       d="M 151.20123,26.1654 C 125.27629,24.601951 99.92019,15.319212 78.88626,-0.30871156 69.470801,-7.3042707 59.779109,-16.790242 52.57333,-26.063109 38.314001,-44.412949 28.928442,-66.502672 25.649432,-89.430814 c -1.08353,-7.576463 -1.320236,-11.086846 -1.320236,-19.579166 0,-4.43839 0.148063,-9.6176 0.32903,-11.50937 3.098985,-32.39596 16.047891,-60.54606 38.261619,-83.17831 23.075476,-23.51023 52.116925,-37.21902 85.342255,-40.28514 4.60498,-0.42496 18.14917,-0.42496 22.75416,0 26.03849,2.4029 49.24523,11.24615 69.80113,26.59869 16.4265,12.26842 30.1993,28.66009 39.59439,47.12309 18.67654,36.70273 19.51191,80.226839 2.26232,117.871871 -8.88068,19.381045 -22.93136,37.050949 -40.08805,50.4141949 C 216.81315,18.099395 184.16357,28.153268 151.20123,26.1654 Z m 19.81503,-27.3657097 c 20.09063,-2.211996 38.30728,-9.4704293 54.34341,-21.6531653 13.00387,-9.879121 23.90542,-23.06571 31.33211,-37.8996 15.08308,-30.12659 15.08308,-66.387225 0,-96.513805 -5.94188,-11.86815 -14.39196,-23.08524 -23.8329,-31.63701 -14.65561,-13.27535 -31.54597,-22.01533 -50.43995,-26.10033 -26.13401,-5.65034 -54.31271,-1.18384 -77.25499,12.24542 -24.128353,14.12352 -41.910948,36.88895 -49.668729,63.58632 -7.54717,25.97259 -5.004612,54.175786 7.063078,78.346819 5.513308,11.042906 11.817162,19.77691 20.60485,28.548077 18.609081,18.57409 42.660321,29.4977833 69.317201,31.48277467 4.22501,0.31461338 13.92222,0.10247312 18.53592,-0.40550037 z"
       id="path6"
       inkscape:connector-curvature="0"
       sodipodi:nodetypes="ssssssssssscsssssscsssssss"
       inkscape:label="Outer Circle" /><path
       style="fill:#006bb7;fill-opacity:1;stroke-width:0.286631"
       d="m 505.38898,72.500203 c -5.03399,-1.055829 -8.79732,-4.498068 -10.10294,-9.240961 -0.84014,-3.051973 -0.33519,-6.971013 1.27444,-9.891321 1.6146,-2.929342 5.21768,-5.603343 8.55207,-6.346853 4.48712,-1.000555 9.49979,0.421121 12.66224,3.591251 3.39821,3.40643 4.68556,8.077481 3.47011,12.590956 -0.63837,2.370546 -1.73441,4.154648 -3.62248,5.896517 -1.97421,1.821362 -4.06824,2.898051 -6.67613,3.432705 -2.34402,0.48055 -3.13403,0.475958 -5.55731,-0.03229 z m 110.95394,-0.0912 c -4.2219,-1.350568 -7.5648,-4.677827 -8.79487,-8.753719 -0.63928,-2.118211 -0.5978,-5.74901 0.0901,-7.886717 0.98973,-3.075764 3.2425,-5.789133 6.16953,-7.430905 3.58419,-2.01039 8.22956,-2.159145 12.0875,-0.38707 3.73202,1.714231 6.32319,4.804506 7.26338,8.662444 1.53457,6.296885 -1.41188,12.409407 -7.28135,15.105431 -2.00107,0.919157 -2.52922,1.036961 -5.0484,1.12603 -2.18995,0.07746 -3.18417,-0.01907 -4.48586,-0.435494 z m -64.0492,-22.191265 c -26.84655,-3.128939 -50.64835,-18.08579 -65.00163,-40.8464754 -0.68441,-1.085298 -2.12823,-3.685775 -3.20849,-5.778841 -4.84192,-9.381459 -7.66578,-18.7127486 -8.87202,-29.3170286 -1.44236,-12.68002 -4.45307,-19.97374 -10.77182,-26.09568 -4.72944,-4.58214 -12.15186,-7.98598 -18.9865,-8.70702 -0.94818,-0.10005 -2.01905,-0.24105 -2.37973,-0.31337 l -0.65576,-0.13149 v -10.86157 -10.86157 l 1.82156,0.17134 c 11.683,1.09895 20.06581,3.80839 28.22544,9.12284 8.57661,5.58603 15.04058,13.25856 19.30297,22.912 2.784,6.30517 4.21068,11.7612 5.31934,20.34274 0.94691,7.32948 1.60447,10.3778 3.34297,15.49735 6.47492,19.0673366 21.98727,34.055144 41.91613,40.498749 11.74777,3.798413 25.44225,4.109688 37.36862,0.849371 25.40901,-6.94604 44.36564,-28.6227924 47.50933,-54.32648 l 0.3534,-2.88941 h 11.07295 11.07294 l -0.19956,2.74846 c -0.90781,12.50185 -5.42031,26.1348586 -12.31748,37.2129856 -12.6821,20.3698104 -33.36645,34.6668794 -56.94469,39.3602984 -8.85859,1.76337 -20.09147,2.330795 -27.96797,1.412801 z m 4.37172,-30.737551 c -0.40075,-0.05689 -1.71226,-0.244197 -2.91449,-0.416231 -4.51324,-0.645831 -9.87718,-2.185886 -13.07881,-3.755092 -1.6353,-0.801511 -2.31443,-1.951439 -1.89728,-3.212555 0.36368,-1.099415 22.2099,-38.052126 22.87854,-38.698856 0.62071,-0.60036 2.44568,-0.71757 3.52318,-0.22628 0.85055,0.38781 22.47076,36.890541 22.60215,38.160607 0.19522,1.887012 -0.88078,2.730266 -5.94469,4.658787 -4.47308,1.703514 -10.59629,3.063757 -15.25937,3.3898 -3.80657,0.266154 -8.41101,0.312533 -9.90923,0.09983 z M 526.4855,7.0122446 c -1.11773,-0.659255 -6.31059,-6.03014101 -8.30572,-8.590464 -2.73947,-3.515478 -6.44627,-10.1457676 -7.98361,-14.2800676 -1.02477,-2.7559 -2.19146,-8.00971 -2.37552,-10.69753 -0.16118,-2.35352 0.19661,-3.09833 1.76556,-3.67529 1.1244,-0.41348 37.65341,-0.38818 38.88456,0.0269 1.09941,0.3707 1.91006,1.92505 1.65609,3.17538 -0.24424,1.20229 -19.04719,33.1942846 -19.94322,33.9320836 -0.95064,0.782759 -2.4794,0.827806 -3.69814,0.108961 z m 69.80959,-1.792818 c -0.82516,-0.535655 -2.73011,-3.580214 -10.28322,-16.4350136 -7.93228,-13.50007 -9.24635,-15.89749 -9.10352,-16.60849 0.23328,-1.16119 0.93368,-2.10645 1.79564,-2.42343 1.06263,-0.39077 34.95115,-0.35858 35.7094,0.0339 0.9196,0.47603 1.60671,1.24333 1.80798,2.01903 0.29771,1.14731 -0.89692,6.81794 -2.28558,10.84896 -2.72905,7.9219396 -6.28591,13.9027896 -11.75547,19.7667786 -3.22346,3.455888 -4.17511,3.908364 -5.88523,2.798241 z"
       id="path25408" /><g
       id="layer1-0"
       transform="matrix(0.85000003,0,0,0.862894,49.976823,-158.05126)"><path
         style="fill:#f04da3;fill-opacity:1;fill-rule:evenodd;stroke:none;stroke-width:2.80207"
         inkscape:connector-curvature="0"
         id="Fill-1"
         d="m 128.32043,87.85725 c 0,24.02006 -17.29173,31.77366 -40.38903,32.08157 v 0.0104 l -22.876812,0.002 v -12.61679 c 0.455518,0 0.913521,-0.0105 1.375108,-0.0394 10.535455,-0.66544 19.08439,-9.214321 19.749968,-19.749753 C 86.957671,75.232021 77.200482,65.006706 65.054588,65.006153 V 54.973275 c 0.455518,0 0.912974,-0.01044 1.374832,-0.03935 C 76.964878,54.267236 85.513555,45.718606 86.179664,35.18319 86.957936,22.869645 77.200482,12.644062 65.054588,12.643508 V 0.018493 h 14.368556 c 22.297566,0 44.707036,8.0356457 44.707036,30.18056 0,14.928503 -10.45518,23.178587 -25.265248,27.586781 16.656128,1.998602 29.455498,10.620364 29.455498,30.071145" /><path
         style="fill:#f04da3;fill-opacity:1;fill-rule:evenodd;stroke:none;stroke-width:2.80207"
         inkscape:connector-curvature="0"
         id="Fill-3"
         d="m 195.93893,97.18762 -1.73744,5.33e-4 c -5.50843,0 -8.38841,-2.515719 -8.90608,-9.747259 -0.0586,-0.819505 -0.10995,-2.071172 -0.1553,-3.623332 l -0.003,-83.81431842 -22.96093,0.00421504 c -0.90914,2.6596e-4 -1.64454,0.7213686 -1.68245,1.62967638 -0.30517,7.2691952 -3.8276,13.82858 -9.01356,18.293676 -4.02441,3.465532 -9.03828,5.859184 -15.66144,6.289697 -0.88716,0.05768 -1.57939,0.791468 -1.57939,1.680257 V 44.72642 c 0,0.932502 0.756,1.6885 1.68849,1.6885 h 10.82964 c 0,0 0.0133,30.241323 -0.0764,32.666298 -0.0397,1.066386 -0.18802,7.099318 -0.2455,7.904251 -0.51767,7.231529 -2.72495,10.202774 -8.23333,10.202774 l -2.27353,-2.61e-4 c -0.93278,-2.72e-4 -1.68932,0.755728 -1.68932,1.688225 v 19.377653 c 0,0.9325 0.75654,1.68848 1.68876,1.68848 h 60.01196 c 0.93252,0 1.68826,-0.75598 1.68826,-1.68848 V 98.875895 c 0,-0.932496 -0.75601,-1.688495 -1.68879,-1.688235" /><path
         style="fill:#402022;fill-opacity:1;fill-rule:evenodd;stroke:none;stroke-width:2.80207"
         inkscape:connector-curvature="0"
         id="Fill-5"
         d="m 263.15924,94.938575 h -1.50404 c -0.68562,2.374955 -2.87119,4.113768 -5.46663,4.113768 -5.4174,0 -6.68149,-6.855736 -7.2838,-10.536522 -2.15917,-13.12398 -8.03703,-23.817467 -23.91348,-26.253731 17.93222,-3.698381 28.6706,-15.918444 28.6706,-30.43457 0,-17.252598 -16.16898,-31.50481224 -39.26627,-31.81270713 V 0 L 185.13697,0.00582077 V 12.772688 c 0.0213,-0.0033 2.69936,-0.34446 3.8955,-0.357381 14.33889,-0.155328 23.35874,10.087587 23.35874,21.45323 v 5.31e-4 c 0,11.365661 -9.01985,21.542873 -23.35874,21.387539 -1.19202,-0.01315 -3.85342,-0.351333 -3.89302,-0.357377 v 10.062284 c 16.9214,0.774154 18.91589,14.229958 19.40687,16.922427 0.16742,0.91902 0.47067,3.560377 0.47067,6.133811 0,19.662688 5.84051,35.273248 30.28814,35.273248 26.9755,0 32.36241,-19.41478 27.85357,-28.352405" /><path
         style="fill:#402022;fill-opacity:1;fill-rule:evenodd;stroke:none;stroke-width:2.80207"
         inkscape:connector-curvature="0"
         id="Fill-8"
         d="M 65.054609,107.33306 C 52.899639,107.3437 43.1529,97.114631 43.931731,84.794488 c 0.665563,-10.53541 9.214502,-19.084321 19.749968,-19.749877 0.46185,-0.02921 0.919577,-0.03844 1.374832,-0.03844 l -0.0016,-10.033972 c -12.144784,-0.002 -21.90142,-10.225849 -21.1237,-22.538563 0.665573,-10.535688 9.214235,-19.084325 19.749692,-19.75043 0.461858,-0.02917 0.919862,-0.03904 1.37539,-0.03904 V 0.01859536 L 1.6904201,0.01618678 C 0.75792307,0.0177925 0.00191082,0.77356288 0.00219282,1.7063379 L 0.00550464,21.066672 c 0,0.932222 0.75573025,1.687955 1.68823046,1.687955 h 2.3565506 c 6.3969273,0 7.9548553,3.800367 8.4738913,11.408811 0.519314,7.600741 0.519314,42.294507 0,51.110633 -0.519036,8.815854 -1.873259,11.923997 -9.5083865,11.923997 -0.00753,0 -0.6438469,7.93e-4 -1.330024,0.002 C 0.75436336,97.202082 0,97.956916 0,98.888313 v 19.379577 c 0,0.9325 0.75601224,1.68823 1.6885124,1.68823 l 63.3658926,-0.005 z" /></g><path
       style="fill:#ffffff;fill-opacity:1;stroke-width:2.77778"
       d="m 904.48673,723.22442 c -17.85507,-5.48253 -40.04421,-27.58517 -47.01883,-46.83553 -2.84416,-7.85006 -6.24314,-28.986 -7.81739,-48.61111 -1.53191,-19.09722 -4.64855,-40.56374 -6.92585,-47.70336 -5.68048,-17.80898 -23.24726,-33.7352 -42.23444,-38.29015 l -14.37911,-3.4495 V 523.7073 509.07982 l 19.23659,-1.37637 c 31.68704,-2.2672 53.09706,-18.51391 63.10538,-47.88671 14.92848,-43.81269 -18.11244,-89.60177 -65.81386,-91.20677 l -16.47759,-0.55441 -0.0253,-18.75 -0.0253,-18.75 57.63889,0.033 c 61.94398,0.0354 75.27692,2.00799 102.02366,15.09395 17.68757,8.65372 41.38127,33.02475 49.12386,50.52815 22.71896,51.35998 -7.16687,109.23787 -66.67924,129.13324 l -18.49606,6.18335 12.5,3.23164 c 37.44575,9.68089 56.04388,34.21712 66.6338,87.90896 3.36837,17.07794 12.85106,30.10997 21.90936,30.10997 3.0112,0 9.3183,-3.23395 14.0157,-7.18656 8.92,-7.50564 9.1311,-7.38519 12.3582,7.05186 2.2405,10.02295 -2.8784,29.40767 -11.0105,41.69617 -8.4112,12.71022 -22.2797,22.40575 -41.20694,28.80803 -17.38777,5.88153 -61.39435,5.92375 -80.43511,0.0772 z"
       id="path50643"
       transform="matrix(0.26458333,0,0,0.26458333,0,-244.86641)" /><path
       style="fill:#ffffff;fill-opacity:1;stroke-width:2.77778"
       d="m 191.91304,715.57464 c -2.12449,-2.55986 -2.94485,-14.49978 -2.42346,-35.27236 l 0.7882,-31.40259 13.60214,-2.92205 c 9.64394,-2.07178 15.30224,-5.20425 19.44444,-10.76467 5.69365,-7.64303 5.84231,-10.48278 5.84231,-111.60186 0,-100.76699 -0.16667,-103.98251 -5.77946,-111.50023 -4.08917,-5.477 -9.776,-8.58883 -19.44445,-10.63999 l -13.66498,-2.89903 V 365.25815 331.94444 L 293.75,331.21619 397.22222,330.48794 v 19.47825 c 0,18.99084 -0.17601,19.47825 -7.03366,19.47825 -18.65914,0 -41.26814,15.62063 -52.51322,36.28156 -9.72508,17.86817 -10.95161,39.04885 -3.40382,58.77989 8.33744,21.79527 37.70124,43.82744 58.41187,43.82744 3.6384,0 4.53883,2.96954 4.53883,14.96864 v 14.96864 l -10.28746,1.92994 c -23.41959,4.39354 -46.63534,23.74022 -53.82303,44.85304 -8.20393,24.09791 -1.98411,54.07122 15.11841,72.85563 7.59374,8.3405 25.40385,17.60281 37.88097,19.70031 l 9.72222,1.63439 0.81614,20.10025 0.81614,20.10027 H 296.29515 c -83.09121,0 -101.74438,-0.69152 -104.38211,-3.8698 z"
       id="path50645"
       transform="matrix(0.26458333,0,0,0.26458333,0,-244.86641)" /></g><style
     type="text/css"
     id="style40475">
	.st0{fill:#FFFFFF;}
	.st1{fill:#0166B1;}
</style></svg>
