<?xml version="1.0" encoding="UTF-8" standalone="no"?>
<!-- Created with Inkscape (http://www.inkscape.org/) -->

<svg
   width="1206"
   height="2048"
   viewBox="0 0 319.08749 541.86665"
   version="1.1"
   id="svg8"
   inkscape:version="1.2.2 (732a01da63, 2022-12-09)"
   sodipodi:docname="Q6917970.svg"
   xml:space="preserve"
   xmlns:inkscape="http://www.inkscape.org/namespaces/inkscape"
   xmlns:sodipodi="http://sodipodi.sourceforge.net/DTD/sodipodi-0.dtd"
   xmlns="http://www.w3.org/2000/svg"
   xmlns:svg="http://www.w3.org/2000/svg"
   xmlns:rdf="http://www.w3.org/1999/02/22-rdf-syntax-ns#"
   xmlns:cc="http://creativecommons.org/ns#"
   xmlns:dc="http://purl.org/dc/elements/1.1/"><defs
     id="defs2"><style
       id="style14746">.cls-1{fill:#f0c43f;}.cls-2{fill:#fff;}.cls-3{fill:#ef373e;}</style><clipPath
       id="1"><path
         id=""
         clip-rule="evenodd"
         transform="matrix(1 0 0 1 0 0)"
         d="M0 1437L0 -0.6291504L0 -0.6291504L1493.25 -0.6291504L1493.25 -0.6291504L1493.25 1437L1493.25 1437L0 1437z" /></clipPath><clipPath
       id="2"><path
         id="path47444"
         clip-rule="evenodd"
         transform="matrix(1 0 0 1 0 0)"
         d="M0 -0.6291504L1494 -0.6291504L1494 -0.6291504L1494 1437.3708L1494 1437.3708L0 1437.3708z" /></clipPath></defs><sodipodi:namedview
     id="base"
     pagecolor="#ffffff"
     bordercolor="#666666"
     borderopacity="1.0"
     inkscape:pageopacity="0.0"
     inkscape:pageshadow="2"
     inkscape:zoom="0.36"
     inkscape:cx="602.77778"
     inkscape:cy="1000"
     inkscape:document-units="mm"
     inkscape:current-layer="layer1"
     showgrid="false"
     units="px"
     inkscape:measure-start="0,0"
     inkscape:measure-end="0,0"
     inkscape:window-width="1920"
     inkscape:window-height="986"
     inkscape:window-x="-11"
     inkscape:window-y="-11"
     inkscape:window-maximized="1"
     inkscape:showpageshadow="2"
     inkscape:pagecheckerboard="0"
     inkscape:deskcolor="#d1d1d1" /><metadata
     id="metadata5"><rdf:RDF><cc:Work
         rdf:about=""><dc:format>image/svg+xml</dc:format><dc:type
           rdf:resource="http://purl.org/dc/dcmitype/StillImage" /></cc:Work></rdf:RDF></metadata><g
     inkscape:label="Ebene 1"
     inkscape:groupmode="layer"
     id="layer1"
     transform="translate(0,244.86641)"><path
       style="fill:#feb71a;fill-opacity:1;stroke-width:0.789747"
       d="M 99.119759,150.28935 C 65.983956,89.554783 38.998268,39.729325 39.151562,39.566083 c 0.153297,-0.163242 27.296483,10.383029 60.318191,23.43619 l 60.039477,23.73297 60.20607,-23.904286 c 33.11334,-13.147375 60.32391,-23.812717 60.46794,-23.700812 0.19748,0.153432 -119.82409,220.384645 -120.6496,221.383605 -0.0918,0.11114 -27.27808,-49.48985 -60.413881,-110.2244 z"
       id="path3304"
       inkscape:label="Inner Point"
       transform="translate(0)" /><path
       style="fill:#0c6666;fill-opacity:1;stroke-width:0.26458332"
       d="M 1.0262235,4.2861323 159.71639,67.502734 318.51546,4.2848623 159.77151,296.58252 Z M 276.6553,40.689706 159.77129,87.310846 43.250557,40.917226 159.78028,255.85044 Z"
       id="path1447"
       inkscape:connector-curvature="0"
       sodipodi:nodetypes="cccccccccc"
       inkscape:label="Outer Point" /><path
       style="display:inline;fill:#ffffff;fill-opacity:1;stroke-width:0.447868"
       d="M 149.30917,3.9130256 C 116.46974,0.60648387 86.82739,-15.794059 67.297626,-41.46214 44.895485,-70.905286 38.373125,-108.58242 49.675931,-143.25572 c 11.532121,-35.37678 39.480584,-62.74429 75.673039,-74.09961 11.70825,-3.67335 21.45374,-5.11322 34.588,-5.11046 13.7661,0.002 23.22289,1.4595 35.77161,5.51182 35.26817,11.38712 62.51611,38.12688 74.16454,72.78137 4.05022,12.04969 5.59474,21.71419 5.59474,35.00802 0,13.293876 -1.54455,22.958621 -5.59474,35.008042 -13.91921,41.410196 -49.9957,71.0725412 -94.19628,77.4487296 -5.70126,0.8237289 -20.82865,1.1775422 -26.36767,0.6219338 z"
       id="path2100"
       inkscape:label="Inner Circle" /><path
       style="display:inline;fill:#ffffff;fill-opacity:1;stroke-width:0.264583"
       d="M 151.20123,26.1654 C 125.27629,24.601951 99.92019,15.319212 78.88626,-0.30871156 69.470801,-7.3042707 59.779109,-16.790242 52.57333,-26.063109 38.314001,-44.412949 28.928442,-66.502672 25.649432,-89.430814 c -1.08353,-7.576463 -1.320236,-11.086846 -1.320236,-19.579166 0,-4.43839 0.148063,-9.6176 0.32903,-11.50937 3.098985,-32.39596 16.047891,-60.54606 38.261619,-83.17831 23.075476,-23.51023 52.116925,-37.21902 85.342255,-40.28514 4.60498,-0.42496 18.14917,-0.42496 22.75416,0 26.03849,2.4029 49.24523,11.24615 69.80113,26.59869 16.4265,12.26842 30.1993,28.66009 39.59439,47.12309 18.67654,36.70273 19.51191,80.226839 2.26232,117.871871 -8.88068,19.381045 -22.93136,37.050949 -40.08805,50.4141949 C 216.81315,18.099395 184.16357,28.153268 151.20123,26.1654 Z m 19.81503,-27.3657097 c 20.09063,-2.211996 38.30728,-9.4704293 54.34341,-21.6531653 13.00387,-9.879121 23.90542,-23.06571 31.33211,-37.8996 15.08308,-30.12659 15.08308,-66.387225 0,-96.513805 -5.94188,-11.86815 -14.39196,-23.08524 -23.8329,-31.63701 -14.65561,-13.27535 -31.54597,-22.01533 -50.43995,-26.10033 -26.13401,-5.65034 -54.31271,-1.18384 -77.25499,12.24542 -24.128353,14.12352 -41.910948,36.88895 -49.668729,63.58632 -7.54717,25.97259 -5.004612,54.175786 7.063078,78.346819 5.513308,11.042906 11.817162,19.77691 20.60485,28.548077 18.609081,18.57409 42.660321,29.4977833 69.317201,31.48277467 4.22501,0.31461338 13.92222,0.10247312 18.53592,-0.40550037 z"
       id="path6"
       inkscape:connector-curvature="0"
       sodipodi:nodetypes="ssssssssssscsssssscsssssss"
       inkscape:label="Outer Circle" /><g
       fill="none"
       stroke="#000000"
       stroke-width="1"
       fill-rule="evenodd"
       stroke-linecap="square"
       stroke-linejoin="bevel"
       id="g82"
       transform="matrix(2.3972278,0,0,2.5171163,14.994049,-175.09686)"><g
         fill="#000000"
         fill-opacity="1"
         stroke="#000000"
         stroke-opacity="1"
         stroke-width="1"
         stroke-linecap="square"
         stroke-linejoin="miter"
         stroke-miterlimit="2"
         id="g6" /><g
         fill="#000000"
         fill-opacity="1"
         stroke="#000000"
         stroke-opacity="1"
         stroke-width="1"
         stroke-linecap="square"
         stroke-linejoin="miter"
         stroke-miterlimit="2"
         id="g8" /><g
         fill="#000000"
         fill-opacity="1"
         stroke="#000000"
         stroke-opacity="1"
         stroke-width="1"
         stroke-linecap="square"
         stroke-linejoin="miter"
         stroke-miterlimit="2"
         id="g10" /><g
         fill="#000000"
         fill-opacity="1"
         stroke="#000000"
         stroke-opacity="1"
         stroke-width="1"
         stroke-linecap="square"
         stroke-linejoin="miter"
         stroke-miterlimit="2"
         id="g12" /><g
         fill="#000000"
         fill-opacity="1"
         stroke="#000000"
         stroke-opacity="1"
         stroke-width="1"
         stroke-linecap="square"
         stroke-linejoin="miter"
         stroke-miterlimit="2"
         transform="matrix(0.999682,0,0,0.999682,8.01286,8)"
         id="g14" /><g
         fill="#0c6666"
         fill-opacity="1"
         stroke="none"
         transform="matrix(0.999682,0,0,0.999682,-2064.84,282.823)"
         id="g18"><path
           vector-effect="none"
           fill-rule="nonzero"
           d="m 2109.8,-248.076 c 0.01,0.597 -0.23,1.172 -0.65,1.59 -0.43,0.418 -1.01,0.642 -1.6,0.621 -0.88,0.036 -1.74,-0.301 -2.36,-0.929 -0.62,-0.627 -0.94,-1.486 -0.9,-2.366 v -10.36 c 0,0 0,-4.552 -5.41,-4.552 -3.04,0 -5.2,2.341 -5.2,5.592 v 10.361 c 0.02,1.219 -0.95,2.226 -2.17,2.254 -1.23,-0.025 -2.21,-1.026 -2.21,-2.254 v -11.4 c 0,-1.777 -1.39,-4.552 -5.25,-4.552 h -0.17 c -2.99,0.13 -4.77,2.168 -4.86,5.289 v 9.624 c 0.05,0.88 -0.28,1.739 -0.89,2.366 -0.62,0.627 -1.48,0.964 -2.36,0.929 -0.59,0.021 -1.17,-0.203 -1.6,-0.621 -0.43,-0.418 -0.66,-0.993 -0.65,-1.59 -0.08,-0.665 0.22,-1.316 0.78,-1.691 0.28,-0.133 0.44,-0.432 0.39,-0.737 v -13.265 c 0.05,-0.305 -0.11,-0.604 -0.39,-0.737 -0.55,-0.375 -0.86,-1.025 -0.78,-1.69 -0.01,-0.597 0.22,-1.172 0.65,-1.59 0.43,-0.418 1.01,-0.642 1.6,-0.621 0.84,-0.035 1.65,0.266 2.26,0.836 0.61,0.571 0.97,1.362 0.99,2.198 1.49,-1.873 3.73,-2.986 6.12,-3.034 6.02,0 7.41,3.468 7.41,3.468 1.52,-2.251 4.09,-3.561 6.8,-3.468 5.68,0 9.28,3.468 9.28,9.667 v 8.236 c -0.05,0.305 0.11,0.604 0.39,0.737 0.55,0.375 0.85,1.025 0.78,1.689"
           id="path16" /></g><g
         fill="#000000"
         fill-opacity="1"
         stroke="#000000"
         stroke-opacity="1"
         stroke-width="1"
         stroke-linecap="square"
         stroke-linejoin="miter"
         stroke-miterlimit="2"
         transform="matrix(0.999682,0,0,0.999682,8.01286,8)"
         id="g20" /><g
         fill="#0c6666"
         fill-opacity="1"
         stroke="none"
         transform="matrix(0.999682,0,0,0.999682,-2140.8,283.24)"
         id="g24"><path
           vector-effect="none"
           fill-rule="nonzero"
           d="m 2188.9,-257.554 c 0.03,-6.334 5.15,-11.462 11.49,-11.488 6.34,0.011 11.47,5.148 11.49,11.488 -0.03,6.334 -5.16,11.462 -11.49,11.488 -6.33,-0.041 -11.45,-5.161 -11.49,-11.488 m 4.33,0 c 0.01,3.949 3.21,7.149 7.16,7.153 3.95,-0.003 7.15,-3.204 7.15,-7.153 0.01,-1.899 -0.75,-3.721 -2.09,-5.064 -1.34,-1.342 -3.16,-2.094 -5.06,-2.088 -1.9,-0.005 -3.72,0.747 -5.06,2.089 -1.35,1.343 -2.1,3.165 -2.09,5.063 h -0.01"
           id="path22" /></g><g
         fill="#000000"
         fill-opacity="1"
         stroke="#000000"
         stroke-opacity="1"
         stroke-width="1"
         stroke-linecap="square"
         stroke-linejoin="miter"
         stroke-miterlimit="2"
         transform="matrix(0.999682,0,0,0.999682,8.01286,8)"
         id="g26" /><g
         fill="#0c6666"
         fill-opacity="1"
         stroke="none"
         transform="matrix(0.999682,0,0,0.999682,-2188.79,295.356)"
         id="g30"><path
           vector-effect="none"
           fill-rule="nonzero"
           d="m 2269.6,-284.152 v 3.208 h 4.51 c 0.79,-0.03 1.54,0.377 1.94,1.06 0.41,0.683 0.41,1.532 0,2.215 -0.4,0.683 -1.15,1.09 -1.94,1.06 h -4.51 v 9.494 c 0,1.821 0.3,4.422 2.73,4.422 0.74,-0.024 1.47,-0.156 2.17,-0.39 2.82,-0.867 3.86,2.991 1.21,4.075 -1.1,0.437 -2.28,0.644 -3.46,0.607 -5.12,0 -6.98,-3.685 -6.98,-8.67 v -9.537 h -1.13 c -0.81,0.058 -1.59,-0.342 -2.01,-1.037 -0.42,-0.694 -0.42,-1.567 0,-2.261 0.42,-0.695 1.2,-1.095 2.01,-1.037 h 1.13 v -1.864 c 0.04,-0.305 -0.12,-0.604 -0.39,-0.737 -0.56,-0.375 -0.86,-1.026 -0.78,-1.691 -0.01,-0.597 0.22,-1.172 0.65,-1.59 0.42,-0.418 1,-0.643 1.6,-0.621 0.88,-0.035 1.73,0.302 2.35,0.929 0.62,0.627 0.95,1.486 0.9,2.365 v 0"
           id="path28" /></g><g
         fill="#000000"
         fill-opacity="1"
         stroke="#000000"
         stroke-opacity="1"
         stroke-width="1"
         stroke-linecap="square"
         stroke-linejoin="miter"
         stroke-miterlimit="2"
         transform="matrix(0.999682,0,0,0.999682,8.01286,8)"
         id="g32" /><g
         fill="#0c6666"
         fill-opacity="1"
         stroke="none"
         transform="matrix(0.999682,0,0,0.999682,-2222.69,283.24)"
         id="g36"><path
           vector-effect="none"
           fill-rule="nonzero"
           d="m 2313.3,-257.554 c 0.03,-6.334 5.15,-11.462 11.49,-11.488 6.34,0.011 11.48,5.148 11.49,11.488 -0.03,6.334 -5.16,11.462 -11.49,11.488 -6.33,-0.041 -11.45,-5.161 -11.49,-11.488 v 0 m 4.34,0 c 0,3.949 3.2,7.149 7.15,7.153 3.95,-0.004 7.15,-3.204 7.15,-7.153 0.01,-1.899 -0.75,-3.721 -2.09,-5.064 -1.34,-1.342 -3.16,-2.094 -5.06,-2.088 -1.9,-0.005 -3.72,0.746 -5.06,2.089 -1.35,1.342 -2.1,3.165 -2.09,5.063 v 0"
           id="path34" /></g><g
         fill="#000000"
         fill-opacity="1"
         stroke="#000000"
         stroke-opacity="1"
         stroke-width="1"
         stroke-linecap="square"
         stroke-linejoin="miter"
         stroke-miterlimit="2"
         transform="matrix(0.999682,0,0,0.999682,8.01286,8)"
         id="g38" /><g
         fill="#000000"
         fill-opacity="1"
         stroke="#000000"
         stroke-opacity="1"
         stroke-width="1"
         stroke-linecap="square"
         stroke-linejoin="miter"
         stroke-miterlimit="2"
         transform="matrix(0.999682,0,0,0.999682,8.01286,8)"
         id="g40" /><g
         fill="#feb71a"
         fill-opacity="1"
         stroke="none"
         transform="matrix(0.999682,0,0,0.999682,-2187.81,233.124)"
         id="g44"><path
           vector-effect="none"
           fill-rule="nonzero"
           d="m 2270.18,-182.744 c -5.44,0 -9.86,-3.634 -9.86,-8.1 0,-1.139 0.92,-2.063 2.06,-2.063 1.14,0 2.06,0.924 2.06,2.063 0,2.155 2.63,3.975 5.74,3.975 3.11,0 5.73,-1.82 5.73,-3.975 0,-1.139 0.93,-2.063 2.07,-2.063 1.14,0 2.06,0.924 2.06,2.063 0,4.466 -4.42,8.1 -9.86,8.1"
           id="path42" /></g><g
         fill="#000000"
         fill-opacity="1"
         stroke="#000000"
         stroke-opacity="1"
         stroke-width="1"
         stroke-linecap="square"
         stroke-linejoin="miter"
         stroke-miterlimit="2"
         transform="matrix(0.999682,0,0,0.999682,8.01286,8)"
         id="g46" /><g
         fill="#000000"
         fill-opacity="1"
         stroke="#000000"
         stroke-opacity="1"
         stroke-width="1"
         stroke-linecap="square"
         stroke-linejoin="miter"
         stroke-miterlimit="2"
         transform="matrix(0.999682,0,0,0.999682,8.01286,8)"
         id="g52" /><g
         fill="#000000"
         fill-opacity="1"
         stroke="#000000"
         stroke-opacity="1"
         stroke-width="1"
         stroke-linecap="square"
         stroke-linejoin="miter"
         stroke-miterlimit="2"
         transform="matrix(0.999682,0,0,0.999682,8.01286,8)"
         id="g54" /><g
         fill="#000000"
         fill-opacity="1"
         stroke="#000000"
         stroke-opacity="1"
         stroke-width="1"
         stroke-linecap="square"
         stroke-linejoin="miter"
         stroke-miterlimit="2"
         id="g56" /><g
         fill="#000000"
         fill-opacity="1"
         stroke="#000000"
         stroke-opacity="1"
         stroke-width="1"
         stroke-linecap="square"
         stroke-linejoin="miter"
         stroke-miterlimit="2"
         id="g58" /><g
         fill="#000000"
         fill-opacity="1"
         stroke="#000000"
         stroke-opacity="1"
         stroke-width="1"
         stroke-linecap="square"
         stroke-linejoin="miter"
         stroke-miterlimit="2"
         id="g60" /><g
         fill="#000000"
         fill-opacity="1"
         stroke="#000000"
         stroke-opacity="1"
         stroke-width="1"
         stroke-linecap="square"
         stroke-linejoin="miter"
         stroke-miterlimit="2"
         id="g62" /><g
         fill="#000000"
         fill-opacity="1"
         stroke="#000000"
         stroke-opacity="1"
         stroke-width="1"
         stroke-linecap="square"
         stroke-linejoin="miter"
         stroke-miterlimit="2"
         transform="matrix(0.999682,0,0,0.999682,8.01286,8)"
         id="g64" /><g
         fill="#000000"
         fill-opacity="1"
         stroke="#000000"
         stroke-opacity="1"
         stroke-width="1"
         stroke-linecap="square"
         stroke-linejoin="miter"
         stroke-miterlimit="2"
         transform="matrix(0.999682,0,0,0.999682,8.01286,8)"
         id="g66" /><g
         fill="#000000"
         fill-opacity="1"
         stroke="#000000"
         stroke-opacity="1"
         stroke-width="1"
         stroke-linecap="square"
         stroke-linejoin="miter"
         stroke-miterlimit="2"
         transform="matrix(0.999682,0,0,0.999682,8.01286,8)"
         id="g68" /><g
         fill="#000000"
         fill-opacity="1"
         stroke="#000000"
         stroke-opacity="1"
         stroke-width="1"
         stroke-linecap="square"
         stroke-linejoin="miter"
         stroke-miterlimit="2"
         id="g70" /><g
         fill="#000000"
         fill-opacity="1"
         stroke="#000000"
         stroke-opacity="1"
         stroke-width="1"
         stroke-linecap="square"
         stroke-linejoin="miter"
         stroke-miterlimit="2"
         id="g72" /><g
         fill="#000000"
         fill-opacity="1"
         stroke="#000000"
         stroke-opacity="1"
         stroke-width="1"
         stroke-linecap="square"
         stroke-linejoin="miter"
         stroke-miterlimit="2"
         id="g74" /><g
         fill="#000000"
         fill-opacity="1"
         stroke="#000000"
         stroke-opacity="1"
         stroke-width="1"
         stroke-linecap="square"
         stroke-linejoin="miter"
         stroke-miterlimit="2"
         id="g76" /><g
         fill="#000000"
         fill-opacity="1"
         stroke="#000000"
         stroke-opacity="1"
         stroke-width="1"
         stroke-linecap="square"
         stroke-linejoin="miter"
         stroke-miterlimit="2"
         id="g78" /><g
         fill="#000000"
         fill-opacity="1"
         stroke="#000000"
         stroke-opacity="1"
         stroke-width="1"
         stroke-linecap="square"
         stroke-linejoin="miter"
         stroke-miterlimit="2"
         id="g80" /></g></g><style
     type="text/css"
     id="style40475">
	.st0{fill:#FFFFFF;}
	.st1{fill:#0166B1;}
</style><style
     type="text/css"
     id="style88316">
	.st0{fill:#E61931;}
</style></svg>
