<?xml version="1.0" encoding="UTF-8" standalone="no"?>
<!-- Created with Inkscape (http://www.inkscape.org/) -->

<svg
   width="1206"
   height="2048"
   viewBox="0 0 319.08749 541.86665"
   version="1.1"
   id="svg8"
   inkscape:version="1.2.2 (732a01da63, 2022-12-09)"
   sodipodi:docname="Q7339582.svg"
   xml:space="preserve"
   xmlns:inkscape="http://www.inkscape.org/namespaces/inkscape"
   xmlns:sodipodi="http://sodipodi.sourceforge.net/DTD/sodipodi-0.dtd"
   xmlns="http://www.w3.org/2000/svg"
   xmlns:svg="http://www.w3.org/2000/svg"
   xmlns:rdf="http://www.w3.org/1999/02/22-rdf-syntax-ns#"
   xmlns:cc="http://creativecommons.org/ns#"
   xmlns:dc="http://purl.org/dc/elements/1.1/"><defs
     id="defs2"><style
       id="style14746">.cls-1{fill:#f0c43f;}.cls-2{fill:#fff;}.cls-3{fill:#ef373e;}</style><clipPath
       id="1"><path
         id=""
         clip-rule="evenodd"
         transform="matrix(1 0 0 1 0 0)"
         d="M0 1437L0 -0.6291504L0 -0.6291504L1493.25 -0.6291504L1493.25 -0.6291504L1493.25 1437L1493.25 1437L0 1437z" /></clipPath><clipPath
       id="2"><path
         id="path47444"
         clip-rule="evenodd"
         transform="matrix(1 0 0 1 0 0)"
         d="M0 -0.6291504L1494 -0.6291504L1494 -0.6291504L1494 1437.3708L1494 1437.3708L0 1437.3708z" /></clipPath></defs><sodipodi:namedview
     id="base"
     pagecolor="#ffffff"
     bordercolor="#666666"
     borderopacity="1.0"
     inkscape:pageopacity="0.0"
     inkscape:pageshadow="2"
     inkscape:zoom="0.36"
     inkscape:cx="602.77778"
     inkscape:cy="1000"
     inkscape:document-units="mm"
     inkscape:current-layer="layer1"
     showgrid="false"
     units="px"
     inkscape:measure-start="0,0"
     inkscape:measure-end="0,0"
     inkscape:window-width="1920"
     inkscape:window-height="986"
     inkscape:window-x="-11"
     inkscape:window-y="-11"
     inkscape:window-maximized="1"
     inkscape:showpageshadow="2"
     inkscape:pagecheckerboard="0"
     inkscape:deskcolor="#d1d1d1" /><metadata
     id="metadata5"><rdf:RDF><cc:Work
         rdf:about=""><dc:format>image/svg+xml</dc:format><dc:type
           rdf:resource="http://purl.org/dc/dcmitype/StillImage" /></cc:Work></rdf:RDF></metadata><g
     inkscape:label="Ebene 1"
     inkscape:groupmode="layer"
     id="layer1"
     transform="translate(0,244.86641)"><path
       style="fill:#ffffff;fill-opacity:1;stroke-width:0.789747"
       d="M 99.119759,150.28935 C 65.983956,89.554783 38.998268,39.729325 39.151562,39.566083 c 0.153297,-0.163242 27.296483,10.383029 60.318191,23.43619 l 60.039477,23.73297 60.20607,-23.904286 c 33.11334,-13.147375 60.32391,-23.812717 60.46794,-23.700812 0.19748,0.153432 -119.82409,220.384645 -120.6496,221.383605 -0.0918,0.11114 -27.27808,-49.48985 -60.413881,-110.2244 z"
       id="path3304"
       inkscape:label="Inner Point"
       transform="translate(0)" /><path
       style="fill:#e61931;fill-opacity:1;stroke-width:0.26458332"
       d="M 1.0262235,4.2861323 159.71639,67.502734 318.51546,4.2848623 159.77151,296.58252 Z M 276.6553,40.689706 159.77129,87.310846 43.250557,40.917226 159.78028,255.85044 Z"
       id="path1447"
       inkscape:connector-curvature="0"
       sodipodi:nodetypes="cccccccccc"
       inkscape:label="Outer Point" /><path
       style="display:inline;fill:#e61931;fill-opacity:1;stroke-width:0.447868"
       d="M 149.30917,3.9130256 C 116.46974,0.60648387 86.82739,-15.794059 67.297626,-41.46214 44.895485,-70.905286 38.373125,-108.58242 49.675931,-143.25572 c 11.532121,-35.37678 39.480584,-62.74429 75.673039,-74.09961 11.70825,-3.67335 21.45374,-5.11322 34.588,-5.11046 13.7661,0.002 23.22289,1.4595 35.77161,5.51182 35.26817,11.38712 62.51611,38.12688 74.16454,72.78137 4.05022,12.04969 5.59474,21.71419 5.59474,35.00802 0,13.293876 -1.54455,22.958621 -5.59474,35.008042 -13.91921,41.410196 -49.9957,71.0725412 -94.19628,77.4487296 -5.70126,0.8237289 -20.82865,1.1775422 -26.36767,0.6219338 z"
       id="path2100"
       inkscape:label="Inner Circle" /><path
       style="display:inline;fill:#e61931;fill-opacity:1;stroke-width:0.264583"
       d="M 151.20123,26.1654 C 125.27629,24.601951 99.92019,15.319212 78.88626,-0.30871156 69.470801,-7.3042707 59.779109,-16.790242 52.57333,-26.063109 38.314001,-44.412949 28.928442,-66.502672 25.649432,-89.430814 c -1.08353,-7.576463 -1.320236,-11.086846 -1.320236,-19.579166 0,-4.43839 0.148063,-9.6176 0.32903,-11.50937 3.098985,-32.39596 16.047891,-60.54606 38.261619,-83.17831 23.075476,-23.51023 52.116925,-37.21902 85.342255,-40.28514 4.60498,-0.42496 18.14917,-0.42496 22.75416,0 26.03849,2.4029 49.24523,11.24615 69.80113,26.59869 16.4265,12.26842 30.1993,28.66009 39.59439,47.12309 18.67654,36.70273 19.51191,80.226839 2.26232,117.871871 -8.88068,19.381045 -22.93136,37.050949 -40.08805,50.4141949 C 216.81315,18.099395 184.16357,28.153268 151.20123,26.1654 Z m 19.81503,-27.3657097 c 20.09063,-2.211996 38.30728,-9.4704293 54.34341,-21.6531653 13.00387,-9.879121 23.90542,-23.06571 31.33211,-37.8996 15.08308,-30.12659 15.08308,-66.387225 0,-96.513805 -5.94188,-11.86815 -14.39196,-23.08524 -23.8329,-31.63701 -14.65561,-13.27535 -31.54597,-22.01533 -50.43995,-26.10033 -26.13401,-5.65034 -54.31271,-1.18384 -77.25499,12.24542 -24.128353,14.12352 -41.910948,36.88895 -49.668729,63.58632 -7.54717,25.97259 -5.004612,54.175786 7.063078,78.346819 5.513308,11.042906 11.817162,19.77691 20.60485,28.548077 18.609081,18.57409 42.660321,29.4977833 69.317201,31.48277467 4.22501,0.31461338 13.92222,0.10247312 18.53592,-0.40550037 z"
       id="path6"
       inkscape:connector-curvature="0"
       sodipodi:nodetypes="ssssssssssscsssssscsssssss"
       inkscape:label="Outer Circle" /><path
       class="st0"
       d="m 73.122768,-129.33824 h 3.132878 v 7.55507 h 0.125355 c 1.712657,-5.19713 5.513877,-8.22878 10.568269,-7.98818 v 3.94597 c -6.182222,-0.38496 -10.401172,4.86029 -10.401172,11.54918 v 17.179405 H 73.1228 Z m 39.892072,16.0726 c 0,9.23934 -4.63667,17.035037 -13.199897,17.035037 -8.563206,0 -13.199885,-7.795697 -13.199885,-17.035037 0,-9.23934 4.678437,-17.03504 13.199885,-17.03504 8.563227,0 13.199897,7.7957 13.199897,17.03504 m -23.016258,0 c 0,6.88138 3.258201,13.714645 9.816361,13.714645 6.558177,0 9.774597,-6.881385 9.774597,-13.714645 0,-6.88138 -3.2582,-13.71466 -9.774597,-13.71466 -6.516401,0 -9.816361,6.83328 -9.816361,13.71466 m 26.608618,-6.2558 c 0.33419,-7.55509 4.92909,-10.77924 11.32017,-10.77924 4.92909,0 10.27586,1.73238 10.27586,10.34614 v 17.08316 c 0,1.49177 0.66836,2.35796 2.00505,2.35796 0.37595,0 0.7519,-0.0962 1.08607,-0.24061 v 3.320385 c -0.71012,0.19248 -1.46201,0.28873 -2.2139,0.24061 -3.46706,0 -4.01009,-2.26171 -4.01009,-5.630225 H 134.945 c -2.42277,4.186575 -4.80376,6.54453 -10.19233,6.54453 -5.13792,0 -9.35688,-2.935405 -9.35688,-9.43182 0,-9.04686 7.64424,-9.33559 14.99608,-10.34614 2.79872,-0.38498 4.38603,-0.81807 4.38603,-4.37906 0,-5.29339 -3.29995,-6.59266 -7.31005,-6.59266 -4.21897,0 -7.35184,2.21359 -7.47717,7.50697 z m 18.17075,4.76403 h -0.12535 c -0.41772,0.91431 -1.9215,1.25116 -2.88227,1.44365 -5.7645,1.20303 -12.99102,1.10679 -12.99102,7.41071 0,3.94599 3.00756,6.352055 6.26576,6.352055 5.17972,0 9.77461,-3.801595 9.73283,-10.105535 z m 33.62631,17.564375 h -3.1329 v -6.111445 h -0.12535 c -1.46201,4.186585 -5.88982,7.02575 -9.94169,7.02575 -8.47967,0 -12.57331,-7.94005 -12.57331,-17.03503 0,-9.09497 4.05187,-17.03504 12.57331,-17.03504 4.17718,0 8.22905,2.45421 9.69106,7.07388 h 0.12535 v -18.47869 h 3.4253 v 44.560575 z m -13.19991,-2.35796 c 7.2683,0 9.81638,-7.025745 9.81638,-13.714645 0,-6.6889 -2.54808,-13.71466 -9.81638,-13.71466 -6.51639,0 -9.14801,7.02576 -9.14801,13.71466 0,6.6889 2.67339,13.714645 9.14801,13.714645 m 37.26047,-18.526795 c -0.50126,-3.60912 -2.50631,-5.53399 -5.68096,-5.53399 -4.92909,0 -6.55818,5.72646 -6.55818,10.49049 0,4.61968 1.58732,10.15366 6.39108,10.15366 3.55061,0 5.6392,-2.59857 6.09869,-6.54453 h 7.43538 c -0.96076,8.51751 -6.14045,13.23343 -13.49229,13.23343 -8.4379,0 -14.11888,-6.88138 -14.11888,-16.50571 0,-10.0574 5.17971,-17.46811 14.28596,-17.46811 6.59995,0 12.65686,3.99408 13.15813,12.22287 z m 10.77713,-23.62771 h 7.686 v 16.79443 h 0.1671 c 1.75441,-3.27226 4.84551,-5.29336 8.18727,-5.38961 8.18726,0 10.23408,5.29338 10.23408,13.28156 v 19.826085 h -7.68601 V -115.383 c 0,-5.29335 -1.33669,-7.94005 -4.92907,-7.94005 -4.17718,0 -5.97337,2.6948 -5.97337,9.23934 v 16.890675 h -7.686 z m 37.26044,30.55721 c 0.20886,5.63022 2.58985,8.18066 6.89236,8.18066 3.0911,0 5.55565,-2.16546 6.05691,-4.18657 h 6.76703 c -2.17214,7.603205 -6.76703,10.87547 -13.11636,10.87547 -8.81385,0 -14.28595,-6.97763 -14.28595,-16.93879 0,-9.67244 5.80628,-17.03503 14.28595,-17.03503 9.52398,0 14.11889,9.23934 13.57584,19.15237 h -20.17578 z m 12.48976,-5.63023 c -0.71011,-4.4753 -2.42275,-6.83326 -6.14045,-6.83326 -4.8873,0 -6.26576,4.37907 -6.39108,6.83326 z m 12.74041,-6.73702 h -4.59489 v -5.91895 h 4.59489 v -2.50232 c 0,-5.67836 3.09111,-9.76869 9.35688,-9.76869 1.33671,0 2.75694,0.19249 4.05187,0.24062 v 6.59265 c -0.91897,-0.1444 -1.87973,-0.19249 -2.79871,-0.19249 -2.04682,0 -2.92403,1.01056 -2.92403,3.65725 v 1.92485 h 5.30503 v 5.91897 h -5.30503 v 26.322485 h -7.68601 z m 0,0 m -199.752779,14.96582 c -47.076822,11.597282 -33.292127,20.981 -16.123916,28.632322 24.770689,10.442386 60.485575,13.810909 112.157295,14.821453 51.29579,1.010563 90.64483,-8.565636 106.55988,-14.965809 7.31006,-2.93542 11.90497,-5.052774 14.91254,-9.672447 3.00758,-4.619675 -2.17214,-8.084414 -2.84049,-8.661884 -0.71011,5.437751 -9.60751,9.046863 -18.37959,11.982283 -18.9644,5.726465 -49.20718,11.549179 -93.61061,11.837908 -44.19458,0.28873 -97.370087,-7.988176 -109.692771,-17.420018 -11.278387,-8.661878 3.92656,-15.350788 6.558175,-16.409458 l 0.459487,-0.14441"
       id="path88318"
       style="stroke-width:0.448343;fill:#ffffff" /></g><style
     type="text/css"
     id="style40475">
	.st0{fill:#FFFFFF;}
	.st1{fill:#0166B1;}
</style><style
     type="text/css"
     id="style88316">
	.st0{fill:#E61931;}
</style></svg>
