<?xml version="1.0" encoding="UTF-8" standalone="no"?>
<!-- Created with Inkscape (http://www.inkscape.org/) -->

<svg
   xmlns:dc="http://purl.org/dc/elements/1.1/"
   xmlns:cc="http://creativecommons.org/ns#"
   xmlns:rdf="http://www.w3.org/1999/02/22-rdf-syntax-ns#"
   xmlns:svg="http://www.w3.org/2000/svg"
   xmlns="http://www.w3.org/2000/svg"
   xmlns:sodipodi="http://sodipodi.sourceforge.net/DTD/sodipodi-0.dtd"
   xmlns:inkscape="http://www.inkscape.org/namespaces/inkscape"
   width="1206"
   height="2048"
   viewBox="0 0 319.08749 541.86665"
   version="1.1"
   id="svg8"
   inkscape:version="0.92.2 (5c3e80d, 2017-08-06)"
   sodipodi:docname="Rewe.svg">
  <defs
     id="defs2">
    <style
       id="style815">.cls-1{fill:#cc071e;}.cls-2{fill:#fff;}</style>
  </defs>
  <sodipodi:namedview
     id="base"
     pagecolor="#ffffff"
     bordercolor="#666666"
     borderopacity="1.0"
     inkscape:pageopacity="0.0"
     inkscape:pageshadow="2"
     inkscape:zoom="0.175"
     inkscape:cx="-1823.2307"
     inkscape:cy="1043.4883"
     inkscape:document-units="mm"
     inkscape:current-layer="layer1"
     showgrid="false"
     units="px"
     inkscape:measure-start="0,0"
     inkscape:measure-end="0,0"
     inkscape:window-width="1920"
     inkscape:window-height="1017"
     inkscape:window-x="-8"
     inkscape:window-y="-8"
     inkscape:window-maximized="1" />
  <metadata
     id="metadata5">
    <rdf:RDF>
      <cc:Work
         rdf:about="">
        <dc:format>image/svg+xml</dc:format>
        <dc:type
           rdf:resource="http://purl.org/dc/dcmitype/StillImage" />
        <dc:title></dc:title>
      </cc:Work>
    </rdf:RDF>
  </metadata>
  <g
     inkscape:label="Ebene 1"
     inkscape:groupmode="layer"
     id="layer1"
     transform="translate(0,244.86641)">
    <path
       style="fill:#cc071e;fill-opacity:1;stroke-width:0.26458332"
       d="M 1.0262235,4.2861323 159.71639,67.502734 318.51546,4.2848623 159.77151,296.58252 Z M 276.6553,40.689706 159.77129,87.310846 43.250557,40.917226 159.78028,255.85044 Z"
       id="path1447"
       inkscape:connector-curvature="0"
       sodipodi:nodetypes="cccccccccc" />
    <path
       style="fill:#cc071e;fill-opacity:1;stroke-width:0.26458332"
       d="M 151.20123,26.1654 C 125.27629,24.601951 99.92019,15.319212 78.88626,-0.30871156 69.470801,-7.3042707 59.779109,-16.790242 52.57333,-26.063109 38.314001,-44.412949 28.928442,-66.502672 25.649432,-89.430814 c -1.08353,-7.576463 -1.320236,-11.086846 -1.320236,-19.579166 0,-4.43839 0.148063,-9.6176 0.32903,-11.50937 3.098985,-32.39596 16.047891,-60.54606 38.261619,-83.17831 23.075476,-23.51023 52.116925,-37.21902 85.342255,-40.28514 4.60498,-0.42496 18.14917,-0.42496 22.75416,0 26.03849,2.4029 49.24523,11.24615 69.80113,26.59869 16.4265,12.26842 30.1993,28.66009 39.59439,47.12309 18.67654,36.70273 19.51191,80.226839 2.26232,117.871871 -8.88068,19.381045 -22.93136,37.050949 -40.08805,50.4141949 C 216.81315,18.099395 184.16357,28.153268 151.20123,26.1654 Z"
       id="path6"
       inkscape:connector-curvature="0"
       sodipodi:nodetypes="ssssssssssscss" />
    <g
       id="g833"
       transform="matrix(0.40746011,0,0,0.40746011,34.798943,-156.46389)">
      <rect
         id="rect821"
         height="208.39999"
         width="599.81"
         class="cls-1"
         x="0"
         y="0"
         style="fill:#cc071e" />
      <path
         id="path823"
         d="m 54.155775,191.0958 c 8.621007,0 12.702924,-4.08192 12.702924,-12.47434 v -45.82631 h 0.457174 l 26.777373,46.04402 c 4.996266,8.621 9.306764,12.25663 17.013424,12.25663 h 26.99507 c 6.53107,0 11.97362,-2.49269 11.97362,-7.71754 q 0,-3.05872 -2.72127,-7.48896 L 114.2307,126.90631 c 21.37835,-7.93525 30.67424,-23.1744 30.67424,-41.308995 0,-30.6307 -18.14548,-48.776178 -65.789607,-48.776178 H 32.603257 C 24.156412,36.810251 20.128921,40.903053 20.128921,49.52406 v 129.0974 c 0,8.39242 4.081916,12.47434 12.474336,12.47434 z M 66.858699,104.42855 V 72.165089 h 9.981646 c 13.388687,0 19.059827,5.671142 19.059827,16.109963 0,10.438818 -5.67114,16.153498 -19.059827,16.153498 z M 263.79211,191.0958 c 8.62101,0 12.70292,-4.08192 12.70292,-12.47434 v -11.12458 c 0,-8.62101 -4.08191,-12.70292 -12.70292,-12.70292 h -50.82258 v -23.14175 h 37.20531 c 8.621,0 12.70292,-4.08191 12.70292,-12.47433 v -11.09193 c 0,-8.62101 -4.08192,-12.702923 -12.70292,-12.702923 H 212.96953 V 73.112094 h 44.01939 c 8.621,0 12.70292,-4.081917 12.70292,-12.474336 V 49.52406 c 0,-8.621007 -4.08192,-12.702923 -12.70292,-12.702923 h -79.17829 c -8.39242,0 -12.47434,4.081916 -12.47434,12.702923 v 129.0974 c 0,8.39242 4.08192,12.47434 12.47434,12.47434 z M 406.22378,49.066885 C 404.40596,40.445878 400.09546,36.810251 390.57099,36.810251 H 371.337 c -9.52447,0 -13.83498,3.624742 -15.65279,12.256634 L 340.24912,124.84902 H 339.8246 L 327.31761,49.066885 c -1.36064,-8.621007 -5.67114,-12.256634 -15.65279,-12.256634 h -18.64619 c -7.71754,0 -11.97362,3.40704 -11.97362,10.210234 a 21.77022,21.77022 0 0 0 0.68576,4.98538 l 29.71635,126.593825 c 2.0464,8.39242 6.12832,12.47434 16.78484,12.47434 h 18.60265 c 9.52448,0 13.83498,-3.63563 15.65279,-12.25663 l 17.01343,-82.813922 h 0.45717 l 17.01343,82.835692 c 1.81782,8.621 6.12832,12.25663 15.65279,12.25663 h 18.63531 c 10.66741,0 14.74932,-4.08192 16.78484,-12.47434 L 477.76072,52.027635 a 21.661369,21.661369 0 0 0 0.68576,-4.98538 c 0,-6.803194 -4.53909,-10.210233 -11.97362,-10.210233 h -15.95757 c -9.98165,0 -14.29215,3.624741 -15.65279,12.256634 L 422.37728,124.84902 H 421.9201 Z M 588.2337,191.0958 c 8.62101,0 12.70293,-4.08192 12.70293,-12.47434 v -11.12458 c 0,-8.62101 -4.08192,-12.70292 -12.70293,-12.70292 h -50.82258 v -23.14175 h 37.20531 c 8.62101,0 12.70292,-4.08191 12.70292,-12.47433 v -11.09193 c 0,-8.62101 -4.08191,-12.702923 -12.70292,-12.702923 H 537.41112 V 73.112094 h 44.06293 c 8.62101,0 12.70292,-4.081917 12.70292,-12.474336 V 49.52406 c 0,-8.621007 -4.08191,-12.702923 -12.70292,-12.702923 h -79.23272 c -8.39242,0 -12.47433,4.081916 -12.47433,12.702923 v 129.0974 c 0,8.39242 4.08191,12.47434 12.47433,12.47434 z"
         class="cls-2"
         inkscape:connector-curvature="0"
         style="fill:#ffffff;stroke-width:1.08851099" />
    </g>
  </g>
</svg>
